{"glyphs":{"0":{"ha":847,"x_min":72,"x_max":774,"o":"m 422 -16 q 253 25 321 -16 q 146 137 185 66 q 89 299 106 208 q 72 493 72 391 q 90 688 72 595 q 147 853 107 781 q 254 967 187 926 q 422 1009 322 1009 q 596 969 527 1009 q 703 857 665 928 q 758 693 742 786 q 774 493 774 599 q 756 301 774 393 q 697 138 738 210 q 588 25 656 67 q 422 -16 520 -16 m 422 83 q 533 120 490 83 q 602 218 577 157 q 636 351 626 278 q 647 493 647 423 q 639 641 647 567 q 608 776 631 715 q 540 874 585 838 q 422 911 495 911 q 308 873 352 911 q 240 774 264 835 q 206 638 215 712 q 196 493 196 565 q 204 345 196 418 q 235 213 212 272 q 303 118 258 153 q 422 83 348 83 z "},"1":{"ha":674,"x_min":97,"x_max":424,"o":"m 305 0 l 305 882 q 126 783 234 828 l 97 874 q 216 936 158 902 q 310 997 274 971 l 424 997 l 424 0 l 305 0 z "},"2":{"ha":867,"x_min":68,"x_max":719,"o":"m 68 0 l 68 102 q 238 263 150 181 q 405 428 326 344 q 485 515 441 466 q 563 622 530 564 q 595 744 595 679 q 538 867 595 826 q 398 908 481 908 q 247 861 306 908 q 160 749 188 815 l 92 816 q 206 954 125 903 q 406 1006 288 1006 q 562 977 492 1006 q 675 891 633 948 q 717 749 717 834 q 688 614 717 678 q 614 495 658 551 q 520 393 569 440 q 433 307 472 346 q 323 202 380 254 q 212 101 265 150 l 719 101 l 719 0 l 68 0 z "},"3":{"ha":826,"x_min":75,"x_max":728,"o":"m 360 -16 q 174 26 253 -16 q 75 155 94 67 l 133 225 q 218 121 158 160 q 367 83 278 83 q 485 104 431 83 q 572 167 540 125 q 605 274 605 210 q 566 393 605 351 q 463 452 528 436 q 321 467 399 469 l 267 465 l 267 565 l 310 565 q 445 581 385 565 q 539 638 505 597 q 574 753 574 678 q 517 872 574 836 q 378 907 460 907 q 240 873 294 907 q 152 783 185 840 l 84 845 q 195 964 115 922 q 382 1006 275 1006 q 539 978 467 1006 q 657 894 612 950 q 701 754 701 838 q 674 639 701 686 q 600 563 646 592 q 501 518 555 533 q 615 476 563 506 q 698 396 667 446 q 728 272 728 346 q 676 112 728 176 q 541 16 624 48 q 360 -16 457 -16 z "},"4":{"ha":826,"x_min":17,"x_max":772,"o":"m 504 0 l 504 244 l 17 244 l 17 330 l 479 986 l 624 986 l 624 335 l 772 335 l 772 244 l 624 244 l 624 0 l 504 0 m 136 335 l 504 335 l 504 897 l 443 796 l 136 335 z "},"5":{"ha":869,"x_min":125,"x_max":765,"o":"m 403 -16 q 234 22 304 -16 q 125 120 165 59 l 181 201 q 270 116 216 149 q 402 83 324 83 q 545 122 489 83 q 626 225 602 162 q 642 314 642 267 q 609 438 642 388 q 524 510 577 487 q 435 526 485 526 q 345 507 384 526 q 286 457 307 488 l 164 453 l 164 990 l 713 990 l 713 889 l 277 889 l 267 583 q 344 616 303 603 q 439 628 385 628 q 633 575 556 628 q 742 438 709 522 q 765 312 765 381 q 704 118 765 192 q 555 10 644 43 q 403 -16 486 -16 z "},"6":{"ha":917,"x_min":101,"x_max":813,"o":"m 463 -15 q 305 16 371 -15 q 197 99 240 47 q 133 215 155 151 q 106 348 111 280 q 113 516 101 429 q 158 686 124 603 q 253 840 192 769 q 406 961 314 911 q 625 1031 497 1011 l 650 929 q 441 857 528 913 q 301 718 354 801 q 227 541 248 636 q 295 611 250 583 q 391 651 340 638 q 480 665 442 665 q 661 618 587 665 q 774 495 735 572 q 813 324 813 418 q 767 147 813 224 q 643 28 722 71 q 463 -15 564 -15 m 462 88 q 635 151 574 88 q 697 320 697 213 q 676 438 697 381 q 605 533 655 496 q 466 570 554 571 q 338 538 392 570 q 252 451 283 506 q 222 326 222 396 q 248 210 222 265 q 327 122 274 156 q 462 88 381 88 z "},"7":{"ha":831,"x_min":81,"x_max":755,"o":"m 219 0 l 622 885 l 81 885 l 81 986 l 755 986 l 755 923 l 348 0 l 219 0 z "},"8":{"ha":894,"x_min":104,"x_max":790,"o":"m 447 -16 q 255 26 336 -16 q 133 139 173 67 q 104 255 104 190 q 167 428 104 366 q 324 519 231 491 q 185 601 242 544 q 128 758 128 657 q 156 870 128 824 q 227 947 183 917 q 323 992 272 976 q 383 1005 352 1000 q 447 1009 414 1009 q 628 971 552 1009 q 741 864 705 933 q 766 758 766 817 q 710 601 766 657 q 571 519 653 544 q 727 428 664 491 q 790 255 790 366 q 760 134 790 183 q 687 54 730 85 q 581 3 643 22 q 447 -16 519 -16 m 447 569 q 547 601 502 580 q 619 659 592 622 q 647 754 647 696 q 588 875 647 835 q 447 915 528 915 q 334 890 382 915 q 264 823 287 866 q 248 754 248 792 q 275 659 248 696 q 348 601 302 622 q 447 569 393 580 m 447 83 q 651 186 600 83 q 667 264 667 219 q 635 370 667 329 q 552 433 603 410 q 447 467 502 456 q 325 424 380 454 q 244 340 270 393 q 227 264 227 306 q 290 127 227 171 q 447 83 353 83 z "},"9":{"ha":845,"x_min":69,"x_max":776,"o":"m 354 -53 l 260 0 l 544 399 q 503 377 540 397 q 410 358 467 358 q 227 402 303 358 q 110 522 151 446 q 69 691 69 597 q 115 867 69 791 q 240 987 160 944 q 419 1030 319 1030 q 621 981 542 1030 q 738 854 700 932 q 776 688 776 776 q 679 415 776 554 l 354 -53 m 424 452 q 601 518 542 452 q 660 689 660 584 q 605 863 660 799 q 427 926 549 926 q 252 863 316 926 q 189 690 189 800 q 211 576 189 631 q 284 486 233 521 q 424 452 335 452 z "},"A":{"ha":990,"x_min":9,"x_max":977,"o":"m 9 0 l 428 1011 l 557 1011 l 977 0 l 844 0 l 731 276 l 247 276 l 138 0 l 9 0 m 285 378 l 690 378 l 528 799 q 509 849 519 821 q 491 901 499 878 q 473 849 483 878 q 455 798 463 820 l 285 378 z "},"Á":{"ha":990,"x_min":9,"x_max":977,"o":"m 9 0 l 428 1011 l 557 1011 l 977 0 l 844 0 l 731 276 l 247 276 l 138 0 l 9 0 m 285 378 l 690 378 l 528 799 q 509 849 519 821 q 491 901 499 878 q 473 849 483 878 q 455 798 463 820 l 285 378 m 439 1113 l 596 1335 l 743 1335 l 529 1113 l 439 1113 z "},"Ă":{"ha":990,"x_min":9,"x_max":977,"o":"m 9 0 l 428 1011 l 557 1011 l 977 0 l 844 0 l 731 276 l 247 276 l 138 0 l 9 0 m 285 378 l 690 378 l 528 799 q 509 849 519 821 q 491 901 499 878 q 473 849 483 878 q 455 798 463 820 l 285 378 m 497 1130 q 357 1175 408 1130 q 299 1331 306 1220 l 378 1331 q 413 1239 386 1267 q 492 1211 439 1211 q 574 1239 545 1211 q 613 1331 602 1267 l 691 1331 q 634 1176 684 1223 q 497 1130 583 1130 z "},"Ǎ":{"ha":990,"x_min":9,"x_max":977,"o":"m 9 0 l 428 1011 l 557 1011 l 977 0 l 844 0 l 731 276 l 247 276 l 138 0 l 9 0 m 285 378 l 690 378 l 528 799 q 509 849 519 821 q 491 901 499 878 q 473 849 483 878 q 455 798 463 820 l 285 378 m 441 1111 l 275 1335 l 377 1335 l 491 1186 l 608 1335 l 715 1335 l 549 1111 l 441 1111 z "},"Â":{"ha":990,"x_min":9,"x_max":977,"o":"m 9 0 l 428 1011 l 557 1011 l 977 0 l 844 0 l 731 276 l 247 276 l 138 0 l 9 0 m 285 378 l 690 378 l 528 799 q 509 849 519 821 q 491 901 499 878 q 473 849 483 878 q 455 798 463 820 l 285 378 m 282 1111 l 440 1333 l 549 1333 l 708 1111 l 617 1111 l 493 1258 l 369 1111 l 282 1111 z "},"Ȁ":{"ha":990,"x_min":9,"x_max":977,"o":"m 9 0 l 428 1011 l 557 1011 l 977 0 l 844 0 l 731 276 l 247 276 l 138 0 l 9 0 m 285 378 l 690 378 l 528 799 q 509 849 519 821 q 491 901 499 878 q 473 849 483 878 q 455 798 463 820 l 285 378 m 357 1117 l 173 1339 l 295 1339 l 448 1117 l 357 1117 m 544 1117 l 360 1339 l 483 1339 l 633 1117 l 544 1117 z "},"Ä":{"ha":990,"x_min":9,"x_max":977,"o":"m 9 0 l 428 1011 l 557 1011 l 977 0 l 844 0 l 731 276 l 247 276 l 138 0 l 9 0 m 285 378 l 690 378 l 528 799 q 509 849 519 821 q 491 901 499 878 q 473 849 483 878 q 455 798 463 820 l 285 378 m 557 1138 l 557 1258 l 678 1258 l 678 1138 l 557 1138 m 312 1138 l 312 1258 l 433 1258 l 433 1138 l 312 1138 z "},"À":{"ha":990,"x_min":9,"x_max":977,"o":"m 9 0 l 428 1011 l 557 1011 l 977 0 l 844 0 l 731 276 l 247 276 l 138 0 l 9 0 m 285 378 l 690 378 l 528 799 q 509 849 519 821 q 491 901 499 878 q 473 849 483 878 q 455 798 463 820 l 285 378 m 471 1117 l 240 1339 l 389 1339 l 560 1117 l 471 1117 z "},"Ȃ":{"ha":990,"x_min":9,"x_max":977,"o":"m 9 0 l 428 1011 l 557 1011 l 977 0 l 844 0 l 731 276 l 247 276 l 138 0 l 9 0 m 285 378 l 690 378 l 528 799 q 509 849 519 821 q 491 901 499 878 q 473 849 483 878 q 455 798 463 820 l 285 378 m 297 1130 q 354 1286 303 1242 q 494 1331 405 1331 q 631 1285 581 1331 q 688 1130 681 1238 l 610 1130 q 571 1222 599 1194 q 489 1250 542 1250 q 410 1222 436 1250 q 376 1130 383 1194 l 297 1130 z "},"Ā":{"ha":990,"x_min":9,"x_max":977,"o":"m 9 0 l 428 1011 l 557 1011 l 977 0 l 844 0 l 731 276 l 247 276 l 138 0 l 9 0 m 285 378 l 690 378 l 528 799 q 509 849 519 821 q 491 901 499 878 q 473 849 483 878 q 455 798 463 820 l 285 378 m 297 1141 l 297 1234 l 694 1234 l 694 1141 l 297 1141 z "},"Ą":{"ha":990,"x_min":9,"x_max":977,"o":"m 9 0 l 428 1011 l 557 1011 l 977 0 l 844 0 l 731 276 l 247 276 l 138 0 l 9 0 m 285 378 l 690 378 l 528 799 q 509 849 519 821 q 491 901 499 878 q 473 849 483 878 q 455 798 463 820 l 285 378 m 845 -271 q 760 -254 797 -271 q 706 -206 724 -237 q 694 -156 694 -184 q 708 -102 694 -126 q 740 -62 723 -79 q 788 -23 761 -41 q 843 8 815 -5 l 933 0 q 860 -46 897 -22 q 802 -105 824 -71 q 792 -138 792 -122 q 813 -180 792 -165 q 861 -195 835 -195 q 919 -189 894 -195 q 968 -174 944 -183 l 968 -251 q 911 -266 944 -260 q 845 -271 878 -271 z "},"Å":{"ha":990,"x_min":9,"x_max":977,"o":"m 9 0 l 428 1011 l 557 1011 l 977 0 l 844 0 l 731 276 l 247 276 l 138 0 l 9 0 m 285 378 l 690 378 l 528 799 q 509 849 519 821 q 491 901 499 878 q 473 849 483 878 q 455 798 463 820 l 285 378 m 496 1097 q 392 1134 435 1097 q 349 1228 349 1171 q 394 1326 349 1291 q 495 1361 440 1361 q 600 1323 558 1361 q 641 1229 641 1284 q 620 1159 641 1189 q 565 1113 599 1129 q 496 1097 532 1097 m 494 1163 q 544 1182 523 1163 q 565 1229 565 1201 q 544 1277 565 1259 q 494 1296 524 1296 q 445 1277 466 1296 q 425 1229 425 1258 q 444 1181 425 1199 q 494 1163 464 1163 z "},"Ã":{"ha":990,"x_min":9,"x_max":977,"o":"m 9 0 l 428 1011 l 557 1011 l 977 0 l 844 0 l 731 276 l 247 276 l 138 0 l 9 0 m 285 378 l 690 378 l 528 799 q 509 849 519 821 q 491 901 499 878 q 473 849 483 878 q 455 798 463 820 l 285 378 m 272 1134 q 311 1237 277 1194 q 410 1280 345 1280 q 477 1266 449 1280 q 535 1240 506 1251 q 576 1233 557 1233 q 619 1251 604 1233 q 637 1295 633 1269 l 719 1295 q 680 1191 712 1236 q 583 1146 648 1146 q 524 1158 550 1146 q 473 1181 499 1169 q 415 1193 448 1193 q 351 1134 358 1193 l 272 1134 z "},"Æ":{"ha":1408,"x_min":3,"x_max":1320,"o":"m 3 0 l 581 1011 l 1304 1011 l 1304 908 l 805 908 l 831 569 l 1276 569 l 1276 467 l 844 467 l 873 103 l 1320 103 l 1320 0 l 767 0 l 745 276 l 297 276 l 140 0 l 3 0 m 351 379 l 732 379 l 690 908 l 656 908 l 351 379 z "},"B":{"ha":901,"x_min":121,"x_max":842,"o":"m 121 0 l 121 1011 l 406 1011 q 698 955 601 1011 q 794 767 794 899 q 754 616 794 670 q 631 534 714 563 q 788 455 734 514 q 842 280 842 396 q 737 65 842 129 q 452 0 633 0 l 121 0 m 240 573 l 395 573 q 605 614 542 573 q 668 748 668 655 q 608 872 668 835 q 406 908 549 908 l 240 908 l 240 573 m 240 103 l 448 103 q 651 144 588 103 q 715 282 715 185 q 646 430 715 384 q 416 475 577 475 l 240 475 l 240 103 z "},"C":{"ha":966,"x_min":78,"x_max":899,"o":"m 567 -15 q 304 51 414 -15 q 136 234 194 117 q 78 504 78 351 q 139 776 78 658 q 309 963 199 895 q 568 1030 419 1030 q 758 999 683 1030 q 890 925 833 968 l 835 838 q 717 901 782 878 q 581 924 653 924 q 375 870 458 924 q 248 720 291 815 q 205 503 205 626 q 245 291 205 385 q 366 144 285 198 q 570 90 447 90 q 736 115 665 90 q 860 185 807 140 l 899 88 q 755 11 838 38 q 567 -15 672 -15 z "},"Ć":{"ha":966,"x_min":78,"x_max":899,"o":"m 567 -15 q 304 51 414 -15 q 136 234 194 117 q 78 504 78 351 q 139 776 78 658 q 309 963 199 895 q 568 1030 419 1030 q 758 999 683 1030 q 890 925 833 968 l 835 838 q 717 901 782 878 q 581 924 653 924 q 375 870 458 924 q 248 720 291 815 q 205 503 205 626 q 245 291 205 385 q 366 144 285 198 q 570 90 447 90 q 736 115 665 90 q 860 185 807 140 l 899 88 q 755 11 838 38 q 567 -15 672 -15 m 500 1113 l 657 1335 l 804 1335 l 590 1113 l 500 1113 z "},"Č":{"ha":966,"x_min":78,"x_max":899,"o":"m 567 -15 q 304 51 414 -15 q 136 234 194 117 q 78 504 78 351 q 139 776 78 658 q 309 963 199 895 q 568 1030 419 1030 q 758 999 683 1030 q 890 925 833 968 l 835 838 q 717 901 782 878 q 581 924 653 924 q 375 870 458 924 q 248 720 291 815 q 205 503 205 626 q 245 291 205 385 q 366 144 285 198 q 570 90 447 90 q 736 115 665 90 q 860 185 807 140 l 899 88 q 755 11 838 38 q 567 -15 672 -15 m 502 1111 l 336 1335 l 438 1335 l 552 1186 l 669 1335 l 776 1335 l 610 1111 l 502 1111 z "},"Ç":{"ha":966,"x_min":78,"x_max":899,"o":"m 567 -15 q 304 51 414 -15 q 136 234 194 117 q 78 504 78 351 q 139 776 78 658 q 309 963 199 895 q 568 1030 419 1030 q 758 999 683 1030 q 890 925 833 968 l 835 838 q 717 901 782 878 q 581 924 653 924 q 375 870 458 924 q 248 720 291 815 q 205 503 205 626 q 245 291 205 385 q 366 144 285 198 q 570 90 447 90 q 736 115 665 90 q 860 185 807 140 l 899 88 q 755 11 838 38 q 567 -15 672 -15 m 562 -275 q 500 -270 531 -275 q 440 -260 469 -265 l 446 -201 q 498 -212 472 -207 q 551 -217 523 -217 q 608 -207 585 -217 q 630 -167 630 -197 q 608 -127 630 -137 q 554 -117 585 -117 q 529 -118 541 -117 q 506 -120 517 -119 l 529 12 l 597 12 l 584 -62 l 590 -62 q 687 -87 644 -65 q 729 -166 729 -110 q 705 -231 729 -208 q 642 -265 681 -255 q 562 -275 604 -275 z "},"Ċ":{"ha":966,"x_min":78,"x_max":899,"o":"m 567 -15 q 304 51 414 -15 q 136 234 194 117 q 78 504 78 351 q 139 776 78 658 q 309 963 199 895 q 568 1030 419 1030 q 758 999 683 1030 q 890 925 833 968 l 835 838 q 717 901 782 878 q 581 924 653 924 q 375 870 458 924 q 248 720 291 815 q 205 503 205 626 q 245 291 205 385 q 366 144 285 198 q 570 90 447 90 q 736 115 665 90 q 860 185 807 140 l 899 88 q 755 11 838 38 q 567 -15 672 -15 m 495 1158 l 495 1283 l 617 1283 l 617 1158 l 495 1158 z "},"D":{"ha":1058,"x_min":121,"x_max":980,"o":"m 121 0 l 121 1011 l 340 1011 q 600 985 483 1011 q 802 900 717 959 q 934 743 888 841 q 980 503 980 646 q 908 224 980 335 q 707 56 835 112 q 410 0 579 0 l 121 0 m 240 103 l 422 103 q 738 203 622 103 q 853 501 853 303 q 794 746 853 657 q 622 872 734 835 q 354 908 510 908 l 240 908 l 240 103 z "},"Ď":{"ha":1058,"x_min":121,"x_max":980,"o":"m 121 0 l 121 1011 l 340 1011 q 600 985 483 1011 q 802 900 717 959 q 934 743 888 841 q 980 503 980 646 q 908 224 980 335 q 707 56 835 112 q 410 0 579 0 l 121 0 m 240 103 l 422 103 q 738 203 622 103 q 853 501 853 303 q 794 746 853 657 q 622 872 734 835 q 354 908 510 908 l 240 908 l 240 103 m 462 1111 l 296 1335 l 398 1335 l 512 1186 l 628 1335 l 735 1335 l 570 1111 l 462 1111 z "},"Đ":{"ha":1074,"x_min":-1,"x_max":993,"o":"m 134 0 l 134 457 l -1 457 l -1 552 l 134 552 l 134 1011 l 353 1011 q 613 985 496 1011 q 816 900 731 959 q 947 743 901 841 q 993 503 993 646 q 951 283 993 376 q 835 129 909 190 q 664 35 760 68 q 424 0 558 0 l 134 0 m 253 103 l 435 103 q 696 164 592 103 q 840 340 799 225 q 867 501 867 414 q 794 764 867 671 q 583 888 722 856 q 367 908 490 908 l 253 908 l 253 552 l 397 552 l 397 457 l 253 457 l 253 103 z "},"Ð":{"ha":1074,"x_min":-1,"x_max":993,"o":"m 134 0 l 134 457 l -1 457 l -1 552 l 134 552 l 134 1011 l 353 1011 q 613 985 496 1011 q 816 900 731 959 q 947 743 901 841 q 993 503 993 646 q 951 283 993 376 q 835 129 909 190 q 664 35 760 68 q 424 0 558 0 l 134 0 m 253 103 l 435 103 q 696 164 592 103 q 840 340 799 225 q 867 501 867 414 q 794 764 867 671 q 583 888 722 856 q 367 908 490 908 l 253 908 l 253 552 l 397 552 l 397 457 l 253 457 l 253 103 z "},"E":{"ha":824,"x_min":121,"x_max":758,"o":"m 121 0 l 121 1011 l 723 1011 l 723 908 l 240 908 l 240 569 l 697 569 l 697 467 l 240 467 l 240 103 l 758 103 l 758 0 l 121 0 z "},"É":{"ha":824,"x_min":121,"x_max":758,"o":"m 121 0 l 121 1011 l 723 1011 l 723 908 l 240 908 l 240 569 l 697 569 l 697 467 l 240 467 l 240 103 l 758 103 l 758 0 l 121 0 m 369 1113 l 526 1335 l 674 1335 l 460 1113 l 369 1113 z "},"Ě":{"ha":824,"x_min":121,"x_max":758,"o":"m 121 0 l 121 1011 l 723 1011 l 723 908 l 240 908 l 240 569 l 697 569 l 697 467 l 240 467 l 240 103 l 758 103 l 758 0 l 121 0 m 372 1111 l 206 1335 l 308 1335 l 422 1186 l 538 1335 l 645 1335 l 480 1111 l 372 1111 z "},"Ê":{"ha":824,"x_min":121,"x_max":758,"o":"m 121 0 l 121 1011 l 723 1011 l 723 908 l 240 908 l 240 569 l 697 569 l 697 467 l 240 467 l 240 103 l 758 103 l 758 0 l 121 0 m 213 1111 l 371 1333 l 480 1333 l 639 1111 l 547 1111 l 424 1258 l 300 1111 l 213 1111 z "},"Ȅ":{"ha":824,"x_min":103,"x_max":758,"o":"m 121 0 l 121 1011 l 723 1011 l 723 908 l 240 908 l 240 569 l 697 569 l 697 467 l 240 467 l 240 103 l 758 103 l 758 0 l 121 0 m 288 1117 l 103 1339 l 226 1339 l 378 1117 l 288 1117 m 474 1117 l 291 1339 l 413 1339 l 564 1117 l 474 1117 z "},"Ë":{"ha":824,"x_min":121,"x_max":758,"o":"m 121 0 l 121 1011 l 723 1011 l 723 908 l 240 908 l 240 569 l 697 569 l 697 467 l 240 467 l 240 103 l 758 103 l 758 0 l 121 0 m 488 1138 l 488 1258 l 609 1258 l 609 1138 l 488 1138 m 242 1138 l 242 1258 l 364 1258 l 364 1138 l 242 1138 z "},"Ė":{"ha":824,"x_min":121,"x_max":758,"o":"m 121 0 l 121 1011 l 723 1011 l 723 908 l 240 908 l 240 569 l 697 569 l 697 467 l 240 467 l 240 103 l 758 103 l 758 0 l 121 0 m 365 1158 l 365 1283 l 487 1283 l 487 1158 l 365 1158 z "},"È":{"ha":824,"x_min":121,"x_max":758,"o":"m 121 0 l 121 1011 l 723 1011 l 723 908 l 240 908 l 240 569 l 697 569 l 697 467 l 240 467 l 240 103 l 758 103 l 758 0 l 121 0 m 401 1117 l 171 1339 l 319 1339 l 491 1117 l 401 1117 z "},"Ȇ":{"ha":824,"x_min":121,"x_max":758,"o":"m 121 0 l 121 1011 l 723 1011 l 723 908 l 240 908 l 240 569 l 697 569 l 697 467 l 240 467 l 240 103 l 758 103 l 758 0 l 121 0 m 227 1130 q 285 1286 234 1242 q 424 1331 335 1331 q 561 1285 511 1331 q 619 1130 612 1238 l 540 1130 q 501 1222 530 1194 q 419 1250 473 1250 q 340 1222 367 1250 q 306 1130 314 1194 l 227 1130 z "},"Ē":{"ha":824,"x_min":121,"x_max":758,"o":"m 121 0 l 121 1011 l 723 1011 l 723 908 l 240 908 l 240 569 l 697 569 l 697 467 l 240 467 l 240 103 l 758 103 l 758 0 l 121 0 m 227 1141 l 227 1234 l 624 1234 l 624 1141 l 227 1141 z "},"Ę":{"ha":824,"x_min":121,"x_max":792,"o":"m 121 0 l 121 1011 l 723 1011 l 723 908 l 240 908 l 240 569 l 697 569 l 697 467 l 240 467 l 240 103 l 758 103 l 758 0 l 121 0 m 669 -271 q 584 -254 621 -271 q 530 -206 548 -237 q 518 -156 518 -184 q 533 -102 518 -126 q 565 -62 547 -79 q 613 -23 585 -41 q 667 8 640 -5 l 757 0 q 685 -46 721 -22 q 626 -105 649 -71 q 616 -138 616 -122 q 638 -180 616 -165 q 685 -195 659 -195 q 744 -189 719 -195 q 792 -174 769 -183 l 792 -251 q 736 -266 769 -260 q 669 -271 703 -271 z "},"F":{"ha":766,"x_min":121,"x_max":706,"o":"m 121 0 l 121 1011 l 706 1011 l 706 908 l 240 908 l 240 566 l 683 566 l 683 463 l 240 463 l 240 0 l 121 0 z "},"G":{"ha":1050,"x_min":78,"x_max":936,"o":"m 587 -15 q 211 116 344 -15 q 78 487 78 247 q 140 770 78 648 q 318 961 202 892 q 594 1030 433 1030 q 781 1002 704 1030 q 919 913 858 974 l 869 832 q 592 924 772 924 q 381 868 468 924 q 247 716 293 813 q 201 496 201 619 q 302 197 201 303 q 597 90 403 90 q 715 98 660 90 q 817 124 770 105 l 817 422 l 566 422 l 566 526 l 936 526 l 936 56 q 775 3 860 21 q 587 -15 690 -15 z "},"Ğ":{"ha":1050,"x_min":78,"x_max":936,"o":"m 587 -15 q 211 116 344 -15 q 78 487 78 247 q 140 770 78 648 q 318 961 202 892 q 594 1030 433 1030 q 781 1002 704 1030 q 919 913 858 974 l 869 832 q 592 924 772 924 q 381 868 468 924 q 247 716 293 813 q 201 496 201 619 q 302 197 201 303 q 597 90 403 90 q 715 98 660 90 q 817 124 770 105 l 817 422 l 566 422 l 566 526 l 936 526 l 936 56 q 775 3 860 21 q 587 -15 690 -15 m 599 1130 q 459 1175 510 1130 q 401 1331 408 1220 l 481 1331 q 515 1239 488 1267 q 594 1211 541 1211 q 676 1239 647 1211 q 715 1331 704 1267 l 793 1331 q 736 1176 786 1223 q 599 1130 685 1130 z "},"Ģ":{"ha":1050,"x_min":78,"x_max":936,"o":"m 587 -15 q 211 116 344 -15 q 78 487 78 247 q 140 770 78 648 q 318 961 202 892 q 594 1030 433 1030 q 781 1002 704 1030 q 919 913 858 974 l 869 832 q 592 924 772 924 q 381 868 468 924 q 247 716 293 813 q 201 496 201 619 q 302 197 201 303 q 597 90 403 90 q 715 98 660 90 q 817 124 770 105 l 817 422 l 566 422 l 566 526 l 936 526 l 936 56 q 775 3 860 21 q 587 -15 690 -15 m 391 -434 l 465 -112 l 595 -112 l 482 -434 l 391 -434 z "},"Ġ":{"ha":1050,"x_min":78,"x_max":936,"o":"m 587 -15 q 211 116 344 -15 q 78 487 78 247 q 140 770 78 648 q 318 961 202 892 q 594 1030 433 1030 q 781 1002 704 1030 q 919 913 858 974 l 869 832 q 592 924 772 924 q 381 868 468 924 q 247 716 293 813 q 201 496 201 619 q 302 197 201 303 q 597 90 403 90 q 715 98 660 90 q 817 124 770 105 l 817 422 l 566 422 l 566 526 l 936 526 l 936 56 q 775 3 860 21 q 587 -15 690 -15 m 536 1158 l 536 1283 l 658 1283 l 658 1158 l 536 1158 z "},"H":{"ha":1037,"x_min":121,"x_max":916,"o":"m 121 0 l 121 1011 l 240 1011 l 240 571 l 797 571 l 797 1011 l 916 1011 l 916 0 l 797 0 l 797 468 l 240 468 l 240 0 l 121 0 z "},"Ħ":{"ha":1037,"x_min":6,"x_max":1030,"o":"m 121 0 l 121 745 l 6 745 l 6 847 l 121 847 l 121 1011 l 240 1011 l 240 847 l 797 847 l 797 1011 l 916 1011 l 916 847 l 1030 847 l 1030 745 l 916 745 l 916 0 l 797 0 l 797 468 l 240 468 l 240 0 l 121 0 m 240 571 l 797 571 l 797 745 l 240 745 l 240 571 z "},"I":{"ha":378,"x_min":129,"x_max":249,"o":"m 129 0 l 129 1011 l 249 1011 l 249 0 l 129 0 z "},"Ĳ":{"ha":1101,"x_min":129,"x_max":1091,"o":"m 129 0 l 129 1011 l 249 1011 l 249 0 l 129 0 m 406 -79 l 442 15 q 622 -26 546 -31 q 741 41 699 -22 q 783 232 783 104 l 783 913 l 492 913 l 492 1011 l 1091 1011 l 1091 913 l 902 913 l 902 233 q 860 18 902 100 q 747 -101 818 -65 q 587 -130 676 -137 q 406 -79 499 -124 z "},"Í":{"ha":378,"x_min":129,"x_max":437,"o":"m 129 0 l 129 1011 l 249 1011 l 249 0 l 129 0 m 133 1113 l 290 1335 l 437 1335 l 223 1113 l 133 1113 z "},"Î":{"ha":378,"x_min":-24,"x_max":402,"o":"m 129 0 l 129 1011 l 249 1011 l 249 0 l 129 0 m -24 1111 l 134 1333 l 243 1333 l 402 1111 l 310 1111 l 187 1258 l 63 1111 l -24 1111 z "},"Ȉ":{"ha":378,"x_min":-133,"x_max":327,"o":"m 129 0 l 129 1011 l 249 1011 l 249 0 l 129 0 m 51 1117 l -133 1339 l -11 1339 l 142 1117 l 51 1117 m 238 1117 l 54 1339 l 176 1339 l 327 1117 l 238 1117 z "},"Ï":{"ha":378,"x_min":6,"x_max":372,"o":"m 129 0 l 129 1011 l 249 1011 l 249 0 l 129 0 m 251 1138 l 251 1258 l 372 1258 l 372 1138 l 251 1138 m 6 1138 l 6 1258 l 127 1258 l 127 1138 l 6 1138 z "},"İ":{"ha":378,"x_min":128,"x_max":250,"o":"m 129 0 l 129 1011 l 249 1011 l 249 0 l 129 0 m 128 1158 l 128 1283 l 250 1283 l 250 1158 l 128 1158 z "},"Ì":{"ha":378,"x_min":-66,"x_max":254,"o":"m 129 0 l 129 1011 l 249 1011 l 249 0 l 129 0 m 165 1117 l -66 1339 l 83 1339 l 254 1117 l 165 1117 z "},"Ȋ":{"ha":378,"x_min":-10,"x_max":382,"o":"m 129 0 l 129 1011 l 249 1011 l 249 0 l 129 0 m -10 1130 q 48 1286 -3 1242 q 188 1331 99 1331 q 325 1285 274 1331 q 382 1130 375 1238 l 303 1130 q 265 1222 293 1194 q 183 1250 236 1250 q 103 1222 130 1250 q 69 1130 77 1194 l -10 1130 z "},"Ī":{"ha":378,"x_min":-10,"x_max":388,"o":"m 129 0 l 129 1011 l 249 1011 l 249 0 l 129 0 m -10 1141 l -10 1234 l 388 1234 l 388 1141 l -10 1141 z "},"Į":{"ha":378,"x_min":10,"x_max":284,"o":"m 129 0 l 129 1011 l 249 1011 l 249 0 l 129 0 m 161 -271 q 76 -254 113 -271 q 22 -206 40 -237 q 10 -156 10 -184 q 24 -102 10 -126 q 56 -62 39 -79 q 104 -23 77 -41 q 159 8 131 -5 l 249 0 q 176 -46 213 -22 q 118 -105 140 -71 q 108 -138 108 -122 q 129 -180 108 -165 q 177 -195 151 -195 q 235 -189 210 -195 q 284 -174 260 -183 l 284 -251 q 227 -266 260 -260 q 161 -271 194 -271 z "},"Ĩ":{"ha":378,"x_min":-35,"x_max":413,"o":"m 129 0 l 129 1011 l 249 1011 l 249 0 l 129 0 m -35 1134 q 5 1237 -29 1194 q 103 1280 39 1280 q 171 1266 143 1280 q 229 1240 199 1251 q 270 1233 251 1233 q 313 1251 298 1233 q 331 1295 327 1269 l 413 1295 q 374 1191 406 1236 q 277 1146 342 1146 q 218 1158 244 1146 q 167 1181 192 1169 q 108 1193 142 1193 q 45 1134 52 1193 l -35 1134 z "},"J":{"ha":723,"x_min":28,"x_max":713,"o":"m 28 -79 l 65 15 q 244 -26 168 -31 q 363 41 321 -22 q 405 232 405 104 l 405 913 l 114 913 l 114 1011 l 713 1011 l 713 913 l 524 913 l 524 233 q 482 18 524 100 q 369 -101 440 -65 q 209 -130 298 -137 q 28 -79 121 -124 z "},"Ĵ":{"ha":723,"x_min":28,"x_max":713,"o":"m 28 -79 l 65 15 q 244 -26 168 -31 q 363 41 321 -22 q 405 232 405 104 l 405 913 l 114 913 l 114 1011 l 713 1011 l 713 913 l 524 913 l 524 233 q 482 18 524 100 q 369 -101 440 -65 q 209 -130 298 -137 q 28 -79 121 -124 m 210 1111 l 369 1333 l 478 1333 l 637 1111 l 545 1111 l 422 1258 l 298 1111 l 210 1111 z "},"K":{"ha":865,"x_min":121,"x_max":863,"o":"m 121 0 l 121 1011 l 240 1011 l 240 553 l 688 1011 l 835 1011 l 369 531 l 863 0 l 711 0 l 240 503 l 240 0 l 121 0 z "},"Ķ":{"ha":865,"x_min":121,"x_max":863,"o":"m 121 0 l 121 1011 l 240 1011 l 240 553 l 688 1011 l 835 1011 l 369 531 l 863 0 l 711 0 l 240 503 l 240 0 l 121 0 m 290 -434 l 364 -112 l 494 -112 l 381 -434 l 290 -434 z "},"L":{"ha":742,"x_min":121,"x_max":726,"o":"m 121 0 l 121 1011 l 240 1011 l 240 103 l 726 103 l 726 0 l 121 0 z "},"Ĺ":{"ha":742,"x_min":121,"x_max":726,"o":"m 121 0 l 121 1011 l 240 1011 l 240 103 l 726 103 l 726 0 l 121 0 m 122 1113 l 278 1335 l 426 1335 l 212 1113 l 122 1113 z "},"Ľ":{"ha":742,"x_min":121,"x_max":726,"o":"m 121 0 l 121 1011 l 240 1011 l 240 103 l 726 103 l 726 0 l 121 0 m 462 726 l 528 1011 l 647 1011 l 547 726 l 462 726 z "},"Ļ":{"ha":742,"x_min":121,"x_max":726,"o":"m 121 0 l 121 1011 l 240 1011 l 240 103 l 726 103 l 726 0 l 121 0 m 311 -434 l 385 -112 l 515 -112 l 402 -434 l 311 -434 z "},"Ŀ":{"ha":742,"x_min":121,"x_max":726,"o":"m 121 0 l 121 1011 l 240 1011 l 240 103 l 726 103 l 726 0 l 121 0 m 470 469 l 470 615 l 621 615 l 621 469 l 470 469 z "},"Ł":{"ha":778,"x_min":10,"x_max":745,"o":"m 140 0 l 140 420 l 10 340 l 10 444 l 140 524 l 140 1011 l 260 1011 l 260 599 l 458 722 l 458 618 l 260 494 l 260 103 l 745 103 l 745 0 l 140 0 z "},"M":{"ha":1350,"x_min":121,"x_max":1229,"o":"m 121 0 l 121 1011 l 286 1011 l 616 365 l 676 224 l 735 367 l 1067 1011 l 1229 1011 l 1229 0 l 1113 0 l 1113 869 l 1065 761 l 718 76 l 631 76 l 281 769 l 239 881 l 239 0 l 121 0 z "},"N":{"ha":1090,"x_min":121,"x_max":969,"o":"m 121 0 l 121 1011 l 264 1011 l 797 238 l 851 149 l 851 1011 l 969 1011 l 969 0 l 825 0 l 290 773 l 240 859 l 240 0 l 121 0 z "},"Ń":{"ha":1090,"x_min":121,"x_max":969,"o":"m 121 0 l 121 1011 l 264 1011 l 797 238 l 851 149 l 851 1011 l 969 1011 l 969 0 l 825 0 l 290 773 l 240 859 l 240 0 l 121 0 m 496 1113 l 653 1335 l 800 1335 l 586 1113 l 496 1113 z "},"Ň":{"ha":1090,"x_min":121,"x_max":969,"o":"m 121 0 l 121 1011 l 264 1011 l 797 238 l 851 149 l 851 1011 l 969 1011 l 969 0 l 825 0 l 290 773 l 240 859 l 240 0 l 121 0 m 498 1111 l 332 1335 l 434 1335 l 548 1186 l 665 1335 l 772 1335 l 606 1111 l 498 1111 z "},"Ņ":{"ha":1090,"x_min":121,"x_max":969,"o":"m 121 0 l 121 1011 l 264 1011 l 797 238 l 851 149 l 851 1011 l 969 1011 l 969 0 l 825 0 l 290 773 l 240 859 l 240 0 l 121 0 m 415 -434 l 489 -112 l 619 -112 l 506 -434 l 415 -434 z "},"Ñ":{"ha":1090,"x_min":121,"x_max":969,"o":"m 121 0 l 121 1011 l 264 1011 l 797 238 l 851 149 l 851 1011 l 969 1011 l 969 0 l 825 0 l 290 773 l 240 859 l 240 0 l 121 0 m 328 1134 q 368 1237 334 1194 q 467 1280 402 1280 q 534 1266 506 1280 q 592 1240 563 1251 q 633 1233 614 1233 q 676 1251 661 1233 q 694 1295 690 1269 l 776 1295 q 737 1191 769 1236 q 640 1146 705 1146 q 581 1158 607 1146 q 530 1181 556 1169 q 472 1193 505 1193 q 408 1134 415 1193 l 328 1134 z "},"Ŋ":{"ha":1094,"x_min":121,"x_max":969,"o":"m 748 -298 q 663 -289 701 -298 l 663 -190 q 692 -194 679 -192 q 721 -197 706 -197 q 825 -140 797 -197 q 855 0 852 -84 l 825 0 l 290 773 l 240 859 l 240 0 l 121 0 l 121 1011 l 264 1011 l 797 238 l 851 149 l 851 1011 l 969 1011 l 969 0 q 936 -172 969 -92 q 831 -283 903 -251 q 748 -298 796 -298 z "},"O":{"ha":1153,"x_min":78,"x_max":1075,"o":"m 576 -17 q 360 25 453 -17 q 204 142 267 68 q 109 310 141 216 q 78 506 78 403 q 109 702 78 608 q 204 870 141 797 q 360 987 267 944 q 576 1030 453 1030 q 793 987 700 1030 q 949 870 886 944 q 1043 702 1012 797 q 1075 506 1075 608 q 1043 310 1075 403 q 949 142 1012 216 q 793 25 886 68 q 576 -17 700 -17 m 576 88 q 758 135 673 88 q 895 275 842 182 q 947 506 947 368 q 895 738 947 645 q 758 877 842 831 q 576 924 673 924 q 395 877 480 924 q 258 738 310 831 q 206 506 206 645 q 258 275 206 368 q 395 135 310 182 q 576 88 480 88 z "},"Ó":{"ha":1153,"x_min":78,"x_max":1075,"o":"m 576 -17 q 360 25 453 -17 q 204 142 267 68 q 109 310 141 216 q 78 506 78 403 q 109 702 78 608 q 204 870 141 797 q 360 987 267 944 q 576 1030 453 1030 q 793 987 700 1030 q 949 870 886 944 q 1043 702 1012 797 q 1075 506 1075 608 q 1043 310 1075 403 q 949 142 1012 216 q 793 25 886 68 q 576 -17 700 -17 m 576 88 q 758 135 673 88 q 895 275 842 182 q 947 506 947 368 q 895 738 947 645 q 758 877 842 831 q 576 924 673 924 q 395 877 480 924 q 258 738 310 831 q 206 506 206 645 q 258 275 206 368 q 395 135 310 182 q 576 88 480 88 m 520 1131 l 677 1353 l 824 1353 l 610 1131 l 520 1131 z "},"Ô":{"ha":1153,"x_min":78,"x_max":1075,"o":"m 576 -17 q 360 25 453 -17 q 204 142 267 68 q 109 310 141 216 q 78 506 78 403 q 109 702 78 608 q 204 870 141 797 q 360 987 267 944 q 576 1030 453 1030 q 793 987 700 1030 q 949 870 886 944 q 1043 702 1012 797 q 1075 506 1075 608 q 1043 310 1075 403 q 949 142 1012 216 q 793 25 886 68 q 576 -17 700 -17 m 576 88 q 758 135 673 88 q 895 275 842 182 q 947 506 947 368 q 895 738 947 645 q 758 877 842 831 q 576 924 673 924 q 395 877 480 924 q 258 738 310 831 q 206 506 206 645 q 258 275 206 368 q 395 135 310 182 q 576 88 480 88 m 363 1130 l 522 1352 l 631 1352 l 790 1130 l 698 1130 l 574 1277 l 451 1130 l 363 1130 z "},"Ȍ":{"ha":1153,"x_min":78,"x_max":1075,"o":"m 576 -17 q 360 25 453 -17 q 204 142 267 68 q 109 310 141 216 q 78 506 78 403 q 109 702 78 608 q 204 870 141 797 q 360 987 267 944 q 576 1030 453 1030 q 793 987 700 1030 q 949 870 886 944 q 1043 702 1012 797 q 1075 506 1075 608 q 1043 310 1075 403 q 949 142 1012 216 q 793 25 886 68 q 576 -17 700 -17 m 576 88 q 758 135 673 88 q 895 275 842 182 q 947 506 947 368 q 895 738 947 645 q 758 877 842 831 q 576 924 673 924 q 395 877 480 924 q 258 738 310 831 q 206 506 206 645 q 258 275 206 368 q 395 135 310 182 q 576 88 480 88 m 438 1135 l 254 1358 l 376 1358 l 529 1135 l 438 1135 m 625 1135 l 442 1358 l 564 1358 l 715 1135 l 625 1135 z "},"Ö":{"ha":1153,"x_min":78,"x_max":1075,"o":"m 576 -17 q 360 25 453 -17 q 204 142 267 68 q 109 310 141 216 q 78 506 78 403 q 109 702 78 608 q 204 870 141 797 q 360 987 267 944 q 576 1030 453 1030 q 793 987 700 1030 q 949 870 886 944 q 1043 702 1012 797 q 1075 506 1075 608 q 1043 310 1075 403 q 949 142 1012 216 q 793 25 886 68 q 576 -17 700 -17 m 576 88 q 758 135 673 88 q 895 275 842 182 q 947 506 947 368 q 895 738 947 645 q 758 877 842 831 q 576 924 673 924 q 395 877 480 924 q 258 738 310 831 q 206 506 206 645 q 258 275 206 368 q 395 135 310 182 q 576 88 480 88 m 638 1156 l 638 1276 l 760 1276 l 760 1156 l 638 1156 m 393 1156 l 393 1276 l 515 1276 l 515 1156 l 393 1156 z "},"Ò":{"ha":1153,"x_min":78,"x_max":1075,"o":"m 576 -17 q 360 25 453 -17 q 204 142 267 68 q 109 310 141 216 q 78 506 78 403 q 109 702 78 608 q 204 870 141 797 q 360 987 267 944 q 576 1030 453 1030 q 793 987 700 1030 q 949 870 886 944 q 1043 702 1012 797 q 1075 506 1075 608 q 1043 310 1075 403 q 949 142 1012 216 q 793 25 886 68 q 576 -17 700 -17 m 576 88 q 758 135 673 88 q 895 275 842 182 q 947 506 947 368 q 895 738 947 645 q 758 877 842 831 q 576 924 673 924 q 395 877 480 924 q 258 738 310 831 q 206 506 206 645 q 258 275 206 368 q 395 135 310 182 q 576 88 480 88 m 552 1135 l 322 1358 l 470 1358 l 642 1135 l 552 1135 z "},"Ő":{"ha":1153,"x_min":78,"x_max":1075,"o":"m 576 -17 q 360 25 453 -17 q 204 142 267 68 q 109 310 141 216 q 78 506 78 403 q 109 702 78 608 q 204 870 141 797 q 360 987 267 944 q 576 1030 453 1030 q 793 987 700 1030 q 949 870 886 944 q 1043 702 1012 797 q 1075 506 1075 608 q 1043 310 1075 403 q 949 142 1012 216 q 793 25 886 68 q 576 -17 700 -17 m 576 88 q 758 135 673 88 q 895 275 842 182 q 947 506 947 368 q 895 738 947 645 q 758 877 842 831 q 576 924 673 924 q 395 877 480 924 q 258 738 310 831 q 206 506 206 645 q 258 275 206 368 q 395 135 310 182 q 576 88 480 88 m 602 1133 l 755 1350 l 877 1350 l 685 1133 l 602 1133 m 417 1133 l 567 1350 l 690 1350 l 499 1133 l 417 1133 z "},"Ȏ":{"ha":1153,"x_min":78,"x_max":1075,"o":"m 576 -17 q 360 25 453 -17 q 204 142 267 68 q 109 310 141 216 q 78 506 78 403 q 109 702 78 608 q 204 870 141 797 q 360 987 267 944 q 576 1030 453 1030 q 793 987 700 1030 q 949 870 886 944 q 1043 702 1012 797 q 1075 506 1075 608 q 1043 310 1075 403 q 949 142 1012 216 q 793 25 886 68 q 576 -17 700 -17 m 576 88 q 758 135 673 88 q 895 275 842 182 q 947 506 947 368 q 895 738 947 645 q 758 877 842 831 q 576 924 673 924 q 395 877 480 924 q 258 738 310 831 q 206 506 206 645 q 258 275 206 368 q 395 135 310 182 q 576 88 480 88 m 378 1149 q 435 1305 385 1260 q 575 1350 486 1350 q 712 1303 662 1350 q 769 1149 763 1257 l 691 1149 q 652 1241 681 1213 q 570 1269 624 1269 q 491 1241 517 1269 q 457 1149 465 1213 l 378 1149 z "},"Ō":{"ha":1153,"x_min":78,"x_max":1075,"o":"m 576 -17 q 360 25 453 -17 q 204 142 267 68 q 109 310 141 216 q 78 506 78 403 q 109 702 78 608 q 204 870 141 797 q 360 987 267 944 q 576 1030 453 1030 q 793 987 700 1030 q 949 870 886 944 q 1043 702 1012 797 q 1075 506 1075 608 q 1043 310 1075 403 q 949 142 1012 216 q 793 25 886 68 q 576 -17 700 -17 m 576 88 q 758 135 673 88 q 895 275 842 182 q 947 506 947 368 q 895 738 947 645 q 758 877 842 831 q 576 924 673 924 q 395 877 480 924 q 258 738 310 831 q 206 506 206 645 q 258 275 206 368 q 395 135 310 182 q 576 88 480 88 m 378 1160 l 378 1253 l 775 1253 l 775 1160 l 378 1160 z "},"Ø":{"ha":1155,"x_min":78,"x_max":1075,"o":"m 362 -115 l 278 -84 l 331 40 q 191 158 247 85 q 106 319 135 230 q 78 506 78 409 q 109 702 78 608 q 204 870 141 797 q 360 987 267 944 q 576 1030 453 1030 q 738 1007 663 1030 l 790 1128 l 876 1098 l 823 972 q 963 855 906 927 q 1047 692 1019 782 q 1075 506 1075 603 q 1043 310 1075 403 q 949 142 1012 216 q 793 25 886 68 q 576 -17 700 -17 q 413 6 489 -17 l 362 -115 m 206 506 q 253 286 206 376 q 375 147 301 196 l 695 906 q 576 924 638 924 q 395 877 480 924 q 258 738 310 831 q 206 506 206 645 m 576 88 q 758 135 673 88 q 895 275 842 182 q 947 506 947 368 q 900 727 947 637 q 778 865 853 817 l 456 108 q 576 88 514 88 z "},"Õ":{"ha":1153,"x_min":78,"x_max":1075,"o":"m 576 -17 q 360 25 453 -17 q 204 142 267 68 q 109 310 141 216 q 78 506 78 403 q 109 702 78 608 q 204 870 141 797 q 360 987 267 944 q 576 1030 453 1030 q 793 987 700 1030 q 949 870 886 944 q 1043 702 1012 797 q 1075 506 1075 608 q 1043 310 1075 403 q 949 142 1012 216 q 793 25 886 68 q 576 -17 700 -17 m 576 88 q 758 135 673 88 q 895 275 842 182 q 947 506 947 368 q 895 738 947 645 q 758 877 842 831 q 576 924 673 924 q 395 877 480 924 q 258 738 310 831 q 206 506 206 645 q 258 275 206 368 q 395 135 310 182 q 576 88 480 88 m 353 1153 q 392 1256 358 1213 q 491 1299 426 1299 q 559 1284 531 1299 q 617 1259 587 1270 q 658 1251 638 1251 q 700 1269 685 1251 q 718 1314 715 1288 l 800 1314 q 761 1210 793 1255 q 665 1165 729 1165 q 606 1176 631 1165 q 555 1200 580 1188 q 496 1212 529 1212 q 433 1153 440 1212 l 353 1153 z "},"Œ":{"ha":1458,"x_min":79,"x_max":1378,"o":"m 576 -16 q 300 51 410 -16 q 134 235 190 117 q 79 506 79 353 q 142 790 79 673 q 317 968 204 907 q 581 1030 430 1030 q 703 1010 649 1030 q 799 959 757 990 l 799 1011 l 1357 1011 l 1357 908 l 919 908 l 919 569 l 1331 569 l 1331 467 l 919 467 l 919 103 l 1378 103 l 1378 0 l 799 0 l 799 73 q 703 9 757 35 q 576 -16 649 -16 m 574 87 q 705 115 651 87 q 799 184 760 143 l 799 847 q 705 905 758 883 q 576 927 651 927 q 369 873 451 927 q 247 723 287 819 q 207 503 207 628 q 303 199 207 311 q 574 87 400 87 z "},"P":{"ha":860,"x_min":121,"x_max":813,"o":"m 121 0 l 121 1011 l 391 1011 q 715 937 616 1011 q 813 708 813 863 q 408 408 813 408 l 240 408 l 240 0 l 121 0 m 240 511 l 422 511 q 685 707 685 511 q 622 859 685 810 q 408 908 559 908 l 240 908 l 240 511 z "},"Þ":{"ha":885,"x_min":141,"x_max":833,"o":"m 141 0 l 141 1011 l 260 1011 l 260 911 l 378 911 q 552 898 470 911 q 698 852 635 885 q 797 760 761 819 q 833 608 833 701 q 797 469 833 524 q 707 379 760 413 q 415 308 593 308 l 260 308 l 260 0 l 141 0 m 260 411 l 442 411 q 592 437 528 411 q 686 519 656 463 q 706 607 706 555 q 666 734 706 690 q 559 793 626 777 q 408 808 492 808 l 260 808 l 260 411 z "},"Q":{"ha":1144,"x_min":78,"x_max":1067,"o":"m 853 -293 q 738 -163 792 -232 q 644 -9 683 -94 q 571 -15 612 -15 q 303 51 414 -15 q 135 235 193 117 q 78 511 78 353 q 138 783 78 667 q 310 965 199 900 q 576 1030 422 1030 q 842 965 732 1030 q 1009 783 951 900 q 1067 511 1067 667 q 981 195 1067 323 q 758 14 895 68 q 836 -109 791 -53 q 931 -211 881 -164 l 853 -293 m 572 85 q 776 141 695 85 q 896 292 856 196 q 936 511 936 388 q 896 727 936 633 q 775 873 856 820 q 572 926 694 926 q 369 873 451 926 q 244 725 287 819 q 202 511 202 631 q 244 294 202 391 q 369 142 287 198 q 572 85 451 85 z "},"R":{"ha":917,"x_min":121,"x_max":872,"o":"m 121 0 l 121 1011 l 368 1011 q 535 1002 456 1011 q 677 966 615 993 q 775 886 739 939 q 811 746 811 833 q 781 624 811 674 q 702 543 751 574 q 596 497 653 512 q 672 449 643 481 q 721 374 701 417 q 759 285 740 332 l 872 0 l 742 0 l 635 291 q 595 378 617 342 q 534 433 573 414 q 428 453 496 453 l 240 453 l 240 0 l 121 0 m 240 555 l 425 555 q 553 571 494 555 q 648 627 612 588 q 685 735 685 666 q 651 843 685 806 q 560 894 617 881 q 433 908 503 908 l 240 908 l 240 555 z "},"Ŕ":{"ha":917,"x_min":121,"x_max":872,"o":"m 121 0 l 121 1011 l 368 1011 q 535 1002 456 1011 q 677 966 615 993 q 775 886 739 939 q 811 746 811 833 q 781 624 811 674 q 702 543 751 574 q 596 497 653 512 q 672 449 643 481 q 721 374 701 417 q 759 285 740 332 l 872 0 l 742 0 l 635 291 q 595 378 617 342 q 534 433 573 414 q 428 453 496 453 l 240 453 l 240 0 l 121 0 m 240 555 l 425 555 q 553 571 494 555 q 648 627 612 588 q 685 735 685 666 q 651 843 685 806 q 560 894 617 881 q 433 908 503 908 l 240 908 l 240 555 m 401 1113 l 558 1335 l 706 1335 l 492 1113 l 401 1113 z "},"ŕ":{"ha":917,"x_min":121,"x_max":872,"o":"m 121 0 l 121 1011 l 368 1011 q 535 1002 456 1011 q 677 966 615 993 q 775 886 739 939 q 811 746 811 833 q 781 624 811 674 q 702 543 751 574 q 596 497 653 512 q 672 449 643 481 q 721 374 701 417 q 759 285 740 332 l 872 0 l 742 0 l 635 291 q 595 378 617 342 q 534 433 573 414 q 428 453 496 453 l 240 453 l 240 0 l 121 0 m 240 555 l 425 555 q 553 571 494 555 q 648 627 612 588 q 685 735 685 666 q 651 843 685 806 q 560 894 617 881 q 433 908 503 908 l 240 908 l 240 555 m 401 1113 l 558 1335 l 706 1335 l 492 1113 l 401 1113 z "},"Ř":{"ha":917,"x_min":121,"x_max":872,"o":"m 121 0 l 121 1011 l 368 1011 q 535 1002 456 1011 q 677 966 615 993 q 775 886 739 939 q 811 746 811 833 q 781 624 811 674 q 702 543 751 574 q 596 497 653 512 q 672 449 643 481 q 721 374 701 417 q 759 285 740 332 l 872 0 l 742 0 l 635 291 q 595 378 617 342 q 534 433 573 414 q 428 453 496 453 l 240 453 l 240 0 l 121 0 m 240 555 l 425 555 q 553 571 494 555 q 648 627 612 588 q 685 735 685 666 q 651 843 685 806 q 560 894 617 881 q 433 908 503 908 l 240 908 l 240 555 m 403 1111 l 238 1335 l 340 1335 l 453 1186 l 570 1335 l 677 1335 l 512 1111 l 403 1111 z "},"Ŗ":{"ha":917,"x_min":121,"x_max":872,"o":"m 121 0 l 121 1011 l 368 1011 q 535 1002 456 1011 q 677 966 615 993 q 775 886 739 939 q 811 746 811 833 q 781 624 811 674 q 702 543 751 574 q 596 497 653 512 q 672 449 643 481 q 721 374 701 417 q 759 285 740 332 l 872 0 l 742 0 l 635 291 q 595 378 617 342 q 534 433 573 414 q 428 453 496 453 l 240 453 l 240 0 l 121 0 m 240 555 l 425 555 q 553 571 494 555 q 648 627 612 588 q 685 735 685 666 q 651 843 685 806 q 560 894 617 881 q 433 908 503 908 l 240 908 l 240 555 m 320 -434 l 394 -112 l 524 -112 l 411 -434 l 320 -434 z "},"Ȑ":{"ha":917,"x_min":121,"x_max":872,"o":"m 121 0 l 121 1011 l 368 1011 q 535 1002 456 1011 q 677 966 615 993 q 775 886 739 939 q 811 746 811 833 q 781 624 811 674 q 702 543 751 574 q 596 497 653 512 q 672 449 643 481 q 721 374 701 417 q 759 285 740 332 l 872 0 l 742 0 l 635 291 q 595 378 617 342 q 534 433 573 414 q 428 453 496 453 l 240 453 l 240 0 l 121 0 m 240 555 l 425 555 q 553 571 494 555 q 648 627 612 588 q 685 735 685 666 q 651 843 685 806 q 560 894 617 881 q 433 908 503 908 l 240 908 l 240 555 m 319 1117 l 135 1339 l 258 1339 l 410 1117 l 319 1117 m 506 1117 l 323 1339 l 445 1339 l 596 1117 l 506 1117 z "},"Ȓ":{"ha":917,"x_min":121,"x_max":872,"o":"m 121 0 l 121 1011 l 368 1011 q 535 1002 456 1011 q 677 966 615 993 q 775 886 739 939 q 811 746 811 833 q 781 624 811 674 q 702 543 751 574 q 596 497 653 512 q 672 449 643 481 q 721 374 701 417 q 759 285 740 332 l 872 0 l 742 0 l 635 291 q 595 378 617 342 q 534 433 573 414 q 428 453 496 453 l 240 453 l 240 0 l 121 0 m 240 555 l 425 555 q 553 571 494 555 q 648 627 612 588 q 685 735 685 666 q 651 843 685 806 q 560 894 617 881 q 433 908 503 908 l 240 908 l 240 555 m 259 1130 q 317 1286 266 1242 q 456 1331 367 1331 q 593 1285 543 1331 q 651 1130 644 1238 l 572 1130 q 533 1222 562 1194 q 451 1250 505 1250 q 372 1222 399 1250 q 338 1130 346 1194 l 259 1130 z "},"S":{"ha":853,"x_min":97,"x_max":788,"o":"m 461 -15 q 270 12 369 -15 q 101 85 172 40 l 121 201 q 224 140 167 165 q 341 100 281 114 q 451 85 400 85 q 609 138 558 85 q 660 278 660 190 q 652 327 660 304 q 616 372 643 350 q 536 417 590 394 q 393 466 483 440 q 210 543 274 500 q 121 643 145 587 q 98 770 97 699 q 143 908 99 850 q 264 998 187 967 q 442 1030 340 1030 q 593 1012 513 1030 q 753 944 673 994 l 717 846 q 590 905 659 883 q 456 926 520 926 q 225 778 231 926 q 240 694 223 731 q 310 628 257 658 q 469 567 363 598 q 669 486 600 530 q 763 390 738 442 q 788 274 788 338 q 753 129 788 195 q 647 24 719 63 q 461 -15 574 -15 z "},"Ś":{"ha":853,"x_min":97,"x_max":788,"o":"m 461 -15 q 270 12 369 -15 q 101 85 172 40 l 121 201 q 224 140 167 165 q 341 100 281 114 q 451 85 400 85 q 609 138 558 85 q 660 278 660 190 q 652 327 660 304 q 616 372 643 350 q 536 417 590 394 q 393 466 483 440 q 210 543 274 500 q 121 643 145 587 q 98 770 97 699 q 143 908 99 850 q 264 998 187 967 q 442 1030 340 1030 q 593 1012 513 1030 q 753 944 673 994 l 717 846 q 590 905 659 883 q 456 926 520 926 q 225 778 231 926 q 240 694 223 731 q 310 628 257 658 q 469 567 363 598 q 669 486 600 530 q 763 390 738 442 q 788 274 788 338 q 753 129 788 195 q 647 24 719 63 q 461 -15 574 -15 m 388 1113 l 545 1335 l 692 1335 l 478 1113 l 388 1113 z "},"Š":{"ha":853,"x_min":97,"x_max":788,"o":"m 461 -15 q 270 12 369 -15 q 101 85 172 40 l 121 201 q 224 140 167 165 q 341 100 281 114 q 451 85 400 85 q 609 138 558 85 q 660 278 660 190 q 652 327 660 304 q 616 372 643 350 q 536 417 590 394 q 393 466 483 440 q 210 543 274 500 q 121 643 145 587 q 98 770 97 699 q 143 908 99 850 q 264 998 187 967 q 442 1030 340 1030 q 593 1012 513 1030 q 753 944 673 994 l 717 846 q 590 905 659 883 q 456 926 520 926 q 225 778 231 926 q 240 694 223 731 q 310 628 257 658 q 469 567 363 598 q 669 486 600 530 q 763 390 738 442 q 788 274 788 338 q 753 129 788 195 q 647 24 719 63 q 461 -15 574 -15 m 390 1111 l 224 1335 l 326 1335 l 440 1186 l 557 1335 l 664 1335 l 499 1111 l 390 1111 z "},"Ş":{"ha":853,"x_min":97,"x_max":788,"o":"m 461 -15 q 270 12 369 -15 q 101 85 172 40 l 121 201 q 224 140 167 165 q 341 100 281 114 q 451 85 400 85 q 609 138 558 85 q 660 278 660 190 q 652 327 660 304 q 616 372 643 350 q 536 417 590 394 q 393 466 483 440 q 210 543 274 500 q 121 643 145 587 q 98 770 97 699 q 143 908 99 850 q 264 998 187 967 q 442 1030 340 1030 q 593 1012 513 1030 q 753 944 673 994 l 717 846 q 590 905 659 883 q 456 926 520 926 q 225 778 231 926 q 240 694 223 731 q 310 628 257 658 q 469 567 363 598 q 669 486 600 530 q 763 390 738 442 q 788 274 788 338 q 753 129 788 195 q 647 24 719 63 q 461 -15 574 -15 m 409 -275 q 347 -270 378 -275 q 288 -260 316 -265 l 293 -201 q 345 -212 319 -207 q 398 -217 370 -217 q 455 -207 433 -217 q 477 -167 477 -197 q 455 -127 477 -137 q 401 -117 433 -117 q 376 -118 388 -117 q 353 -120 365 -119 l 376 12 l 444 12 l 431 -62 l 438 -62 q 534 -87 492 -65 q 576 -166 576 -110 q 552 -231 576 -208 q 490 -265 528 -255 q 409 -275 451 -275 z "},"Ș":{"ha":853,"x_min":97,"x_max":788,"o":"m 461 -15 q 270 12 369 -15 q 101 85 172 40 l 121 201 q 224 140 167 165 q 341 100 281 114 q 451 85 400 85 q 609 138 558 85 q 660 278 660 190 q 652 327 660 304 q 616 372 643 350 q 536 417 590 394 q 393 466 483 440 q 210 543 274 500 q 121 643 145 587 q 98 770 97 699 q 143 908 99 850 q 264 998 187 967 q 442 1030 340 1030 q 593 1012 513 1030 q 753 944 673 994 l 717 846 q 590 905 659 883 q 456 926 520 926 q 225 778 231 926 q 240 694 223 731 q 310 628 257 658 q 469 567 363 598 q 669 486 600 530 q 763 390 738 442 q 788 274 788 338 q 753 129 788 195 q 647 24 719 63 q 461 -15 574 -15 m 294 -434 l 369 -112 l 499 -112 l 385 -434 l 294 -434 z "},"ẞ":{"ha":1041,"x_min":138,"x_max":937,"o":"m 606 -18 q 335 73 444 -18 l 381 166 q 481 103 433 122 q 597 85 530 85 q 759 140 703 85 q 815 283 815 194 q 755 438 815 390 q 571 486 695 486 l 392 486 l 392 587 l 535 587 q 699 634 640 587 q 758 772 758 682 q 701 909 758 862 q 526 956 644 956 q 318 885 379 956 q 258 681 258 815 l 258 0 l 138 0 l 138 691 q 235 967 138 874 q 533 1060 331 1060 q 791 988 702 1060 q 880 788 880 915 q 840 644 880 707 q 729 551 800 581 q 881 460 825 528 q 937 276 937 392 q 850 61 937 140 q 606 -18 763 -18 z "},"T":{"ha":806,"x_min":17,"x_max":790,"o":"m 342 0 l 342 908 l 17 908 l 17 1011 l 790 1011 l 790 908 l 462 908 l 462 0 l 342 0 z "},"Ť":{"ha":806,"x_min":17,"x_max":790,"o":"m 342 0 l 342 908 l 17 908 l 17 1011 l 790 1011 l 790 908 l 462 908 l 462 0 l 342 0 m 348 1111 l 182 1335 l 284 1335 l 398 1186 l 515 1335 l 622 1335 l 456 1111 l 348 1111 z "},"Ț":{"ha":806,"x_min":17,"x_max":790,"o":"m 342 0 l 342 908 l 17 908 l 17 1011 l 790 1011 l 790 908 l 462 908 l 462 0 l 342 0 m 265 -434 l 339 -112 l 469 -112 l 356 -434 l 265 -434 z "},"U":{"ha":1023,"x_min":114,"x_max":909,"o":"m 520 -15 q 217 80 320 -15 q 114 376 114 176 l 114 1011 l 233 1011 l 233 379 q 519 85 233 85 q 720 162 650 85 q 790 374 790 239 l 790 1011 l 909 1011 l 909 383 q 809 90 908 195 q 520 -15 709 -15 z "},"Ú":{"ha":1023,"x_min":114,"x_max":909,"o":"m 520 -15 q 217 80 320 -15 q 114 376 114 176 l 114 1011 l 233 1011 l 233 379 q 519 85 233 85 q 720 162 650 85 q 790 374 790 239 l 790 1011 l 909 1011 l 909 383 q 809 90 908 195 q 520 -15 709 -15 m 457 1113 l 614 1335 l 761 1335 l 547 1113 l 457 1113 z "},"Ŭ":{"ha":1023,"x_min":114,"x_max":909,"o":"m 520 -15 q 217 80 320 -15 q 114 376 114 176 l 114 1011 l 233 1011 l 233 379 q 519 85 233 85 q 720 162 650 85 q 790 374 790 239 l 790 1011 l 909 1011 l 909 383 q 809 90 908 195 q 520 -15 709 -15 m 515 1130 q 375 1175 426 1130 q 317 1331 324 1220 l 397 1331 q 431 1239 404 1267 q 510 1211 457 1211 q 592 1239 563 1211 q 631 1331 620 1267 l 709 1331 q 652 1176 702 1223 q 515 1130 601 1130 z "},"Û":{"ha":1023,"x_min":114,"x_max":909,"o":"m 520 -15 q 217 80 320 -15 q 114 376 114 176 l 114 1011 l 233 1011 l 233 379 q 519 85 233 85 q 720 162 650 85 q 790 374 790 239 l 790 1011 l 909 1011 l 909 383 q 809 90 908 195 q 520 -15 709 -15 m 300 1111 l 458 1333 l 567 1333 l 726 1111 l 635 1111 l 511 1258 l 388 1111 l 300 1111 z "},"Ȕ":{"ha":1023,"x_min":114,"x_max":909,"o":"m 520 -15 q 217 80 320 -15 q 114 376 114 176 l 114 1011 l 233 1011 l 233 379 q 519 85 233 85 q 720 162 650 85 q 790 374 790 239 l 790 1011 l 909 1011 l 909 383 q 809 90 908 195 q 520 -15 709 -15 m 375 1117 l 191 1339 l 313 1339 l 466 1117 l 375 1117 m 562 1117 l 378 1339 l 501 1339 l 651 1117 l 562 1117 z "},"Ü":{"ha":1023,"x_min":114,"x_max":909,"o":"m 520 -15 q 217 80 320 -15 q 114 376 114 176 l 114 1011 l 233 1011 l 233 379 q 519 85 233 85 q 720 162 650 85 q 790 374 790 239 l 790 1011 l 909 1011 l 909 383 q 809 90 908 195 q 520 -15 709 -15 m 575 1138 l 575 1258 l 697 1258 l 697 1138 l 575 1138 m 330 1138 l 330 1258 l 451 1258 l 451 1138 l 330 1138 z "},"Ù":{"ha":1023,"x_min":114,"x_max":909,"o":"m 520 -15 q 217 80 320 -15 q 114 376 114 176 l 114 1011 l 233 1011 l 233 379 q 519 85 233 85 q 720 162 650 85 q 790 374 790 239 l 790 1011 l 909 1011 l 909 383 q 809 90 908 195 q 520 -15 709 -15 m 489 1117 l 258 1339 l 407 1339 l 578 1117 l 489 1117 z "},"Ű":{"ha":1023,"x_min":114,"x_max":909,"o":"m 520 -15 q 217 80 320 -15 q 114 376 114 176 l 114 1011 l 233 1011 l 233 379 q 519 85 233 85 q 720 162 650 85 q 790 374 790 239 l 790 1011 l 909 1011 l 909 383 q 809 90 908 195 q 520 -15 709 -15 m 539 1114 l 692 1331 l 814 1331 l 622 1114 l 539 1114 m 353 1114 l 504 1331 l 626 1331 l 435 1114 l 353 1114 z "},"Ȗ":{"ha":1023,"x_min":114,"x_max":909,"o":"m 520 -15 q 217 80 320 -15 q 114 376 114 176 l 114 1011 l 233 1011 l 233 379 q 519 85 233 85 q 720 162 650 85 q 790 374 790 239 l 790 1011 l 909 1011 l 909 383 q 809 90 908 195 q 520 -15 709 -15 m 315 1130 q 372 1286 322 1242 q 512 1331 423 1331 q 649 1285 599 1331 q 706 1130 699 1238 l 628 1130 q 589 1222 617 1194 q 507 1250 560 1250 q 428 1222 454 1250 q 394 1130 401 1194 l 315 1130 z "},"Ū":{"ha":1023,"x_min":114,"x_max":909,"o":"m 520 -15 q 217 80 320 -15 q 114 376 114 176 l 114 1011 l 233 1011 l 233 379 q 519 85 233 85 q 720 162 650 85 q 790 374 790 239 l 790 1011 l 909 1011 l 909 383 q 809 90 908 195 q 520 -15 709 -15 m 315 1141 l 315 1234 l 712 1234 l 712 1141 l 315 1141 z "},"Ų":{"ha":1023,"x_min":114,"x_max":909,"o":"m 520 -15 q 217 80 320 -15 q 114 376 114 176 l 114 1011 l 233 1011 l 233 379 q 519 85 233 85 q 720 162 650 85 q 790 374 790 239 l 790 1011 l 909 1011 l 909 383 q 809 90 908 195 q 520 -15 709 -15 m 525 -271 q 440 -254 476 -271 q 385 -206 403 -237 q 374 -156 374 -184 q 388 -102 374 -126 q 420 -62 403 -79 q 468 -23 441 -41 q 523 8 495 -5 l 613 0 q 540 -46 576 -22 q 482 -105 504 -71 q 472 -138 472 -122 q 493 -180 472 -165 q 541 -195 515 -195 q 599 -189 574 -195 q 648 -174 624 -183 l 648 -251 q 591 -266 624 -260 q 525 -271 558 -271 z "},"Ů":{"ha":1023,"x_min":114,"x_max":909,"o":"m 520 -15 q 217 80 320 -15 q 114 376 114 176 l 114 1011 l 233 1011 l 233 379 q 519 85 233 85 q 720 162 650 85 q 790 374 790 239 l 790 1011 l 909 1011 l 909 383 q 809 90 908 195 q 520 -15 709 -15 m 514 1097 q 410 1134 453 1097 q 367 1228 367 1171 q 413 1326 367 1291 q 513 1361 458 1361 q 618 1323 576 1361 q 659 1229 659 1284 q 638 1159 659 1189 q 583 1113 617 1129 q 514 1097 550 1097 m 513 1163 q 562 1182 541 1163 q 583 1229 583 1201 q 563 1277 583 1259 q 513 1296 542 1296 q 464 1277 484 1296 q 443 1229 443 1258 q 463 1181 443 1199 q 513 1163 482 1163 z "},"V":{"ha":928,"x_min":9,"x_max":919,"o":"m 403 1 l 9 1011 l 140 1011 l 435 226 l 467 128 l 500 225 l 792 1011 l 919 1011 l 533 1 l 403 1 z "},"W":{"ha":1455,"x_min":13,"x_max":1442,"o":"m 1001 0 l 728 866 l 454 1 l 306 1 l 13 1011 l 142 1011 l 357 242 l 383 131 l 418 242 l 669 1011 l 795 1011 l 1044 240 l 1076 132 l 1106 242 l 1317 1011 l 1442 1011 l 1149 0 l 1001 0 z "},"Ẃ":{"ha":1455,"x_min":13,"x_max":1442,"o":"m 1001 0 l 728 866 l 454 1 l 306 1 l 13 1011 l 142 1011 l 357 242 l 383 131 l 418 242 l 669 1011 l 795 1011 l 1044 240 l 1076 132 l 1106 242 l 1317 1011 l 1442 1011 l 1149 0 l 1001 0 m 672 1113 l 829 1335 l 976 1335 l 763 1113 l 672 1113 z "},"Ŵ":{"ha":1455,"x_min":13,"x_max":1442,"o":"m 1001 0 l 728 866 l 454 1 l 306 1 l 13 1011 l 142 1011 l 357 242 l 383 131 l 418 242 l 669 1011 l 795 1011 l 1044 240 l 1076 132 l 1106 242 l 1317 1011 l 1442 1011 l 1149 0 l 1001 0 m 515 1111 l 674 1333 l 783 1333 l 942 1111 l 850 1111 l 726 1258 l 603 1111 l 515 1111 z "},"Ẅ":{"ha":1455,"x_min":13,"x_max":1442,"o":"m 1001 0 l 728 866 l 454 1 l 306 1 l 13 1011 l 142 1011 l 357 242 l 383 131 l 418 242 l 669 1011 l 795 1011 l 1044 240 l 1076 132 l 1106 242 l 1317 1011 l 1442 1011 l 1149 0 l 1001 0 m 790 1138 l 790 1258 l 912 1258 l 912 1138 l 790 1138 m 545 1138 l 545 1258 l 667 1258 l 667 1138 l 545 1138 z "},"Ẁ":{"ha":1455,"x_min":13,"x_max":1442,"o":"m 1001 0 l 728 866 l 454 1 l 306 1 l 13 1011 l 142 1011 l 357 242 l 383 131 l 418 242 l 669 1011 l 795 1011 l 1044 240 l 1076 132 l 1106 242 l 1317 1011 l 1442 1011 l 1149 0 l 1001 0 m 704 1117 l 474 1339 l 622 1339 l 794 1117 l 704 1117 z "},"X":{"ha":906,"x_min":8,"x_max":892,"o":"m 8 0 l 381 515 l 35 1011 l 179 1011 l 460 593 l 749 1011 l 885 1011 l 531 515 l 892 0 l 753 0 l 450 433 l 149 0 l 8 0 z "},"Y":{"ha":872,"x_min":3,"x_max":869,"o":"m 373 0 l 373 404 l 3 1011 l 135 1011 l 435 505 l 737 1011 l 869 1011 l 492 406 l 492 0 l 373 0 z "},"Ý":{"ha":872,"x_min":3,"x_max":869,"o":"m 373 0 l 373 404 l 3 1011 l 135 1011 l 435 505 l 737 1011 l 869 1011 l 492 406 l 492 0 l 373 0 m 379 1113 l 536 1335 l 683 1335 l 469 1113 l 379 1113 z "},"Ŷ":{"ha":872,"x_min":3,"x_max":869,"o":"m 373 0 l 373 404 l 3 1011 l 135 1011 l 435 505 l 737 1011 l 869 1011 l 492 406 l 492 0 l 373 0 m 222 1111 l 381 1333 l 490 1333 l 649 1111 l 557 1111 l 433 1258 l 310 1111 l 222 1111 z "},"Ÿ":{"ha":872,"x_min":3,"x_max":869,"o":"m 373 0 l 373 404 l 3 1011 l 135 1011 l 435 505 l 737 1011 l 869 1011 l 492 406 l 492 0 l 373 0 m 497 1138 l 497 1258 l 619 1258 l 619 1138 l 497 1138 m 252 1138 l 252 1258 l 374 1258 l 374 1138 l 252 1138 z "},"Ỳ":{"ha":872,"x_min":3,"x_max":869,"o":"m 373 0 l 373 404 l 3 1011 l 135 1011 l 435 505 l 737 1011 l 869 1011 l 492 406 l 492 0 l 373 0 m 411 1117 l 181 1339 l 329 1339 l 501 1117 l 411 1117 z "},"Z":{"ha":849,"x_min":64,"x_max":801,"o":"m 64 0 l 64 64 l 640 908 l 86 908 l 86 1011 l 801 1011 l 801 950 l 222 103 l 796 103 l 796 0 l 64 0 z "},"Ź":{"ha":849,"x_min":64,"x_max":801,"o":"m 64 0 l 64 64 l 640 908 l 86 908 l 86 1011 l 801 1011 l 801 950 l 222 103 l 796 103 l 796 0 l 64 0 m 410 1113 l 567 1335 l 714 1335 l 500 1113 l 410 1113 z "},"Ž":{"ha":849,"x_min":64,"x_max":801,"o":"m 64 0 l 64 64 l 640 908 l 86 908 l 86 1011 l 801 1011 l 801 950 l 222 103 l 796 103 l 796 0 l 64 0 m 412 1111 l 246 1335 l 348 1335 l 462 1186 l 578 1335 l 685 1335 l 520 1111 l 412 1111 z "},"Ż":{"ha":849,"x_min":64,"x_max":801,"o":"m 64 0 l 64 64 l 640 908 l 86 908 l 86 1011 l 801 1011 l 801 950 l 222 103 l 796 103 l 796 0 l 64 0 m 405 1158 l 405 1283 l 527 1283 l 527 1158 l 405 1158 z "},"a":{"ha":837,"x_min":63,"x_max":797,"o":"m 351 -15 q 200 25 265 -15 q 99 136 135 65 q 63 304 63 208 q 113 526 63 431 q 252 675 163 622 q 463 728 342 728 q 601 711 533 728 q 710 668 669 695 l 710 199 q 734 125 710 153 q 797 97 758 97 l 774 -3 q 669 30 713 -3 q 613 115 624 63 q 506 20 577 56 q 351 -15 434 -15 m 369 81 q 489 111 438 81 q 568 195 540 142 q 597 315 597 248 l 597 606 q 538 623 575 617 q 460 630 500 630 q 314 590 376 630 q 216 478 251 550 q 181 311 181 407 q 232 144 181 208 q 369 81 284 81 z "},"á":{"ha":837,"x_min":63,"x_max":797,"o":"m 351 -15 q 200 25 265 -15 q 99 136 135 65 q 63 304 63 208 q 113 526 63 431 q 252 675 163 622 q 463 728 342 728 q 601 711 533 728 q 710 668 669 695 l 710 199 q 734 125 710 153 q 797 97 758 97 l 774 -3 q 669 30 713 -3 q 613 115 624 63 q 506 20 577 56 q 351 -15 434 -15 m 369 81 q 489 111 438 81 q 568 195 540 142 q 597 315 597 248 l 597 606 q 538 623 575 617 q 460 630 500 630 q 314 590 376 630 q 216 478 251 550 q 181 311 181 407 q 232 144 181 208 q 369 81 284 81 m 381 814 l 538 1036 l 685 1036 l 472 814 l 381 814 z "},"ă":{"ha":837,"x_min":63,"x_max":797,"o":"m 351 -15 q 200 25 265 -15 q 99 136 135 65 q 63 304 63 208 q 113 526 63 431 q 252 675 163 622 q 463 728 342 728 q 601 711 533 728 q 710 668 669 695 l 710 199 q 734 125 710 153 q 797 97 758 97 l 774 -3 q 669 30 713 -3 q 613 115 624 63 q 506 20 577 56 q 351 -15 434 -15 m 369 81 q 489 111 438 81 q 568 195 540 142 q 597 315 597 248 l 597 606 q 538 623 575 617 q 460 630 500 630 q 314 590 376 630 q 216 478 251 550 q 181 311 181 407 q 232 144 181 208 q 369 81 284 81 m 439 831 q 299 876 350 831 q 242 1033 249 922 l 321 1033 q 355 941 328 969 q 434 913 381 913 q 516 941 488 913 q 555 1033 544 969 l 633 1033 q 576 878 626 924 q 439 831 526 831 z "},"ǎ":{"ha":837,"x_min":63,"x_max":797,"o":"m 351 -15 q 200 25 265 -15 q 99 136 135 65 q 63 304 63 208 q 113 526 63 431 q 252 675 163 622 q 463 728 342 728 q 601 711 533 728 q 710 668 669 695 l 710 199 q 734 125 710 153 q 797 97 758 97 l 774 -3 q 669 30 713 -3 q 613 115 624 63 q 506 20 577 56 q 351 -15 434 -15 m 369 81 q 489 111 438 81 q 568 195 540 142 q 597 315 597 248 l 597 606 q 538 623 575 617 q 460 630 500 630 q 314 590 376 630 q 216 478 251 550 q 181 311 181 407 q 232 144 181 208 q 369 81 284 81 m 383 813 l 217 1037 l 319 1037 l 433 888 l 550 1037 l 657 1037 l 492 813 l 383 813 z "},"â":{"ha":837,"x_min":63,"x_max":797,"o":"m 351 -15 q 200 25 265 -15 q 99 136 135 65 q 63 304 63 208 q 113 526 63 431 q 252 675 163 622 q 463 728 342 728 q 601 711 533 728 q 710 668 669 695 l 710 199 q 734 125 710 153 q 797 97 758 97 l 774 -3 q 669 30 713 -3 q 613 115 624 63 q 506 20 577 56 q 351 -15 434 -15 m 369 81 q 489 111 438 81 q 568 195 540 142 q 597 315 597 248 l 597 606 q 538 623 575 617 q 460 630 500 630 q 314 590 376 630 q 216 478 251 550 q 181 311 181 407 q 232 144 181 208 q 369 81 284 81 m 224 813 l 383 1035 l 492 1035 l 651 813 l 559 813 l 435 960 l 312 813 l 224 813 z "},"ȁ":{"ha":837,"x_min":63,"x_max":797,"o":"m 351 -15 q 200 25 265 -15 q 99 136 135 65 q 63 304 63 208 q 113 526 63 431 q 252 675 163 622 q 463 728 342 728 q 601 711 533 728 q 710 668 669 695 l 710 199 q 734 125 710 153 q 797 97 758 97 l 774 -3 q 669 30 713 -3 q 613 115 624 63 q 506 20 577 56 q 351 -15 434 -15 m 369 81 q 489 111 438 81 q 568 195 540 142 q 597 315 597 248 l 597 606 q 538 623 575 617 q 460 630 500 630 q 314 590 376 630 q 216 478 251 550 q 181 311 181 407 q 232 144 181 208 q 369 81 284 81 m 299 818 l 115 1040 l 238 1040 l 390 818 l 299 818 m 486 818 l 303 1040 l 425 1040 l 576 818 l 486 818 z "},"ä":{"ha":837,"x_min":63,"x_max":797,"o":"m 351 -15 q 200 25 265 -15 q 99 136 135 65 q 63 304 63 208 q 113 526 63 431 q 252 675 163 622 q 463 728 342 728 q 601 711 533 728 q 710 668 669 695 l 710 199 q 734 125 710 153 q 797 97 758 97 l 774 -3 q 669 30 713 -3 q 613 115 624 63 q 506 20 577 56 q 351 -15 434 -15 m 369 81 q 489 111 438 81 q 568 195 540 142 q 597 315 597 248 l 597 606 q 538 623 575 617 q 460 630 500 630 q 314 590 376 630 q 216 478 251 550 q 181 311 181 407 q 232 144 181 208 q 369 81 284 81 m 499 839 l 499 959 l 621 959 l 621 839 l 499 839 m 254 839 l 254 959 l 376 959 l 376 839 l 254 839 z "},"à":{"ha":837,"x_min":63,"x_max":797,"o":"m 351 -15 q 200 25 265 -15 q 99 136 135 65 q 63 304 63 208 q 113 526 63 431 q 252 675 163 622 q 463 728 342 728 q 601 711 533 728 q 710 668 669 695 l 710 199 q 734 125 710 153 q 797 97 758 97 l 774 -3 q 669 30 713 -3 q 613 115 624 63 q 506 20 577 56 q 351 -15 434 -15 m 369 81 q 489 111 438 81 q 568 195 540 142 q 597 315 597 248 l 597 606 q 538 623 575 617 q 460 630 500 630 q 314 590 376 630 q 216 478 251 550 q 181 311 181 407 q 232 144 181 208 q 369 81 284 81 m 413 818 l 183 1040 l 331 1040 l 503 818 l 413 818 z "},"ȃ":{"ha":837,"x_min":63,"x_max":797,"o":"m 351 -15 q 200 25 265 -15 q 99 136 135 65 q 63 304 63 208 q 113 526 63 431 q 252 675 163 622 q 463 728 342 728 q 601 711 533 728 q 710 668 669 695 l 710 199 q 734 125 710 153 q 797 97 758 97 l 774 -3 q 669 30 713 -3 q 613 115 624 63 q 506 20 577 56 q 351 -15 434 -15 m 369 81 q 489 111 438 81 q 568 195 540 142 q 597 315 597 248 l 597 606 q 538 623 575 617 q 460 630 500 630 q 314 590 376 630 q 216 478 251 550 q 181 311 181 407 q 232 144 181 208 q 369 81 284 81 m 239 831 q 297 988 246 943 q 436 1033 347 1033 q 573 986 523 1033 q 631 831 624 940 l 552 831 q 513 923 542 895 q 431 951 485 951 q 352 923 378 951 q 318 831 326 895 l 239 831 z "},"ā":{"ha":837,"x_min":63,"x_max":797,"o":"m 351 -15 q 200 25 265 -15 q 99 136 135 65 q 63 304 63 208 q 113 526 63 431 q 252 675 163 622 q 463 728 342 728 q 601 711 533 728 q 710 668 669 695 l 710 199 q 734 125 710 153 q 797 97 758 97 l 774 -3 q 669 30 713 -3 q 613 115 624 63 q 506 20 577 56 q 351 -15 434 -15 m 369 81 q 489 111 438 81 q 568 195 540 142 q 597 315 597 248 l 597 606 q 538 623 575 617 q 460 630 500 630 q 314 590 376 630 q 216 478 251 550 q 181 311 181 407 q 232 144 181 208 q 369 81 284 81 m 239 842 l 239 935 l 636 935 l 636 842 l 239 842 z "},"ą":{"ha":837,"x_min":63,"x_max":812,"o":"m 351 -15 q 200 25 265 -15 q 99 136 135 65 q 63 304 63 208 q 113 526 63 431 q 252 675 163 622 q 463 728 342 728 q 601 711 533 728 q 710 668 669 695 l 710 199 q 734 125 710 153 q 797 97 758 97 l 774 -3 q 669 30 713 -3 q 613 115 624 63 q 506 20 577 56 q 351 -15 434 -15 m 369 81 q 489 111 438 81 q 568 195 540 142 q 597 315 597 248 l 597 606 q 538 623 575 617 q 460 630 500 630 q 314 590 376 630 q 216 478 251 550 q 181 311 181 407 q 232 144 181 208 q 369 81 284 81 m 689 -260 q 604 -243 640 -260 q 549 -194 567 -226 q 538 -145 538 -173 q 552 -91 538 -115 q 584 -51 567 -68 q 632 -12 605 -30 q 687 19 659 6 l 776 11 q 704 -35 740 -10 q 646 -94 668 -60 q 635 -127 635 -110 q 657 -169 635 -153 q 705 -184 678 -184 q 763 -178 738 -184 q 812 -162 788 -172 l 812 -240 q 755 -255 788 -249 q 689 -260 722 -260 z "},"å":{"ha":837,"x_min":63,"x_max":797,"o":"m 351 -15 q 200 25 265 -15 q 99 136 135 65 q 63 304 63 208 q 113 526 63 431 q 252 675 163 622 q 463 728 342 728 q 601 711 533 728 q 710 668 669 695 l 710 199 q 734 125 710 153 q 797 97 758 97 l 774 -3 q 669 30 713 -3 q 613 115 624 63 q 506 20 577 56 q 351 -15 434 -15 m 369 81 q 489 111 438 81 q 568 195 540 142 q 597 315 597 248 l 597 606 q 538 623 575 617 q 460 630 500 630 q 314 590 376 630 q 216 478 251 550 q 181 311 181 407 q 232 144 181 208 q 369 81 284 81 m 438 798 q 335 835 378 798 q 292 930 292 872 q 337 1027 292 992 q 438 1063 382 1063 q 542 1024 501 1063 q 583 931 583 985 q 562 860 583 890 q 508 814 541 831 q 438 798 474 798 m 437 864 q 486 883 465 864 q 507 931 507 902 q 487 979 507 960 q 437 997 467 997 q 388 978 408 997 q 367 931 367 959 q 387 882 367 901 q 437 864 406 864 z "},"ã":{"ha":837,"x_min":63,"x_max":797,"o":"m 351 -15 q 200 25 265 -15 q 99 136 135 65 q 63 304 63 208 q 113 526 63 431 q 252 675 163 622 q 463 728 342 728 q 601 711 533 728 q 710 668 669 695 l 710 199 q 734 125 710 153 q 797 97 758 97 l 774 -3 q 669 30 713 -3 q 613 115 624 63 q 506 20 577 56 q 351 -15 434 -15 m 369 81 q 489 111 438 81 q 568 195 540 142 q 597 315 597 248 l 597 606 q 538 623 575 617 q 460 630 500 630 q 314 590 376 630 q 216 478 251 550 q 181 311 181 407 q 232 144 181 208 q 369 81 284 81 m 214 835 q 253 939 219 896 q 352 981 288 981 q 420 967 392 981 q 478 942 448 953 q 519 934 499 934 q 561 952 547 934 q 579 997 576 970 l 661 997 q 622 892 654 938 q 526 847 590 847 q 467 859 492 847 q 416 883 441 871 q 357 894 390 894 q 294 835 301 894 l 214 835 z "},"æ":{"ha":1255,"x_min":56,"x_max":1178,"o":"m 306 -15 q 124 41 192 -15 q 56 196 56 97 q 98 328 56 281 q 210 394 140 374 q 365 417 281 413 q 535 420 450 420 l 535 436 q 499 576 535 522 q 375 630 462 630 q 247 606 297 630 q 165 530 197 583 l 103 594 q 382 728 174 728 q 528 683 469 728 q 609 560 588 638 q 668 645 628 607 q 759 705 707 683 q 869 728 811 728 q 1100 630 1021 728 q 1178 364 1178 531 l 1178 340 l 654 340 q 654 331 654 338 q 653 322 653 324 q 702 146 653 213 q 863 80 751 80 q 1002 116 943 80 q 1095 203 1061 151 l 1156 143 q 1040 27 1113 69 q 856 -15 967 -15 q 687 33 758 -15 q 592 160 616 82 q 489 37 557 90 q 306 -15 421 -15 m 655 421 l 1065 421 q 1012 571 1056 512 q 868 630 967 630 q 755 600 801 630 q 684 523 708 570 q 655 421 659 475 m 322 80 q 487 153 437 80 q 537 340 537 226 l 435 338 q 311 327 372 336 q 212 289 251 317 q 174 201 174 261 q 215 108 174 135 q 322 80 256 80 z "},"b":{"ha":840,"x_min":106,"x_max":778,"o":"m 425 -15 q 269 0 341 -15 q 153 32 197 16 q 106 49 108 49 l 106 1038 l 220 1059 l 220 591 q 351 693 281 660 q 489 726 422 726 q 632 685 566 726 q 738 566 698 644 q 778 378 778 489 q 735 175 778 264 q 614 35 693 86 q 425 -15 535 -15 m 427 81 q 560 123 508 81 q 635 233 611 165 q 660 382 660 302 q 607 567 660 506 q 476 628 553 628 q 348 590 415 628 q 220 476 280 551 l 220 108 q 252 101 223 108 q 327 87 281 94 q 427 81 374 81 z "},"c":{"ha":708,"x_min":63,"x_max":703,"o":"m 440 -16 q 257 25 343 -16 q 116 148 170 67 q 63 349 63 229 q 95 511 63 440 q 182 630 127 581 q 305 704 236 678 q 444 729 373 729 q 570 708 508 729 q 683 639 632 688 l 641 555 q 553 611 602 592 q 456 629 505 629 q 323 598 386 629 q 220 504 260 566 q 181 353 181 442 q 219 200 181 260 q 320 111 258 140 q 452 83 383 83 q 565 104 508 83 q 664 165 621 125 l 703 78 q 577 8 646 31 q 440 -16 508 -16 z "},"ć":{"ha":708,"x_min":63,"x_max":703,"o":"m 440 -16 q 257 25 343 -16 q 116 148 170 67 q 63 349 63 229 q 95 511 63 440 q 182 630 127 581 q 305 704 236 678 q 444 729 373 729 q 570 708 508 729 q 683 639 632 688 l 641 555 q 553 611 602 592 q 456 629 505 629 q 323 598 386 629 q 220 504 260 566 q 181 353 181 442 q 219 200 181 260 q 320 111 258 140 q 452 83 383 83 q 565 104 508 83 q 664 165 621 125 l 703 78 q 577 8 646 31 q 440 -16 508 -16 m 368 814 l 525 1036 l 672 1036 l 458 814 l 368 814 z "},"č":{"ha":708,"x_min":63,"x_max":703,"o":"m 440 -16 q 257 25 343 -16 q 116 148 170 67 q 63 349 63 229 q 95 511 63 440 q 182 630 127 581 q 305 704 236 678 q 444 729 373 729 q 570 708 508 729 q 683 639 632 688 l 641 555 q 553 611 602 592 q 456 629 505 629 q 323 598 386 629 q 220 504 260 566 q 181 353 181 442 q 219 200 181 260 q 320 111 258 140 q 452 83 383 83 q 565 104 508 83 q 664 165 621 125 l 703 78 q 577 8 646 31 q 440 -16 508 -16 m 370 813 l 204 1037 l 306 1037 l 420 888 l 537 1037 l 644 1037 l 478 813 l 370 813 z "},"ç":{"ha":708,"x_min":63,"x_max":703,"o":"m 440 -16 q 257 25 343 -16 q 116 148 170 67 q 63 349 63 229 q 95 511 63 440 q 182 630 127 581 q 305 704 236 678 q 444 729 373 729 q 570 708 508 729 q 683 639 632 688 l 641 555 q 553 611 602 592 q 456 629 505 629 q 323 598 386 629 q 220 504 260 566 q 181 353 181 442 q 219 200 181 260 q 320 111 258 140 q 452 83 383 83 q 565 104 508 83 q 664 165 621 125 l 703 78 q 577 8 646 31 q 440 -16 508 -16 m 426 -275 q 364 -270 394 -275 q 304 -260 333 -265 l 310 -201 q 361 -212 336 -207 q 415 -217 387 -217 q 472 -207 449 -217 q 494 -167 494 -197 q 472 -127 494 -137 q 418 -117 449 -117 q 393 -118 405 -117 q 370 -120 381 -119 l 393 12 l 460 12 l 448 -62 l 454 -62 q 551 -87 508 -65 q 593 -166 593 -110 q 569 -231 593 -208 q 506 -265 544 -255 q 426 -275 468 -275 z "},"ċ":{"ha":708,"x_min":63,"x_max":703,"o":"m 440 -16 q 257 25 343 -16 q 116 148 170 67 q 63 349 63 229 q 95 511 63 440 q 182 630 127 581 q 305 704 236 678 q 444 729 373 729 q 570 708 508 729 q 683 639 632 688 l 641 555 q 553 611 602 592 q 456 629 505 629 q 323 598 386 629 q 220 504 260 566 q 181 353 181 442 q 219 200 181 260 q 320 111 258 140 q 452 83 383 83 q 565 104 508 83 q 664 165 621 125 l 703 78 q 577 8 646 31 q 440 -16 508 -16 m 363 860 l 363 984 l 485 984 l 485 860 l 363 860 z "},"d":{"ha":851,"x_min":63,"x_max":805,"o":"m 390 -15 q 218 30 292 -15 q 103 157 144 75 q 63 348 63 239 q 100 541 63 456 q 210 677 137 627 q 390 728 283 728 q 515 707 458 728 q 629 637 572 686 l 629 1046 l 744 1060 l 744 271 q 752 142 744 192 q 775 61 761 92 q 805 7 790 30 l 692 -9 q 657 52 673 15 q 638 123 640 89 q 540 21 607 58 q 390 -15 474 -15 m 402 81 q 535 119 485 81 q 608 223 585 157 q 630 371 630 288 l 630 517 q 530 599 591 569 q 406 630 468 630 q 278 593 328 630 q 204 493 228 556 q 181 352 181 431 q 209 210 181 272 q 287 115 237 149 q 402 81 337 81 z "},"ď":{"ha":851,"x_min":63,"x_max":1015,"o":"m 390 -15 q 218 30 292 -15 q 103 157 144 75 q 63 348 63 239 q 100 541 63 456 q 210 677 137 627 q 390 728 283 728 q 515 707 458 728 q 629 637 572 686 l 629 1046 l 744 1060 l 744 271 q 752 142 744 192 q 775 61 761 92 q 805 7 790 30 l 692 -9 q 657 52 673 15 q 638 123 640 89 q 540 21 607 58 q 390 -15 474 -15 m 402 81 q 535 119 485 81 q 608 223 585 157 q 630 371 630 288 l 630 517 q 530 599 591 569 q 406 630 468 630 q 278 593 328 630 q 204 493 228 556 q 181 352 181 431 q 209 210 181 272 q 287 115 237 149 q 402 81 337 81 m 831 775 l 897 1060 l 1015 1060 l 915 775 l 831 775 z "},"đ":{"ha":851,"x_min":63,"x_max":828,"o":"m 390 -15 q 218 30 292 -15 q 103 157 144 75 q 63 348 63 239 q 100 541 63 456 q 210 677 137 627 q 390 728 283 728 q 515 707 458 728 q 629 637 572 686 l 629 832 l 431 832 l 431 925 l 629 925 l 629 1046 l 744 1060 l 744 925 l 828 925 l 828 832 l 744 832 l 744 271 q 752 142 744 192 q 775 61 761 92 q 805 7 790 30 l 692 -9 q 657 52 673 15 q 638 123 640 89 q 540 21 607 58 q 390 -15 474 -15 m 402 81 q 535 119 485 81 q 608 223 585 157 q 630 371 630 288 l 630 517 q 530 599 591 569 q 406 630 468 630 q 278 593 328 630 q 204 493 228 556 q 181 352 181 431 q 209 210 181 272 q 287 115 237 149 q 402 81 337 81 z "},"ð":{"ha":826,"x_min":61,"x_max":826,"o":"m 403 -16 q 201 39 282 -16 q 85 181 119 94 q 61 310 61 240 q 113 495 61 422 q 247 600 165 568 q 378 623 306 623 q 638 502 562 623 l 638 509 q 613 713 637 624 l 431 713 l 431 808 l 574 808 q 499 904 542 864 q 399 976 456 944 l 453 1035 q 594 945 536 1003 q 690 808 651 887 l 826 808 l 826 713 l 726 713 q 750 597 742 658 q 759 467 759 536 q 711 186 759 305 q 554 15 663 67 q 403 -16 488 -16 m 398 82 q 527 118 476 82 q 602 216 578 154 q 627 356 627 278 l 627 372 q 545 482 604 439 q 397 526 486 526 q 239 467 294 526 q 183 306 183 409 q 219 176 183 228 q 310 99 254 123 q 398 82 349 82 z "},"e":{"ha":743,"x_min":63,"x_max":716,"o":"m 430 -15 q 241 31 324 -15 q 110 160 158 76 q 63 358 63 244 q 105 540 63 456 q 229 676 148 624 q 424 728 310 728 q 554 700 499 728 q 639 626 609 673 q 669 522 669 580 q 608 385 669 437 q 439 305 546 334 q 198 258 333 276 q 247 165 212 205 q 331 103 283 125 q 430 81 378 81 q 563 108 502 81 q 658 175 624 135 l 716 101 q 589 16 664 48 q 430 -15 513 -15 m 190 340 q 379 377 297 356 q 509 434 462 399 q 556 524 556 469 q 522 601 556 572 q 424 630 488 630 q 312 602 367 630 q 223 517 258 574 q 188 374 188 460 q 190 340 188 357 z "},"é":{"ha":743,"x_min":63,"x_max":716,"o":"m 430 -15 q 241 31 324 -15 q 110 160 158 76 q 63 358 63 244 q 105 540 63 456 q 229 676 148 624 q 424 728 310 728 q 554 700 499 728 q 639 626 609 673 q 669 522 669 580 q 608 385 669 437 q 439 305 546 334 q 198 258 333 276 q 247 165 212 205 q 331 103 283 125 q 430 81 378 81 q 563 108 502 81 q 658 175 624 135 l 716 101 q 589 16 664 48 q 430 -15 513 -15 m 190 340 q 379 377 297 356 q 509 434 462 399 q 556 524 556 469 q 522 601 556 572 q 424 630 488 630 q 312 602 367 630 q 223 517 258 574 q 188 374 188 460 q 190 340 188 357 m 334 814 l 491 1036 l 638 1036 l 424 814 l 334 814 z "},"ě":{"ha":743,"x_min":63,"x_max":716,"o":"m 430 -15 q 241 31 324 -15 q 110 160 158 76 q 63 358 63 244 q 105 540 63 456 q 229 676 148 624 q 424 728 310 728 q 554 700 499 728 q 639 626 609 673 q 669 522 669 580 q 608 385 669 437 q 439 305 546 334 q 198 258 333 276 q 247 165 212 205 q 331 103 283 125 q 430 81 378 81 q 563 108 502 81 q 658 175 624 135 l 716 101 q 589 16 664 48 q 430 -15 513 -15 m 190 340 q 379 377 297 356 q 509 434 462 399 q 556 524 556 469 q 522 601 556 572 q 424 630 488 630 q 312 602 367 630 q 223 517 258 574 q 188 374 188 460 q 190 340 188 357 m 336 813 l 170 1037 l 272 1037 l 386 888 l 503 1037 l 610 1037 l 444 813 l 336 813 z "},"ê":{"ha":743,"x_min":63,"x_max":716,"o":"m 430 -15 q 241 31 324 -15 q 110 160 158 76 q 63 358 63 244 q 105 540 63 456 q 229 676 148 624 q 424 728 310 728 q 554 700 499 728 q 639 626 609 673 q 669 522 669 580 q 608 385 669 437 q 439 305 546 334 q 198 258 333 276 q 247 165 212 205 q 331 103 283 125 q 430 81 378 81 q 563 108 502 81 q 658 175 624 135 l 716 101 q 589 16 664 48 q 430 -15 513 -15 m 190 340 q 379 377 297 356 q 509 434 462 399 q 556 524 556 469 q 522 601 556 572 q 424 630 488 630 q 312 602 367 630 q 223 517 258 574 q 188 374 188 460 q 190 340 188 357 m 177 813 l 335 1035 l 444 1035 l 603 813 l 512 813 l 388 960 l 265 813 l 177 813 z "},"ȅ":{"ha":743,"x_min":63,"x_max":716,"o":"m 430 -15 q 241 31 324 -15 q 110 160 158 76 q 63 358 63 244 q 105 540 63 456 q 229 676 148 624 q 424 728 310 728 q 554 700 499 728 q 639 626 609 673 q 669 522 669 580 q 608 385 669 437 q 439 305 546 334 q 198 258 333 276 q 247 165 212 205 q 331 103 283 125 q 430 81 378 81 q 563 108 502 81 q 658 175 624 135 l 716 101 q 589 16 664 48 q 430 -15 513 -15 m 190 340 q 379 377 297 356 q 509 434 462 399 q 556 524 556 469 q 522 601 556 572 q 424 630 488 630 q 312 602 367 630 q 223 517 258 574 q 188 374 188 460 q 190 340 188 357 m 252 818 l 68 1040 l 190 1040 l 343 818 l 252 818 m 439 818 l 256 1040 l 378 1040 l 528 818 l 439 818 z "},"ë":{"ha":743,"x_min":63,"x_max":716,"o":"m 430 -15 q 241 31 324 -15 q 110 160 158 76 q 63 358 63 244 q 105 540 63 456 q 229 676 148 624 q 424 728 310 728 q 554 700 499 728 q 639 626 609 673 q 669 522 669 580 q 608 385 669 437 q 439 305 546 334 q 198 258 333 276 q 247 165 212 205 q 331 103 283 125 q 430 81 378 81 q 563 108 502 81 q 658 175 624 135 l 716 101 q 589 16 664 48 q 430 -15 513 -15 m 190 340 q 379 377 297 356 q 509 434 462 399 q 556 524 556 469 q 522 601 556 572 q 424 630 488 630 q 312 602 367 630 q 223 517 258 574 q 188 374 188 460 q 190 340 188 357 m 452 839 l 452 959 l 574 959 l 574 839 l 452 839 m 207 839 l 207 959 l 328 959 l 328 839 l 207 839 z "},"ė":{"ha":743,"x_min":63,"x_max":716,"o":"m 430 -15 q 241 31 324 -15 q 110 160 158 76 q 63 358 63 244 q 105 540 63 456 q 229 676 148 624 q 424 728 310 728 q 554 700 499 728 q 639 626 609 673 q 669 522 669 580 q 608 385 669 437 q 439 305 546 334 q 198 258 333 276 q 247 165 212 205 q 331 103 283 125 q 430 81 378 81 q 563 108 502 81 q 658 175 624 135 l 716 101 q 589 16 664 48 q 430 -15 513 -15 m 190 340 q 379 377 297 356 q 509 434 462 399 q 556 524 556 469 q 522 601 556 572 q 424 630 488 630 q 312 602 367 630 q 223 517 258 574 q 188 374 188 460 q 190 340 188 357 m 329 860 l 329 984 l 451 984 l 451 860 l 329 860 z "},"è":{"ha":743,"x_min":63,"x_max":716,"o":"m 430 -15 q 241 31 324 -15 q 110 160 158 76 q 63 358 63 244 q 105 540 63 456 q 229 676 148 624 q 424 728 310 728 q 554 700 499 728 q 639 626 609 673 q 669 522 669 580 q 608 385 669 437 q 439 305 546 334 q 198 258 333 276 q 247 165 212 205 q 331 103 283 125 q 430 81 378 81 q 563 108 502 81 q 658 175 624 135 l 716 101 q 589 16 664 48 q 430 -15 513 -15 m 190 340 q 379 377 297 356 q 509 434 462 399 q 556 524 556 469 q 522 601 556 572 q 424 630 488 630 q 312 602 367 630 q 223 517 258 574 q 188 374 188 460 q 190 340 188 357 m 366 818 l 135 1040 l 284 1040 l 456 818 l 366 818 z "},"ȇ":{"ha":743,"x_min":63,"x_max":716,"o":"m 430 -15 q 241 31 324 -15 q 110 160 158 76 q 63 358 63 244 q 105 540 63 456 q 229 676 148 624 q 424 728 310 728 q 554 700 499 728 q 639 626 609 673 q 669 522 669 580 q 608 385 669 437 q 439 305 546 334 q 198 258 333 276 q 247 165 212 205 q 331 103 283 125 q 430 81 378 81 q 563 108 502 81 q 658 175 624 135 l 716 101 q 589 16 664 48 q 430 -15 513 -15 m 190 340 q 379 377 297 356 q 509 434 462 399 q 556 524 556 469 q 522 601 556 572 q 424 630 488 630 q 312 602 367 630 q 223 517 258 574 q 188 374 188 460 q 190 340 188 357 m 192 831 q 249 988 199 943 q 389 1033 300 1033 q 526 986 476 1033 q 583 831 576 940 l 505 831 q 466 923 494 895 q 384 951 438 951 q 305 923 331 951 q 271 831 278 895 l 192 831 z "},"ē":{"ha":743,"x_min":63,"x_max":716,"o":"m 430 -15 q 241 31 324 -15 q 110 160 158 76 q 63 358 63 244 q 105 540 63 456 q 229 676 148 624 q 424 728 310 728 q 554 700 499 728 q 639 626 609 673 q 669 522 669 580 q 608 385 669 437 q 439 305 546 334 q 198 258 333 276 q 247 165 212 205 q 331 103 283 125 q 430 81 378 81 q 563 108 502 81 q 658 175 624 135 l 716 101 q 589 16 664 48 q 430 -15 513 -15 m 190 340 q 379 377 297 356 q 509 434 462 399 q 556 524 556 469 q 522 601 556 572 q 424 630 488 630 q 312 602 367 630 q 223 517 258 574 q 188 374 188 460 q 190 340 188 357 m 192 842 l 192 935 l 589 935 l 589 842 l 192 842 z "},"ę":{"ha":743,"x_min":63,"x_max":716,"o":"m 430 -15 q 241 31 324 -15 q 110 160 158 76 q 63 358 63 244 q 105 540 63 456 q 229 676 148 624 q 424 728 310 728 q 554 700 499 728 q 639 626 609 673 q 669 522 669 580 q 608 385 669 437 q 439 305 546 334 q 198 258 333 276 q 247 165 212 205 q 331 103 283 125 q 430 81 378 81 q 563 108 502 81 q 658 175 624 135 l 716 101 q 589 16 664 48 q 430 -15 513 -15 m 190 340 q 379 377 297 356 q 509 434 462 399 q 556 524 556 469 q 522 601 556 572 q 424 630 488 630 q 312 602 367 630 q 223 517 258 574 q 188 374 188 460 q 190 340 188 357 m 494 -257 q 409 -240 445 -257 q 354 -192 372 -224 q 342 -142 342 -170 q 357 -89 342 -112 q 389 -48 372 -65 q 437 -9 410 -27 q 492 22 464 9 l 581 14 q 509 -32 545 -8 q 451 -91 473 -57 q 440 -124 440 -108 q 462 -166 440 -151 q 510 -181 483 -181 q 568 -175 543 -181 q 617 -160 593 -169 l 617 -237 q 560 -252 593 -247 q 494 -257 527 -257 z "},"f":{"ha":485,"x_min":35,"x_max":499,"o":"m 63 -312 l 49 -228 q 143 -160 111 -212 q 176 -24 176 -107 l 176 638 l 35 638 l 35 713 l 176 713 l 176 813 q 223 1004 176 944 q 376 1064 271 1064 q 499 1041 433 1064 l 483 967 q 444 975 463 972 q 406 978 424 978 q 317 943 344 978 q 290 828 290 907 l 290 713 l 462 713 l 462 638 l 290 638 l 290 -8 q 239 -217 290 -137 q 63 -312 188 -296 z "},"g":{"ha":794,"x_min":63,"x_max":710,"o":"m 365 -343 q 248 -332 312 -343 q 131 -301 184 -320 l 144 -194 q 250 -233 192 -218 q 355 -248 308 -248 q 530 -188 464 -248 q 597 -31 597 -128 l 597 92 q 492 14 558 44 q 351 -15 426 -15 q 200 25 265 -15 q 99 136 135 65 q 63 304 63 208 q 113 526 63 431 q 252 675 163 622 q 463 728 342 728 q 601 711 533 728 q 710 668 669 695 l 710 -16 q 667 -187 710 -114 q 547 -302 624 -261 q 365 -343 469 -343 m 369 81 q 489 111 438 81 q 568 195 540 142 q 597 315 597 248 l 597 606 q 538 623 575 617 q 460 630 500 630 q 314 590 376 630 q 216 478 251 550 q 181 311 181 407 q 232 144 181 208 q 369 81 284 81 z "},"ğ":{"ha":794,"x_min":63,"x_max":710,"o":"m 365 -343 q 248 -332 312 -343 q 131 -301 184 -320 l 144 -194 q 250 -233 192 -218 q 355 -248 308 -248 q 530 -188 464 -248 q 597 -31 597 -128 l 597 92 q 492 14 558 44 q 351 -15 426 -15 q 200 25 265 -15 q 99 136 135 65 q 63 304 63 208 q 113 526 63 431 q 252 675 163 622 q 463 728 342 728 q 601 711 533 728 q 710 668 669 695 l 710 -16 q 667 -187 710 -114 q 547 -302 624 -261 q 365 -343 469 -343 m 369 81 q 489 111 438 81 q 568 195 540 142 q 597 315 597 248 l 597 606 q 538 623 575 617 q 460 630 500 630 q 314 590 376 630 q 216 478 251 550 q 181 311 181 407 q 232 144 181 208 q 369 81 284 81 m 445 831 q 306 876 356 831 q 248 1033 255 922 l 327 1033 q 361 941 335 969 q 440 913 388 913 q 522 941 494 913 q 561 1033 551 969 l 640 1033 q 582 878 633 924 q 445 831 532 831 z "},"ģ":{"ha":794,"x_min":63,"x_max":710,"o":"m 365 -343 q 248 -332 312 -343 q 131 -301 184 -320 l 144 -194 q 250 -233 192 -218 q 355 -248 308 -248 q 530 -188 464 -248 q 597 -31 597 -128 l 597 92 q 492 14 558 44 q 351 -15 426 -15 q 200 25 265 -15 q 99 136 135 65 q 63 304 63 208 q 113 526 63 431 q 252 675 163 622 q 463 728 342 728 q 601 711 533 728 q 710 668 669 695 l 710 -16 q 667 -187 710 -114 q 547 -302 624 -261 q 365 -343 469 -343 m 369 81 q 489 111 438 81 q 568 195 540 142 q 597 315 597 248 l 597 606 q 538 623 575 617 q 460 630 500 630 q 314 590 376 630 q 216 478 251 550 q 181 311 181 407 q 232 144 181 208 q 369 81 284 81 m 581 1125 l 506 803 l 376 803 l 490 1125 l 581 1125 z "},"ġ":{"ha":794,"x_min":63,"x_max":710,"o":"m 365 -343 q 248 -332 312 -343 q 131 -301 184 -320 l 144 -194 q 250 -233 192 -218 q 355 -248 308 -248 q 530 -188 464 -248 q 597 -31 597 -128 l 597 92 q 492 14 558 44 q 351 -15 426 -15 q 200 25 265 -15 q 99 136 135 65 q 63 304 63 208 q 113 526 63 431 q 252 675 163 622 q 463 728 342 728 q 601 711 533 728 q 710 668 669 695 l 710 -16 q 667 -187 710 -114 q 547 -302 624 -261 q 365 -343 469 -343 m 369 81 q 489 111 438 81 q 568 195 540 142 q 597 315 597 248 l 597 606 q 538 623 575 617 q 460 630 500 630 q 314 590 376 630 q 216 478 251 550 q 181 311 181 407 q 232 144 181 208 q 369 81 284 81 m 383 860 l 383 984 l 505 984 l 505 860 l 383 860 z "},"h":{"ha":849,"x_min":106,"x_max":797,"o":"m 786 -13 q 671 -5 710 -24 q 617 65 631 15 q 602 197 602 115 l 602 390 q 567 573 602 517 q 452 630 533 630 q 345 603 399 630 q 256 518 292 576 q 219 369 219 461 l 219 0 l 106 0 l 106 1046 l 219 1060 l 219 608 q 326 695 255 662 q 476 728 397 728 q 657 648 597 728 q 717 392 717 569 l 717 222 q 719 135 717 169 q 738 88 721 101 q 797 83 754 74 l 786 -13 z "},"ħ":{"ha":849,"x_min":28,"x_max":797,"o":"m 786 -13 q 671 -5 710 -24 q 617 65 631 15 q 602 197 602 115 l 602 390 q 567 573 602 517 q 452 630 533 630 q 345 603 399 630 q 256 518 292 576 q 219 369 219 461 l 219 0 l 106 0 l 106 832 l 28 832 l 28 925 l 106 925 l 106 1046 l 219 1060 l 219 925 l 426 925 l 426 832 l 219 832 l 219 608 q 326 695 255 662 q 476 728 397 728 q 657 648 597 728 q 717 392 717 569 l 717 222 q 719 135 717 169 q 738 88 721 101 q 797 83 754 74 l 786 -13 z "},"i":{"ha":417,"x_min":114,"x_max":417,"o":"m 301 -3 q 210 15 252 -3 q 142 77 167 34 q 116 193 116 120 l 116 713 l 231 713 l 231 197 q 256 103 231 124 q 317 82 282 82 q 359 86 333 82 q 403 98 385 91 l 417 21 q 358 3 391 10 q 301 -3 326 -3 m 114 860 l 114 984 l 236 984 l 236 860 l 114 860 z "},"ı":{"ha":417,"x_min":116,"x_max":417,"o":"m 301 -3 q 210 15 252 -3 q 142 77 167 34 q 116 193 116 120 l 116 713 l 231 713 l 231 197 q 256 103 231 124 q 317 82 282 82 q 359 86 333 82 q 403 98 385 91 l 417 21 q 358 3 391 10 q 301 -3 326 -3 z "},"í":{"ha":417,"x_min":116,"x_max":423,"o":"m 301 -3 q 210 15 252 -3 q 142 77 167 34 q 116 193 116 120 l 116 713 l 231 713 l 231 197 q 256 103 231 124 q 317 82 282 82 q 359 86 333 82 q 403 98 385 91 l 417 21 q 358 3 391 10 q 301 -3 326 -3 m 119 814 l 276 1036 l 423 1036 l 209 814 l 119 814 z "},"î":{"ha":417,"x_min":-38,"x_max":417,"o":"m 301 -3 q 210 15 252 -3 q 142 77 167 34 q 116 193 116 120 l 116 713 l 231 713 l 231 197 q 256 103 231 124 q 317 82 282 82 q 359 86 333 82 q 403 98 385 91 l 417 21 q 358 3 391 10 q 301 -3 326 -3 m -38 813 l 120 1035 l 229 1035 l 388 813 l 297 813 l 173 960 l 49 813 l -38 813 z "},"ȉ":{"ha":417,"x_min":-147,"x_max":417,"o":"m 301 -3 q 210 15 252 -3 q 142 77 167 34 q 116 193 116 120 l 116 713 l 231 713 l 231 197 q 256 103 231 124 q 317 82 282 82 q 359 86 333 82 q 403 98 385 91 l 417 21 q 358 3 391 10 q 301 -3 326 -3 m 37 818 l -147 1040 l -25 1040 l 128 818 l 37 818 m 224 818 l 40 1040 l 163 1040 l 313 818 l 224 818 z "},"ï":{"ha":417,"x_min":-8,"x_max":417,"o":"m 301 -3 q 210 15 252 -3 q 142 77 167 34 q 116 193 116 120 l 116 713 l 231 713 l 231 197 q 256 103 231 124 q 317 82 282 82 q 359 86 333 82 q 403 98 385 91 l 417 21 q 358 3 391 10 q 301 -3 326 -3 m 237 839 l 237 959 l 358 959 l 358 839 l 237 839 m -8 839 l -8 959 l 113 959 l 113 839 l -8 839 z "},"ì":{"ha":417,"x_min":-80,"x_max":417,"o":"m 301 -3 q 210 15 252 -3 q 142 77 167 34 q 116 193 116 120 l 116 713 l 231 713 l 231 197 q 256 103 231 124 q 317 82 282 82 q 359 86 333 82 q 403 98 385 91 l 417 21 q 358 3 391 10 q 301 -3 326 -3 m 151 818 l -80 1040 l 69 1040 l 240 818 l 151 818 z "},"ȋ":{"ha":417,"x_min":-24,"x_max":417,"o":"m 301 -3 q 210 15 252 -3 q 142 77 167 34 q 116 193 116 120 l 116 713 l 231 713 l 231 197 q 256 103 231 124 q 317 82 282 82 q 359 86 333 82 q 403 98 385 91 l 417 21 q 358 3 391 10 q 301 -3 326 -3 m -24 831 q 34 988 -17 943 q 174 1033 85 1033 q 311 986 260 1033 q 368 831 361 940 l 290 831 q 251 923 279 895 q 169 951 222 951 q 90 923 116 951 q 56 831 63 895 l -24 831 z "},"ī":{"ha":417,"x_min":-24,"x_max":417,"o":"m 301 -3 q 210 15 252 -3 q 142 77 167 34 q 116 193 116 120 l 116 713 l 231 713 l 231 197 q 256 103 231 124 q 317 82 282 82 q 359 86 333 82 q 403 98 385 91 l 417 21 q 358 3 391 10 q 301 -3 326 -3 m -24 842 l -24 935 l 374 935 l 374 842 l -24 842 z "},"į":{"ha":417,"x_min":114,"x_max":417,"o":"m 301 -3 q 210 15 252 -3 q 142 77 167 34 q 116 193 116 120 l 116 713 l 231 713 l 231 197 q 256 103 231 124 q 317 82 282 82 q 359 86 333 82 q 403 98 385 91 l 417 21 q 358 3 391 10 q 301 -3 326 -3 m 114 860 l 114 984 l 236 984 l 236 860 l 114 860 m 269 -267 q 184 -250 221 -267 q 130 -201 148 -233 q 118 -152 118 -180 q 133 -98 118 -122 q 165 -58 147 -75 q 213 -19 185 -37 q 267 13 240 -1 l 357 4 q 285 -42 321 -17 q 226 -101 249 -67 q 216 -134 216 -117 q 238 -176 216 -160 q 285 -191 259 -191 q 344 -185 319 -191 q 392 -169 369 -178 l 392 -247 q 336 -261 369 -256 q 269 -267 303 -267 z "},"ĩ":{"ha":417,"x_min":-49,"x_max":417,"o":"m 301 -3 q 210 15 252 -3 q 142 77 167 34 q 116 193 116 120 l 116 713 l 231 713 l 231 197 q 256 103 231 124 q 317 82 282 82 q 359 86 333 82 q 403 98 385 91 l 417 21 q 358 3 391 10 q 301 -3 326 -3 m -49 835 q -9 939 -43 896 q 90 981 25 981 q 157 967 129 981 q 215 942 185 953 q 256 934 237 934 q 299 952 284 934 q 317 997 313 970 l 399 997 q 360 892 392 938 q 263 847 328 847 q 204 859 230 847 q 153 883 178 871 q 94 894 128 894 q 31 835 38 894 l -49 835 z "},"ĳ":{"ha":766,"x_min":114,"x_max":653,"o":"m 301 -3 q 210 15 252 -3 q 142 77 167 34 q 116 193 116 120 l 116 713 l 231 713 l 231 197 q 256 103 231 124 q 317 82 282 82 q 359 86 333 82 q 403 98 385 91 l 417 21 q 358 3 391 10 q 301 -3 326 -3 m 114 860 l 114 984 l 236 984 l 236 860 l 114 860 m 431 -298 q 346 -289 384 -298 l 346 -190 q 375 -194 362 -192 q 404 -197 389 -197 q 488 -168 458 -197 q 527 -89 517 -139 q 538 22 538 -40 l 538 713 l 653 713 l 653 51 q 641 -94 653 -26 q 598 -210 628 -161 q 514 -283 568 -259 q 431 -298 479 -298 m 531 860 l 531 984 l 653 984 l 653 860 l 531 860 z "},"j":{"ha":349,"x_min":-71,"x_max":236,"o":"m 15 -298 q -71 -289 -33 -298 l -71 -190 q -41 -194 -55 -192 q -12 -197 -28 -197 q 71 -168 42 -197 q 111 -89 100 -139 q 122 22 122 -40 l 122 713 l 236 713 l 236 51 q 224 -94 236 -26 q 182 -210 212 -161 q 97 -283 151 -259 q 15 -298 63 -298 m 114 860 l 114 984 l 236 984 l 236 860 l 114 860 z "},"ȷ":{"ha":349,"x_min":-71,"x_max":236,"o":"m 15 -298 q -71 -289 -33 -298 l -71 -190 q -41 -194 -55 -192 q -12 -197 -28 -197 q 71 -168 42 -197 q 111 -89 100 -139 q 122 22 122 -40 l 122 713 l 236 713 l 236 51 q 224 -94 236 -26 q 182 -210 212 -161 q 97 -283 151 -259 q 15 -298 63 -298 z "},"ĵ":{"ha":349,"x_min":-71,"x_max":388,"o":"m 15 -298 q -71 -289 -33 -298 l -71 -190 q -41 -194 -55 -192 q -12 -197 -28 -197 q 71 -168 42 -197 q 111 -89 100 -139 q 122 22 122 -40 l 122 713 l 236 713 l 236 51 q 224 -94 236 -26 q 182 -210 212 -161 q 97 -283 151 -259 q 15 -298 63 -298 m -38 813 l 120 1035 l 229 1035 l 388 813 l 297 813 l 173 960 l 49 813 l -38 813 z "},"k":{"ha":769,"x_min":106,"x_max":801,"o":"m 739 -24 q 628 24 685 -15 q 530 131 572 62 l 418 318 l 206 19 q 164 -9 188 -4 q 123 -1 140 -14 q 106 42 106 12 l 106 1039 l 219 1060 l 219 203 l 578 713 l 681 678 l 482 403 l 619 188 q 701 95 656 129 q 801 62 747 61 l 739 -24 z "},"ķ":{"ha":769,"x_min":106,"x_max":801,"o":"m 739 -24 q 628 24 685 -15 q 530 131 572 62 l 418 318 l 206 19 q 164 -9 188 -4 q 123 -1 140 -14 q 106 42 106 12 l 106 1039 l 219 1060 l 219 203 l 578 713 l 681 678 l 482 403 l 619 188 q 701 95 656 129 q 801 62 747 61 l 739 -24 m 270 -434 l 344 -112 l 474 -112 l 361 -434 l 270 -434 z "},"ĸ":{"ha":751,"x_min":124,"x_max":744,"o":"m 124 0 l 124 713 l 238 713 l 238 387 l 562 713 l 718 713 l 350 356 q 547 178 449 265 q 744 0 645 91 l 592 0 l 238 327 l 238 0 l 124 0 z "},"l":{"ha":476,"x_min":117,"x_max":500,"o":"m 500 24 q 361 -11 430 -6 q 238 5 293 -17 q 150 77 183 27 q 117 208 117 128 l 117 1039 l 231 1060 l 231 203 q 268 101 231 131 q 364 76 306 72 q 483 106 422 80 l 500 24 z "},"ĺ":{"ha":476,"x_min":117,"x_max":500,"o":"m 500 24 q 361 -11 430 -6 q 238 5 293 -17 q 150 77 183 27 q 117 208 117 128 l 117 1039 l 231 1060 l 231 203 q 268 101 231 131 q 364 76 306 72 q 483 106 422 80 l 500 24 m 131 1113 l 288 1335 l 435 1335 l 222 1113 l 131 1113 z "},"ľ":{"ha":476,"x_min":117,"x_max":502,"o":"m 500 24 q 361 -11 430 -6 q 238 5 293 -17 q 150 77 183 27 q 117 208 117 128 l 117 1039 l 231 1060 l 231 203 q 268 101 231 131 q 364 76 306 72 q 483 106 422 80 l 500 24 m 317 775 l 383 1060 l 502 1060 l 402 775 l 317 775 z "},"ļ":{"ha":476,"x_min":117,"x_max":500,"o":"m 500 24 q 361 -11 430 -6 q 238 5 293 -17 q 150 77 183 27 q 117 208 117 128 l 117 1039 l 231 1060 l 231 203 q 268 101 231 131 q 364 76 306 72 q 483 106 422 80 l 500 24 m 150 -434 l 224 -112 l 354 -112 l 241 -434 l 150 -434 z "},"ŀ":{"ha":524,"x_min":117,"x_max":510,"o":"m 500 24 q 361 -11 430 -6 q 238 5 293 -17 q 150 77 183 27 q 117 208 117 128 l 117 1039 l 231 1060 l 231 203 q 268 101 231 131 q 364 76 306 72 q 483 106 422 80 l 500 24 m 360 467 l 360 613 l 510 613 l 510 467 l 360 467 z "},"ł":{"ha":453,"x_min":30,"x_max":399,"o":"m 147 0 l 147 478 l 30 409 l 30 511 l 147 581 l 147 1036 l 261 1036 l 261 649 l 399 733 l 399 631 l 261 547 l 261 0 l 147 0 z "},"m":{"ha":1364,"x_min":58,"x_max":1316,"o":"m 1305 -13 q 1189 -5 1229 -24 q 1133 65 1148 15 q 1117 197 1117 115 l 1117 390 q 1083 573 1117 517 q 967 630 1048 630 q 860 603 915 630 q 770 518 806 576 q 733 369 733 461 l 733 0 l 619 0 l 619 390 q 585 573 619 517 q 470 630 551 630 q 368 605 420 630 q 280 528 317 581 q 238 392 244 476 l 238 0 l 124 0 l 124 485 q 103 591 124 546 q 58 676 83 636 l 173 713 q 207 655 192 684 q 228 591 223 625 q 334 690 259 653 q 494 728 410 728 q 634 690 579 728 q 714 569 689 651 l 722 585 q 783 660 742 628 q 880 710 825 692 q 992 728 934 728 q 1172 648 1113 728 q 1232 392 1232 569 l 1232 222 q 1235 135 1232 169 q 1256 88 1238 101 q 1316 83 1273 74 l 1305 -13 z "},"n":{"ha":867,"x_min":58,"x_max":815,"o":"m 804 -13 q 689 -5 728 -24 q 635 65 649 15 q 620 197 620 115 l 620 390 q 585 573 620 517 q 470 630 551 630 q 368 605 420 630 q 280 528 317 581 q 238 392 244 476 l 238 0 l 124 0 l 124 485 q 103 591 124 546 q 58 676 83 636 l 173 713 q 207 655 192 684 q 228 591 223 625 q 334 690 259 653 q 494 728 410 728 q 675 648 615 728 q 735 392 735 569 l 735 222 q 737 135 735 169 q 756 88 739 101 q 815 83 772 74 l 804 -13 z "},"ń":{"ha":867,"x_min":58,"x_max":815,"o":"m 804 -13 q 689 -5 728 -24 q 635 65 649 15 q 620 197 620 115 l 620 390 q 585 573 620 517 q 470 630 551 630 q 368 605 420 630 q 280 528 317 581 q 238 392 244 476 l 238 0 l 124 0 l 124 485 q 103 591 124 546 q 58 676 83 636 l 173 713 q 207 655 192 684 q 228 591 223 625 q 334 690 259 653 q 494 728 410 728 q 675 648 615 728 q 735 392 735 569 l 735 222 q 737 135 735 169 q 756 88 739 101 q 815 83 772 74 l 804 -13 m 385 814 l 542 1036 l 689 1036 l 475 814 l 385 814 z "},"ň":{"ha":867,"x_min":58,"x_max":815,"o":"m 804 -13 q 689 -5 728 -24 q 635 65 649 15 q 620 197 620 115 l 620 390 q 585 573 620 517 q 470 630 551 630 q 368 605 420 630 q 280 528 317 581 q 238 392 244 476 l 238 0 l 124 0 l 124 485 q 103 591 124 546 q 58 676 83 636 l 173 713 q 207 655 192 684 q 228 591 223 625 q 334 690 259 653 q 494 728 410 728 q 675 648 615 728 q 735 392 735 569 l 735 222 q 737 135 735 169 q 756 88 739 101 q 815 83 772 74 l 804 -13 m 387 813 l 221 1037 l 323 1037 l 437 888 l 553 1037 l 660 1037 l 495 813 l 387 813 z "},"ņ":{"ha":867,"x_min":58,"x_max":815,"o":"m 804 -13 q 689 -5 728 -24 q 635 65 649 15 q 620 197 620 115 l 620 390 q 585 573 620 517 q 470 630 551 630 q 368 605 420 630 q 280 528 317 581 q 238 392 244 476 l 238 0 l 124 0 l 124 485 q 103 591 124 546 q 58 676 83 636 l 173 713 q 207 655 192 684 q 228 591 223 625 q 334 690 259 653 q 494 728 410 728 q 675 648 615 728 q 735 392 735 569 l 735 222 q 737 135 735 169 q 756 88 739 101 q 815 83 772 74 l 804 -13 m 300 -434 l 374 -112 l 504 -112 l 391 -434 l 300 -434 z "},"ñ":{"ha":867,"x_min":58,"x_max":815,"o":"m 804 -13 q 689 -5 728 -24 q 635 65 649 15 q 620 197 620 115 l 620 390 q 585 573 620 517 q 470 630 551 630 q 368 605 420 630 q 280 528 317 581 q 238 392 244 476 l 238 0 l 124 0 l 124 485 q 103 591 124 546 q 58 676 83 636 l 173 713 q 207 655 192 684 q 228 591 223 625 q 334 690 259 653 q 494 728 410 728 q 675 648 615 728 q 735 392 735 569 l 735 222 q 737 135 735 169 q 756 88 739 101 q 815 83 772 74 l 804 -13 m 217 835 q 257 939 223 896 q 356 981 291 981 q 423 967 395 981 q 481 942 451 953 q 522 934 503 934 q 565 952 550 934 q 583 997 579 970 l 665 997 q 626 892 658 938 q 529 847 594 847 q 470 859 496 847 q 419 883 444 871 q 360 894 394 894 q 297 835 304 894 l 217 835 z "},"ŋ":{"ha":848,"x_min":58,"x_max":735,"o":"m 620 390 q 585 573 620 517 q 470 630 551 630 q 368 605 420 630 q 280 528 317 581 q 238 392 244 476 l 238 0 l 124 0 l 124 485 q 103 591 124 546 q 58 676 83 636 l 173 713 q 207 655 192 684 q 228 591 223 625 q 334 690 259 653 q 494 728 410 728 q 675 648 615 728 q 735 392 735 569 l 735 51 q 723 -94 735 -26 q 680 -210 710 -161 q 596 -283 650 -259 q 513 -298 561 -298 q 428 -289 466 -298 l 428 -190 q 457 -194 444 -192 q 486 -197 471 -197 q 569 -168 540 -197 q 609 -89 599 -139 q 620 22 620 -40 l 620 390 z "},"o":{"ha":854,"x_min":64,"x_max":793,"o":"m 432 -15 q 239 31 322 -15 q 110 160 156 77 q 64 355 64 244 q 110 551 64 467 q 239 681 156 635 q 431 728 322 728 q 622 681 540 728 q 748 551 703 635 q 793 356 793 468 q 748 161 793 245 q 622 31 703 78 q 432 -15 540 -15 m 432 81 q 608 156 542 81 q 675 355 675 231 q 608 555 675 479 q 431 630 541 630 q 251 554 319 630 q 182 353 182 478 q 251 156 182 231 q 432 81 319 81 z "},"ó":{"ha":854,"x_min":64,"x_max":793,"o":"m 432 -15 q 239 31 322 -15 q 110 160 156 77 q 64 355 64 244 q 110 551 64 467 q 239 681 156 635 q 431 728 322 728 q 622 681 540 728 q 748 551 703 635 q 793 356 793 468 q 748 161 793 245 q 622 31 703 78 q 432 -15 540 -15 m 432 81 q 608 156 542 81 q 675 355 675 231 q 608 555 675 479 q 431 630 541 630 q 251 554 319 630 q 182 353 182 478 q 251 156 182 231 q 432 81 319 81 m 375 814 l 532 1036 l 679 1036 l 465 814 l 375 814 z "},"ô":{"ha":854,"x_min":64,"x_max":793,"o":"m 432 -15 q 239 31 322 -15 q 110 160 156 77 q 64 355 64 244 q 110 551 64 467 q 239 681 156 635 q 431 728 322 728 q 622 681 540 728 q 748 551 703 635 q 793 356 793 468 q 748 161 793 245 q 622 31 703 78 q 432 -15 540 -15 m 432 81 q 608 156 542 81 q 675 355 675 231 q 608 555 675 479 q 431 630 541 630 q 251 554 319 630 q 182 353 182 478 q 251 156 182 231 q 432 81 319 81 m 218 813 l 376 1035 l 485 1035 l 644 813 l 553 813 l 429 960 l 306 813 l 218 813 z "},"ȍ":{"ha":854,"x_min":64,"x_max":793,"o":"m 432 -15 q 239 31 322 -15 q 110 160 156 77 q 64 355 64 244 q 110 551 64 467 q 239 681 156 635 q 431 728 322 728 q 622 681 540 728 q 748 551 703 635 q 793 356 793 468 q 748 161 793 245 q 622 31 703 78 q 432 -15 540 -15 m 432 81 q 608 156 542 81 q 675 355 675 231 q 608 555 675 479 q 431 630 541 630 q 251 554 319 630 q 182 353 182 478 q 251 156 182 231 q 432 81 319 81 m 293 818 l 109 1040 l 231 1040 l 384 818 l 293 818 m 480 818 l 297 1040 l 419 1040 l 569 818 l 480 818 z "},"ö":{"ha":854,"x_min":64,"x_max":793,"o":"m 432 -15 q 239 31 322 -15 q 110 160 156 77 q 64 355 64 244 q 110 551 64 467 q 239 681 156 635 q 431 728 322 728 q 622 681 540 728 q 748 551 703 635 q 793 356 793 468 q 748 161 793 245 q 622 31 703 78 q 432 -15 540 -15 m 432 81 q 608 156 542 81 q 675 355 675 231 q 608 555 675 479 q 431 630 541 630 q 251 554 319 630 q 182 353 182 478 q 251 156 182 231 q 432 81 319 81 m 493 839 l 493 959 l 615 959 l 615 839 l 493 839 m 248 839 l 248 959 l 369 959 l 369 839 l 248 839 z "},"ò":{"ha":854,"x_min":64,"x_max":793,"o":"m 432 -15 q 239 31 322 -15 q 110 160 156 77 q 64 355 64 244 q 110 551 64 467 q 239 681 156 635 q 431 728 322 728 q 622 681 540 728 q 748 551 703 635 q 793 356 793 468 q 748 161 793 245 q 622 31 703 78 q 432 -15 540 -15 m 432 81 q 608 156 542 81 q 675 355 675 231 q 608 555 675 479 q 431 630 541 630 q 251 554 319 630 q 182 353 182 478 q 251 156 182 231 q 432 81 319 81 m 407 818 l 176 1040 l 325 1040 l 497 818 l 407 818 z "},"ő":{"ha":854,"x_min":64,"x_max":793,"o":"m 432 -15 q 239 31 322 -15 q 110 160 156 77 q 64 355 64 244 q 110 551 64 467 q 239 681 156 635 q 431 728 322 728 q 622 681 540 728 q 748 551 703 635 q 793 356 793 468 q 748 161 793 245 q 622 31 703 78 q 432 -15 540 -15 m 432 81 q 608 156 542 81 q 675 355 675 231 q 608 555 675 479 q 431 630 541 630 q 251 554 319 630 q 182 353 182 478 q 251 156 182 231 q 432 81 319 81 m 457 815 l 610 1033 l 732 1033 l 540 815 l 457 815 m 272 815 l 422 1033 l 544 1033 l 353 815 l 272 815 z "},"ȏ":{"ha":854,"x_min":64,"x_max":793,"o":"m 432 -15 q 239 31 322 -15 q 110 160 156 77 q 64 355 64 244 q 110 551 64 467 q 239 681 156 635 q 431 728 322 728 q 622 681 540 728 q 748 551 703 635 q 793 356 793 468 q 748 161 793 245 q 622 31 703 78 q 432 -15 540 -15 m 432 81 q 608 156 542 81 q 675 355 675 231 q 608 555 675 479 q 431 630 541 630 q 251 554 319 630 q 182 353 182 478 q 251 156 182 231 q 432 81 319 81 m 233 831 q 290 988 240 943 q 430 1033 341 1033 q 567 986 517 1033 q 624 831 617 940 l 546 831 q 507 923 535 895 q 425 951 478 951 q 346 923 372 951 q 312 831 319 895 l 233 831 z "},"ō":{"ha":854,"x_min":64,"x_max":793,"o":"m 432 -15 q 239 31 322 -15 q 110 160 156 77 q 64 355 64 244 q 110 551 64 467 q 239 681 156 635 q 431 728 322 728 q 622 681 540 728 q 748 551 703 635 q 793 356 793 468 q 748 161 793 245 q 622 31 703 78 q 432 -15 540 -15 m 432 81 q 608 156 542 81 q 675 355 675 231 q 608 555 675 479 q 431 630 541 630 q 251 554 319 630 q 182 353 182 478 q 251 156 182 231 q 432 81 319 81 m 233 842 l 233 935 l 630 935 l 630 842 l 233 842 z "},"ø":{"ha":860,"x_min":64,"x_max":793,"o":"m 240 -181 l 172 -159 l 249 26 q 113 155 163 69 q 64 355 64 240 q 110 551 64 467 q 239 681 156 635 q 431 728 322 728 q 541 714 489 728 l 614 887 l 685 865 l 610 688 q 744 557 696 643 q 793 356 793 472 q 748 161 793 245 q 622 31 703 78 q 432 -15 540 -15 q 317 -1 371 -15 l 240 -181 m 182 353 q 211 216 182 276 q 290 122 240 156 l 501 621 q 431 630 468 630 q 251 554 319 630 q 182 353 182 478 m 432 81 q 608 156 542 81 q 675 355 675 231 q 647 494 675 434 q 568 590 619 555 l 356 91 q 432 81 392 81 z "},"õ":{"ha":854,"x_min":64,"x_max":793,"o":"m 432 -15 q 239 31 322 -15 q 110 160 156 77 q 64 355 64 244 q 110 551 64 467 q 239 681 156 635 q 431 728 322 728 q 622 681 540 728 q 748 551 703 635 q 793 356 793 468 q 748 161 793 245 q 622 31 703 78 q 432 -15 540 -15 m 432 81 q 608 156 542 81 q 675 355 675 231 q 608 555 675 479 q 431 630 541 630 q 251 554 319 630 q 182 353 182 478 q 251 156 182 231 q 432 81 319 81 m 208 835 q 247 939 213 896 q 346 981 281 981 q 414 967 385 981 q 472 942 442 953 q 513 934 493 934 q 555 952 540 934 q 573 997 569 970 l 655 997 q 616 892 648 938 q 519 847 584 847 q 460 859 486 847 q 409 883 435 871 q 351 894 384 894 q 288 835 294 894 l 208 835 z "},"œ":{"ha":1368,"x_min":64,"x_max":1297,"o":"m 424 -19 q 227 32 307 -19 q 105 168 147 83 q 64 353 64 253 q 108 548 64 463 q 235 682 153 633 q 431 731 317 731 q 607 688 540 731 q 713 570 674 644 q 814 688 749 644 q 984 731 879 731 q 1161 684 1092 731 q 1264 555 1230 638 q 1297 365 1297 472 l 1297 326 l 773 326 l 773 313 q 832 141 776 206 q 987 76 888 76 q 1124 113 1067 76 q 1214 203 1181 151 l 1275 143 q 1160 25 1234 69 q 979 -19 1087 -19 q 809 25 876 -19 q 710 145 741 69 q 606 23 678 66 q 424 -19 533 -19 m 431 76 q 559 113 509 76 q 632 214 608 151 q 656 355 656 277 q 632 500 656 436 q 557 600 608 564 q 425 637 506 637 q 289 595 342 637 q 210 488 235 553 q 184 352 184 422 q 248 153 184 230 q 431 76 313 76 m 773 423 l 1177 423 q 1131 578 1177 519 q 988 637 1084 637 q 877 607 924 637 q 803 528 830 577 q 773 423 777 479 z "},"p":{"ha":870,"x_min":57,"x_max":806,"o":"m 120 -317 l 120 499 q 102 589 120 549 q 57 658 83 630 l 153 713 q 220 583 211 670 q 331 690 258 651 q 489 728 404 728 q 722 632 638 728 q 806 366 806 536 q 721 85 806 186 q 482 -15 635 -15 q 341 6 408 -15 q 234 66 274 28 l 234 -305 l 120 -317 m 465 81 q 630 155 571 81 q 688 362 688 229 q 634 559 688 488 q 483 630 580 630 q 301 543 369 630 q 233 301 233 456 l 233 186 q 333 108 269 136 q 465 81 396 81 z "},"þ":{"ha":860,"x_min":110,"x_max":791,"o":"m 110 -297 l 110 1010 l 226 1010 l 226 613 q 322 697 265 665 q 464 730 380 730 q 666 667 591 730 q 771 506 742 603 q 791 366 791 438 q 741 149 791 240 q 607 15 692 59 q 464 -16 546 -16 q 224 94 314 -16 l 224 -297 l 110 -297 m 447 76 q 575 115 526 76 q 646 219 624 153 q 669 362 669 284 q 647 502 669 440 q 577 600 625 564 q 451 637 530 637 q 319 598 369 637 q 247 492 269 559 q 224 343 224 426 q 257 189 224 253 q 351 96 290 126 q 447 76 394 76 z "},"q":{"ha":862,"x_min":64,"x_max":970,"o":"m 710 -374 l 631 -296 l 631 89 q 531 12 591 40 q 397 -15 471 -15 q 217 33 291 -15 q 103 164 142 81 q 64 351 64 247 q 104 544 64 459 q 221 678 144 629 q 405 728 297 728 q 552 698 503 728 q 631 617 601 667 l 642 713 l 758 713 q 750 657 755 695 q 745 565 745 618 l 745 -247 l 920 -153 l 970 -238 l 710 -374 m 408 81 q 499 100 455 81 q 579 149 544 119 q 631 210 614 178 l 631 377 q 576 560 631 490 q 409 630 521 630 q 279 593 329 630 q 206 494 229 557 q 182 352 182 432 q 206 214 182 275 q 281 116 231 152 q 408 81 331 81 z "},"r":{"ha":550,"x_min":63,"x_max":540,"o":"m 128 0 l 128 485 q 108 591 128 546 q 63 676 87 636 l 177 713 q 211 655 196 684 q 232 593 226 626 q 314 689 260 649 q 433 728 367 728 q 499 724 476 728 q 540 714 522 719 l 531 613 q 498 623 522 617 q 430 630 474 630 q 298 573 354 630 q 242 394 242 517 l 242 0 l 128 0 z "},"ř":{"ha":550,"x_min":63,"x_max":540,"o":"m 128 0 l 128 485 q 108 591 128 546 q 63 676 87 636 l 177 713 q 211 655 196 684 q 232 593 226 626 q 314 689 260 649 q 433 728 367 728 q 499 724 476 728 q 540 714 522 719 l 531 613 q 498 623 522 617 q 430 630 474 630 q 298 573 354 630 q 242 394 242 517 l 242 0 l 128 0 m 266 813 l 100 1037 l 202 1037 l 316 888 l 433 1037 l 540 1037 l 374 813 l 266 813 z "},"ŗ":{"ha":550,"x_min":54,"x_max":540,"o":"m 128 0 l 128 485 q 108 591 128 546 q 63 676 87 636 l 177 713 q 211 655 196 684 q 232 593 226 626 q 314 689 260 649 q 433 728 367 728 q 499 724 476 728 q 540 714 522 719 l 531 613 q 498 623 522 617 q 430 630 474 630 q 298 573 354 630 q 242 394 242 517 l 242 0 l 128 0 m 54 -434 l 128 -112 l 258 -112 l 145 -434 l 54 -434 z "},"ȑ":{"ha":550,"x_min":-2,"x_max":540,"o":"m 128 0 l 128 485 q 108 591 128 546 q 63 676 87 636 l 177 713 q 211 655 196 684 q 232 593 226 626 q 314 689 260 649 q 433 728 367 728 q 499 724 476 728 q 540 714 522 719 l 531 613 q 498 623 522 617 q 430 630 474 630 q 298 573 354 630 q 242 394 242 517 l 242 0 l 128 0 m 182 818 l -2 1040 l 120 1040 l 273 818 l 182 818 m 369 818 l 185 1040 l 308 1040 l 458 818 l 369 818 z "},"ȓ":{"ha":550,"x_min":63,"x_max":540,"o":"m 128 0 l 128 485 q 108 591 128 546 q 63 676 87 636 l 177 713 q 211 655 196 684 q 232 593 226 626 q 314 689 260 649 q 433 728 367 728 q 499 724 476 728 q 540 714 522 719 l 531 613 q 498 623 522 617 q 430 630 474 630 q 298 573 354 630 q 242 394 242 517 l 242 0 l 128 0 m 122 831 q 179 988 128 943 q 319 1033 230 1033 q 456 986 406 1033 q 513 831 506 940 l 435 831 q 396 923 424 895 q 314 951 367 951 q 235 923 261 951 q 201 831 208 895 l 122 831 z "},"s":{"ha":622,"x_min":75,"x_max":565,"o":"m 322 -15 q 178 6 242 -15 q 75 49 114 28 l 110 147 q 206 99 150 117 q 314 81 262 81 q 412 104 372 81 q 453 181 453 127 q 425 243 453 217 q 355 288 398 268 q 264 329 312 308 q 172 377 215 350 q 103 442 129 403 q 77 535 76 480 q 142 676 78 624 q 313 728 206 728 q 438 711 381 728 q 538 672 494 694 l 508 578 q 414 616 464 601 q 320 630 365 630 q 225 606 260 630 q 190 539 190 582 q 217 483 190 506 q 288 439 244 459 q 379 399 331 419 q 470 350 427 378 q 539 285 513 323 q 564 191 565 247 q 497 42 562 99 q 322 -15 432 -15 z "},"ś":{"ha":622,"x_min":75,"x_max":565,"o":"m 322 -15 q 178 6 242 -15 q 75 49 114 28 l 110 147 q 206 99 150 117 q 314 81 262 81 q 412 104 372 81 q 453 181 453 127 q 425 243 453 217 q 355 288 398 268 q 264 329 312 308 q 172 377 215 350 q 103 442 129 403 q 77 535 76 480 q 142 676 78 624 q 313 728 206 728 q 438 711 381 728 q 538 672 494 694 l 508 578 q 414 616 464 601 q 320 630 365 630 q 225 606 260 630 q 190 539 190 582 q 217 483 190 506 q 288 439 244 459 q 379 399 331 419 q 470 350 427 378 q 539 285 513 323 q 564 191 565 247 q 497 42 562 99 q 322 -15 432 -15 m 260 814 l 417 1036 l 564 1036 l 350 814 l 260 814 z "},"š":{"ha":622,"x_min":75,"x_max":565,"o":"m 322 -15 q 178 6 242 -15 q 75 49 114 28 l 110 147 q 206 99 150 117 q 314 81 262 81 q 412 104 372 81 q 453 181 453 127 q 425 243 453 217 q 355 288 398 268 q 264 329 312 308 q 172 377 215 350 q 103 442 129 403 q 77 535 76 480 q 142 676 78 624 q 313 728 206 728 q 438 711 381 728 q 538 672 494 694 l 508 578 q 414 616 464 601 q 320 630 365 630 q 225 606 260 630 q 190 539 190 582 q 217 483 190 506 q 288 439 244 459 q 379 399 331 419 q 470 350 427 378 q 539 285 513 323 q 564 191 565 247 q 497 42 562 99 q 322 -15 432 -15 m 262 813 l 96 1037 l 198 1037 l 312 888 l 428 1037 l 535 1037 l 370 813 l 262 813 z "},"ş":{"ha":622,"x_min":75,"x_max":565,"o":"m 322 -15 q 178 6 242 -15 q 75 49 114 28 l 110 147 q 206 99 150 117 q 314 81 262 81 q 412 104 372 81 q 453 181 453 127 q 425 243 453 217 q 355 288 398 268 q 264 329 312 308 q 172 377 215 350 q 103 442 129 403 q 77 535 76 480 q 142 676 78 624 q 313 728 206 728 q 438 711 381 728 q 538 672 494 694 l 508 578 q 414 616 464 601 q 320 630 365 630 q 225 606 260 630 q 190 539 190 582 q 217 483 190 506 q 288 439 244 459 q 379 399 331 419 q 470 350 427 378 q 539 285 513 323 q 564 191 565 247 q 497 42 562 99 q 322 -15 432 -15 m 293 -275 q 231 -270 262 -275 q 172 -260 200 -265 l 177 -201 q 229 -212 203 -207 q 282 -217 254 -217 q 339 -207 317 -217 q 361 -167 361 -197 q 339 -127 361 -137 q 285 -117 317 -117 q 260 -118 272 -117 q 238 -120 249 -119 l 260 12 l 328 12 l 315 -62 l 322 -62 q 418 -87 376 -65 q 460 -166 460 -110 q 436 -231 460 -208 q 374 -265 412 -255 q 293 -275 335 -275 z "},"ș":{"ha":622,"x_min":75,"x_max":565,"o":"m 322 -15 q 178 6 242 -15 q 75 49 114 28 l 110 147 q 206 99 150 117 q 314 81 262 81 q 412 104 372 81 q 453 181 453 127 q 425 243 453 217 q 355 288 398 268 q 264 329 312 308 q 172 377 215 350 q 103 442 129 403 q 77 535 76 480 q 142 676 78 624 q 313 728 206 728 q 438 711 381 728 q 538 672 494 694 l 508 578 q 414 616 464 601 q 320 630 365 630 q 225 606 260 630 q 190 539 190 582 q 217 483 190 506 q 288 439 244 459 q 379 399 331 419 q 470 350 427 378 q 539 285 513 323 q 564 191 565 247 q 497 42 562 99 q 322 -15 432 -15 m 178 -434 l 253 -112 l 383 -112 l 269 -434 l 178 -434 z "},"ß":{"ha":873,"x_min":122,"x_max":815,"o":"m 550 -16 q 420 16 475 -16 q 327 96 365 49 l 372 169 q 447 104 404 133 q 547 76 490 76 q 648 117 611 76 q 685 224 685 158 q 658 325 685 283 q 596 396 631 366 q 501 464 553 433 q 397 525 449 495 l 408 619 q 525 705 478 651 q 572 827 572 760 q 528 926 572 893 q 419 960 485 960 q 312 927 353 960 q 253 841 272 895 q 234 721 234 787 q 234 609 234 668 q 235 494 235 551 q 235 360 235 429 q 236 226 236 291 q 236 111 236 169 q 237 0 237 53 l 122 0 l 122 744 q 202 970 122 890 q 419 1049 281 1049 q 564 1023 500 1049 q 665 946 628 996 q 702 828 702 897 q 670 726 702 774 q 592 640 639 677 q 499 582 545 602 q 488 576 494 580 q 481 567 481 572 q 501 554 481 560 q 657 488 585 530 q 771 384 728 446 q 815 237 815 322 q 776 100 815 157 q 676 14 737 44 q 550 -16 615 -16 z "},"t":{"ha":570,"x_min":17,"x_max":549,"o":"m 389 -6 q 213 45 268 -6 q 158 208 158 96 l 158 638 l 17 638 l 17 713 l 162 713 l 162 901 l 272 934 l 272 713 l 506 713 l 506 638 l 272 638 l 272 207 q 303 112 272 142 q 402 83 335 83 q 443 87 418 83 q 494 97 469 91 q 536 110 520 103 l 549 24 q 468 4 517 13 q 389 -6 419 -6 z "},"ť":{"ha":570,"x_min":17,"x_max":558,"o":"m 389 -6 q 213 45 268 -6 q 158 208 158 96 l 158 638 l 17 638 l 17 713 l 162 713 l 162 901 l 272 934 l 272 713 l 506 713 l 506 638 l 272 638 l 272 207 q 303 112 272 142 q 402 83 335 83 q 443 87 418 83 q 494 97 469 91 q 536 110 520 103 l 549 24 q 468 4 517 13 q 389 -6 419 -6 m 373 775 l 439 1060 l 558 1060 l 458 775 l 373 775 z "},"ț":{"ha":570,"x_min":17,"x_max":549,"o":"m 389 -6 q 213 45 268 -6 q 158 208 158 96 l 158 638 l 17 638 l 17 713 l 162 713 l 162 901 l 272 934 l 272 713 l 506 713 l 506 638 l 272 638 l 272 207 q 303 112 272 142 q 402 83 335 83 q 443 87 418 83 q 494 97 469 91 q 536 110 520 103 l 549 24 q 468 4 517 13 q 389 -6 419 -6 m 226 -434 l 301 -112 l 431 -112 l 317 -434 l 226 -434 z "},"u":{"ha":833,"x_min":64,"x_max":802,"o":"m 363 -15 q 234 11 295 -15 q 135 96 173 37 q 101 253 98 155 l 105 404 q 98 577 108 515 q 77 666 88 640 q 64 694 65 692 l 178 713 q 192 685 181 709 q 213 597 203 660 q 219 413 223 533 l 215 253 q 238 148 214 185 q 300 95 261 110 q 380 81 338 81 q 485 106 438 81 q 561 180 533 132 q 590 297 590 228 l 590 713 l 704 713 l 704 210 q 729 109 704 134 q 802 94 754 83 l 791 -2 q 661 17 709 -17 q 608 114 614 51 q 363 -15 528 -15 z "},"ú":{"ha":833,"x_min":64,"x_max":802,"o":"m 363 -15 q 234 11 295 -15 q 135 96 173 37 q 101 253 98 155 l 105 404 q 98 577 108 515 q 77 666 88 640 q 64 694 65 692 l 178 713 q 192 685 181 709 q 213 597 203 660 q 219 413 223 533 l 215 253 q 238 148 214 185 q 300 95 261 110 q 380 81 338 81 q 485 106 438 81 q 561 180 533 132 q 590 297 590 228 l 590 713 l 704 713 l 704 210 q 729 109 704 134 q 802 94 754 83 l 791 -2 q 661 17 709 -17 q 608 114 614 51 q 363 -15 528 -15 m 360 814 l 517 1036 l 665 1036 l 451 814 l 360 814 z "},"ŭ":{"ha":833,"x_min":64,"x_max":802,"o":"m 363 -15 q 234 11 295 -15 q 135 96 173 37 q 101 253 98 155 l 105 404 q 98 577 108 515 q 77 666 88 640 q 64 694 65 692 l 178 713 q 192 685 181 709 q 213 597 203 660 q 219 413 223 533 l 215 253 q 238 148 214 185 q 300 95 261 110 q 380 81 338 81 q 485 106 438 81 q 561 180 533 132 q 590 297 590 228 l 590 713 l 704 713 l 704 210 q 729 109 704 134 q 802 94 754 83 l 791 -2 q 661 17 709 -17 q 608 114 614 51 q 363 -15 528 -15 m 418 831 q 278 876 329 831 q 221 1033 228 922 l 300 1033 q 334 941 308 969 q 413 913 360 913 q 495 941 467 913 q 534 1033 524 969 l 613 1033 q 555 878 606 924 q 418 831 505 831 z "},"û":{"ha":833,"x_min":64,"x_max":802,"o":"m 363 -15 q 234 11 295 -15 q 135 96 173 37 q 101 253 98 155 l 105 404 q 98 577 108 515 q 77 666 88 640 q 64 694 65 692 l 178 713 q 192 685 181 709 q 213 597 203 660 q 219 413 223 533 l 215 253 q 238 148 214 185 q 300 95 261 110 q 380 81 338 81 q 485 106 438 81 q 561 180 533 132 q 590 297 590 228 l 590 713 l 704 713 l 704 210 q 729 109 704 134 q 802 94 754 83 l 791 -2 q 661 17 709 -17 q 608 114 614 51 q 363 -15 528 -15 m 203 813 l 362 1035 l 471 1035 l 630 813 l 538 813 l 415 960 l 291 813 l 203 813 z "},"ȕ":{"ha":833,"x_min":64,"x_max":802,"o":"m 363 -15 q 234 11 295 -15 q 135 96 173 37 q 101 253 98 155 l 105 404 q 98 577 108 515 q 77 666 88 640 q 64 694 65 692 l 178 713 q 192 685 181 709 q 213 597 203 660 q 219 413 223 533 l 215 253 q 238 148 214 185 q 300 95 261 110 q 380 81 338 81 q 485 106 438 81 q 561 180 533 132 q 590 297 590 228 l 590 713 l 704 713 l 704 210 q 729 109 704 134 q 802 94 754 83 l 791 -2 q 661 17 709 -17 q 608 114 614 51 q 363 -15 528 -15 m 278 818 l 94 1040 l 217 1040 l 369 818 l 278 818 m 465 818 l 282 1040 l 404 1040 l 555 818 l 465 818 z "},"ü":{"ha":833,"x_min":64,"x_max":802,"o":"m 363 -15 q 234 11 295 -15 q 135 96 173 37 q 101 253 98 155 l 105 404 q 98 577 108 515 q 77 666 88 640 q 64 694 65 692 l 178 713 q 192 685 181 709 q 213 597 203 660 q 219 413 223 533 l 215 253 q 238 148 214 185 q 300 95 261 110 q 380 81 338 81 q 485 106 438 81 q 561 180 533 132 q 590 297 590 228 l 590 713 l 704 713 l 704 210 q 729 109 704 134 q 802 94 754 83 l 791 -2 q 661 17 709 -17 q 608 114 614 51 q 363 -15 528 -15 m 478 839 l 478 959 l 600 959 l 600 839 l 478 839 m 233 839 l 233 959 l 355 959 l 355 839 l 233 839 z "},"ù":{"ha":833,"x_min":64,"x_max":802,"o":"m 363 -15 q 234 11 295 -15 q 135 96 173 37 q 101 253 98 155 l 105 404 q 98 577 108 515 q 77 666 88 640 q 64 694 65 692 l 178 713 q 192 685 181 709 q 213 597 203 660 q 219 413 223 533 l 215 253 q 238 148 214 185 q 300 95 261 110 q 380 81 338 81 q 485 106 438 81 q 561 180 533 132 q 590 297 590 228 l 590 713 l 704 713 l 704 210 q 729 109 704 134 q 802 94 754 83 l 791 -2 q 661 17 709 -17 q 608 114 614 51 q 363 -15 528 -15 m 392 818 l 162 1040 l 310 1040 l 482 818 l 392 818 z "},"ű":{"ha":833,"x_min":64,"x_max":802,"o":"m 363 -15 q 234 11 295 -15 q 135 96 173 37 q 101 253 98 155 l 105 404 q 98 577 108 515 q 77 666 88 640 q 64 694 65 692 l 178 713 q 192 685 181 709 q 213 597 203 660 q 219 413 223 533 l 215 253 q 238 148 214 185 q 300 95 261 110 q 380 81 338 81 q 485 106 438 81 q 561 180 533 132 q 590 297 590 228 l 590 713 l 704 713 l 704 210 q 729 109 704 134 q 802 94 754 83 l 791 -2 q 661 17 709 -17 q 608 114 614 51 q 363 -15 528 -15 m 442 815 l 595 1033 l 717 1033 l 526 815 l 442 815 m 257 815 l 408 1033 l 530 1033 l 339 815 l 257 815 z "},"ȗ":{"ha":833,"x_min":64,"x_max":802,"o":"m 363 -15 q 234 11 295 -15 q 135 96 173 37 q 101 253 98 155 l 105 404 q 98 577 108 515 q 77 666 88 640 q 64 694 65 692 l 178 713 q 192 685 181 709 q 213 597 203 660 q 219 413 223 533 l 215 253 q 238 148 214 185 q 300 95 261 110 q 380 81 338 81 q 485 106 438 81 q 561 180 533 132 q 590 297 590 228 l 590 713 l 704 713 l 704 210 q 729 109 704 134 q 802 94 754 83 l 791 -2 q 661 17 709 -17 q 608 114 614 51 q 363 -15 528 -15 m 218 831 q 276 988 225 943 q 415 1033 326 1033 q 552 986 502 1033 q 610 831 603 940 l 531 831 q 492 923 521 895 q 410 951 464 951 q 331 923 358 951 q 297 831 305 895 l 218 831 z "},"ū":{"ha":833,"x_min":64,"x_max":802,"o":"m 363 -15 q 234 11 295 -15 q 135 96 173 37 q 101 253 98 155 l 105 404 q 98 577 108 515 q 77 666 88 640 q 64 694 65 692 l 178 713 q 192 685 181 709 q 213 597 203 660 q 219 413 223 533 l 215 253 q 238 148 214 185 q 300 95 261 110 q 380 81 338 81 q 485 106 438 81 q 561 180 533 132 q 590 297 590 228 l 590 713 l 704 713 l 704 210 q 729 109 704 134 q 802 94 754 83 l 791 -2 q 661 17 709 -17 q 608 114 614 51 q 363 -15 528 -15 m 218 842 l 218 935 l 615 935 l 615 842 l 218 842 z "},"ų":{"ha":833,"x_min":64,"x_max":826,"o":"m 363 -15 q 234 11 295 -15 q 135 96 173 37 q 101 253 98 155 l 105 404 q 98 577 108 515 q 77 666 88 640 q 64 694 65 692 l 178 713 q 192 685 181 709 q 213 597 203 660 q 219 413 223 533 l 215 253 q 238 148 214 185 q 300 95 261 110 q 380 81 338 81 q 485 106 438 81 q 561 180 533 132 q 590 297 590 228 l 590 713 l 704 713 l 704 210 q 729 109 704 134 q 802 94 754 83 l 791 -2 q 661 17 709 -17 q 608 114 614 51 q 363 -15 528 -15 m 703 -273 q 618 -256 654 -273 q 563 -208 581 -240 q 551 -158 551 -186 q 566 -105 551 -128 q 598 -64 581 -81 q 646 -25 619 -43 q 701 6 673 -7 l 790 -2 q 718 -48 754 -24 q 660 -107 682 -73 q 649 -140 649 -124 q 671 -182 649 -167 q 719 -197 692 -197 q 777 -191 752 -197 q 826 -176 802 -185 l 826 -253 q 769 -268 802 -262 q 703 -273 736 -273 z "},"ů":{"ha":833,"x_min":64,"x_max":802,"o":"m 363 -15 q 234 11 295 -15 q 135 96 173 37 q 101 253 98 155 l 105 404 q 98 577 108 515 q 77 666 88 640 q 64 694 65 692 l 178 713 q 192 685 181 709 q 213 597 203 660 q 219 413 223 533 l 215 253 q 238 148 214 185 q 300 95 261 110 q 380 81 338 81 q 485 106 438 81 q 561 180 533 132 q 590 297 590 228 l 590 713 l 704 713 l 704 210 q 729 109 704 134 q 802 94 754 83 l 791 -2 q 661 17 709 -17 q 608 114 614 51 q 363 -15 528 -15 m 417 798 q 314 835 357 798 q 271 930 271 872 q 316 1027 271 992 q 417 1063 361 1063 q 521 1024 480 1063 q 563 931 563 985 q 541 860 563 890 q 487 814 520 831 q 417 798 453 798 m 416 864 q 465 883 444 864 q 486 931 486 902 q 466 979 486 960 q 416 997 446 997 q 367 978 388 997 q 347 931 347 959 q 366 882 347 901 q 416 864 385 864 z "},"v":{"ha":738,"x_min":11,"x_max":726,"o":"m 309 0 l 11 713 l 138 713 l 333 233 q 353 176 342 210 q 373 113 365 142 q 397 193 389 166 q 412 233 406 219 l 603 713 l 726 713 l 426 0 l 309 0 z "},"w":{"ha":1172,"x_min":18,"x_max":1154,"o":"m 272 0 l 18 713 l 140 713 l 313 197 q 324 164 319 182 q 333 129 328 145 q 344 161 339 144 q 355 192 349 178 l 539 713 l 654 713 l 826 199 q 837 166 832 184 q 847 131 842 147 q 859 165 853 147 q 870 199 864 183 l 1037 713 l 1154 713 l 899 0 l 788 0 l 592 577 l 384 0 l 272 0 z "},"ẃ":{"ha":1172,"x_min":18,"x_max":1154,"o":"m 272 0 l 18 713 l 140 713 l 313 197 q 324 164 319 182 q 333 129 328 145 q 344 161 339 144 q 355 192 349 178 l 539 713 l 654 713 l 826 199 q 837 166 832 184 q 847 131 842 147 q 859 165 853 147 q 870 199 864 183 l 1037 713 l 1154 713 l 899 0 l 788 0 l 592 577 l 384 0 l 272 0 m 540 814 l 697 1036 l 844 1036 l 630 814 l 540 814 z "},"ŵ":{"ha":1172,"x_min":18,"x_max":1154,"o":"m 272 0 l 18 713 l 140 713 l 313 197 q 324 164 319 182 q 333 129 328 145 q 344 161 339 144 q 355 192 349 178 l 539 713 l 654 713 l 826 199 q 837 166 832 184 q 847 131 842 147 q 859 165 853 147 q 870 199 864 183 l 1037 713 l 1154 713 l 899 0 l 788 0 l 592 577 l 384 0 l 272 0 m 383 813 l 541 1035 l 650 1035 l 809 813 l 717 813 l 594 960 l 470 813 l 383 813 z "},"ẅ":{"ha":1172,"x_min":18,"x_max":1154,"o":"m 272 0 l 18 713 l 140 713 l 313 197 q 324 164 319 182 q 333 129 328 145 q 344 161 339 144 q 355 192 349 178 l 539 713 l 654 713 l 826 199 q 837 166 832 184 q 847 131 842 147 q 859 165 853 147 q 870 199 864 183 l 1037 713 l 1154 713 l 899 0 l 788 0 l 592 577 l 384 0 l 272 0 m 658 839 l 658 959 l 779 959 l 779 839 l 658 839 m 413 839 l 413 959 l 534 959 l 534 839 l 413 839 z "},"ẁ":{"ha":1172,"x_min":18,"x_max":1154,"o":"m 272 0 l 18 713 l 140 713 l 313 197 q 324 164 319 182 q 333 129 328 145 q 344 161 339 144 q 355 192 349 178 l 539 713 l 654 713 l 826 199 q 837 166 832 184 q 847 131 842 147 q 859 165 853 147 q 870 199 864 183 l 1037 713 l 1154 713 l 899 0 l 788 0 l 592 577 l 384 0 l 272 0 m 572 818 l 341 1040 l 490 1040 l 661 818 l 572 818 z "},"x":{"ha":755,"x_min":33,"x_max":722,"o":"m 33 0 l 311 357 l 47 713 l 188 713 l 388 435 l 588 713 l 713 713 l 450 360 l 722 0 l 582 0 l 376 283 l 165 0 l 33 0 z "},"y":{"ha":824,"x_min":72,"x_max":713,"o":"m 366 -343 q 249 -332 313 -343 q 133 -301 185 -320 l 146 -194 q 252 -233 194 -218 q 356 -248 310 -248 q 532 -188 465 -248 q 599 -31 599 -128 l 599 89 q 371 -15 519 -15 q 242 11 303 -15 q 144 96 181 37 q 109 253 106 155 l 113 404 q 107 577 117 515 q 85 665 97 639 q 72 694 74 691 l 187 713 q 200 685 188 709 q 221 597 211 660 q 228 413 231 533 l 224 253 q 246 148 222 185 q 308 95 269 110 q 388 81 346 81 q 493 106 446 81 q 570 180 541 132 q 599 297 599 228 l 599 713 l 713 713 l 713 -16 q 669 -187 713 -114 q 548 -302 626 -261 q 366 -343 470 -343 z "},"ý":{"ha":824,"x_min":72,"x_max":713,"o":"m 366 -343 q 249 -332 313 -343 q 133 -301 185 -320 l 146 -194 q 252 -233 194 -218 q 356 -248 310 -248 q 532 -188 465 -248 q 599 -31 599 -128 l 599 89 q 371 -15 519 -15 q 242 11 303 -15 q 144 96 181 37 q 109 253 106 155 l 113 404 q 107 577 117 515 q 85 665 97 639 q 72 694 74 691 l 187 713 q 200 685 188 709 q 221 597 211 660 q 228 413 231 533 l 224 253 q 246 148 222 185 q 308 95 269 110 q 388 81 346 81 q 493 106 446 81 q 570 180 541 132 q 599 297 599 228 l 599 713 l 713 713 l 713 -16 q 669 -187 713 -114 q 548 -302 626 -261 q 366 -343 470 -343 m 337 814 l 494 1036 l 641 1036 l 427 814 l 337 814 z "},"ŷ":{"ha":824,"x_min":72,"x_max":713,"o":"m 366 -343 q 249 -332 313 -343 q 133 -301 185 -320 l 146 -194 q 252 -233 194 -218 q 356 -248 310 -248 q 532 -188 465 -248 q 599 -31 599 -128 l 599 89 q 371 -15 519 -15 q 242 11 303 -15 q 144 96 181 37 q 109 253 106 155 l 113 404 q 107 577 117 515 q 85 665 97 639 q 72 694 74 691 l 187 713 q 200 685 188 709 q 221 597 211 660 q 228 413 231 533 l 224 253 q 246 148 222 185 q 308 95 269 110 q 388 81 346 81 q 493 106 446 81 q 570 180 541 132 q 599 297 599 228 l 599 713 l 713 713 l 713 -16 q 669 -187 713 -114 q 548 -302 626 -261 q 366 -343 470 -343 m 180 813 l 338 1035 l 447 1035 l 606 813 l 515 813 l 391 960 l 267 813 l 180 813 z "},"ÿ":{"ha":824,"x_min":72,"x_max":713,"o":"m 366 -343 q 249 -332 313 -343 q 133 -301 185 -320 l 146 -194 q 252 -233 194 -218 q 356 -248 310 -248 q 532 -188 465 -248 q 599 -31 599 -128 l 599 89 q 371 -15 519 -15 q 242 11 303 -15 q 144 96 181 37 q 109 253 106 155 l 113 404 q 107 577 117 515 q 85 665 97 639 q 72 694 74 691 l 187 713 q 200 685 188 709 q 221 597 211 660 q 228 413 231 533 l 224 253 q 246 148 222 185 q 308 95 269 110 q 388 81 346 81 q 493 106 446 81 q 570 180 541 132 q 599 297 599 228 l 599 713 l 713 713 l 713 -16 q 669 -187 713 -114 q 548 -302 626 -261 q 366 -343 470 -343 m 455 839 l 455 959 l 576 959 l 576 839 l 455 839 m 210 839 l 210 959 l 331 959 l 331 839 l 210 839 z "},"ỳ":{"ha":824,"x_min":72,"x_max":713,"o":"m 366 -343 q 249 -332 313 -343 q 133 -301 185 -320 l 146 -194 q 252 -233 194 -218 q 356 -248 310 -248 q 532 -188 465 -248 q 599 -31 599 -128 l 599 89 q 371 -15 519 -15 q 242 11 303 -15 q 144 96 181 37 q 109 253 106 155 l 113 404 q 107 577 117 515 q 85 665 97 639 q 72 694 74 691 l 187 713 q 200 685 188 709 q 221 597 211 660 q 228 413 231 533 l 224 253 q 246 148 222 185 q 308 95 269 110 q 388 81 346 81 q 493 106 446 81 q 570 180 541 132 q 599 297 599 228 l 599 713 l 713 713 l 713 -16 q 669 -187 713 -114 q 548 -302 626 -261 q 366 -343 470 -343 m 369 818 l 138 1040 l 287 1040 l 458 818 l 369 818 z "},"z":{"ha":680,"x_min":56,"x_max":639,"o":"m 56 0 l 56 62 l 472 619 l 74 619 l 74 713 l 627 713 l 627 652 l 212 93 l 639 93 l 639 0 l 56 0 z "},"ź":{"ha":680,"x_min":56,"x_max":639,"o":"m 56 0 l 56 62 l 472 619 l 74 619 l 74 713 l 627 713 l 627 652 l 212 93 l 639 93 l 639 0 l 56 0 m 284 814 l 441 1036 l 588 1036 l 374 814 l 284 814 z "},"ž":{"ha":680,"x_min":56,"x_max":639,"o":"m 56 0 l 56 62 l 472 619 l 74 619 l 74 713 l 627 713 l 627 652 l 212 93 l 639 93 l 639 0 l 56 0 m 286 813 l 120 1037 l 222 1037 l 336 888 l 453 1037 l 560 1037 l 394 813 l 286 813 z "},"ż":{"ha":680,"x_min":56,"x_max":639,"o":"m 56 0 l 56 62 l 472 619 l 74 619 l 74 713 l 627 713 l 627 652 l 212 93 l 639 93 l 639 0 l 56 0 m 279 860 l 279 984 l 401 984 l 401 860 l 279 860 z "},"ﬁ":{"ha":837,"x_min":31,"x_max":718,"o":"m 171 0 l 171 638 l 31 638 l 31 713 l 171 713 l 171 790 q 191 926 171 867 q 256 1018 210 985 q 378 1051 301 1051 q 428 1047 407 1051 q 473 1037 450 1042 l 473 947 q 439 955 460 953 q 398 958 417 958 q 307 917 328 958 q 285 807 285 877 l 285 713 l 718 713 l 718 0 l 603 0 l 603 638 l 285 638 l 285 0 l 171 0 m 609 908 l 609 1015 l 715 1015 l 715 908 l 609 908 z "},"ﬂ":{"ha":983,"x_min":35,"x_max":1006,"o":"m 63 -312 l 49 -228 q 143 -160 111 -212 q 176 -24 176 -107 l 176 638 l 35 638 l 35 713 l 176 713 l 176 813 q 223 1004 176 944 q 376 1064 271 1064 q 499 1041 433 1064 l 483 967 q 444 975 463 972 q 406 978 424 978 q 317 943 344 978 q 290 828 290 907 l 290 713 l 462 713 l 462 638 l 290 638 l 290 -8 q 239 -217 290 -137 q 63 -312 188 -296 m 1006 24 q 868 -11 936 -6 q 744 5 799 -17 q 656 77 689 27 q 623 208 623 128 l 623 1039 l 737 1060 l 737 203 q 774 101 737 131 q 870 76 812 72 q 989 106 928 80 l 1006 24 z "},"ª":{"ha":517,"x_min":46,"x_max":469,"o":"m 220 533 q 120 556 162 533 q 59 618 78 578 q 46 677 46 644 q 71 756 46 725 q 134 804 96 787 q 215 828 173 822 q 294 835 253 833 q 372 841 334 836 l 372 847 q 350 927 372 904 q 269 951 327 951 q 124 885 168 951 l 77 938 q 154 1004 103 983 q 274 1026 205 1026 q 412 985 359 1026 q 465 858 465 944 l 465 635 q 466 594 465 612 q 469 546 467 577 l 377 546 l 373 597 q 311 551 349 569 q 220 533 272 533 m 235 605 q 336 647 303 605 q 372 753 369 690 l 372 771 q 304 763 343 765 q 227 755 265 761 q 165 732 190 749 q 140 678 140 715 q 167 622 140 638 q 235 605 194 605 z "},"º":{"ha":572,"x_min":37,"x_max":538,"o":"m 289 533 q 104 599 172 533 q 37 781 37 665 q 77 924 37 867 q 181 1006 118 980 q 288 1025 230 1025 q 439 984 380 1025 q 522 875 498 943 q 538 778 538 829 q 498 635 538 692 q 396 552 458 578 q 289 533 351 533 m 289 608 q 402 656 363 608 q 442 777 442 704 q 402 902 442 853 q 287 951 363 951 q 174 902 213 951 q 134 780 134 853 q 173 656 134 704 q 289 608 213 608 z "},"Δ":{"ha":913,"x_min":28,"x_max":877,"o":"m 28 0 l 28 56 l 390 992 l 516 992 l 877 56 l 877 0 l 28 0 m 187 113 l 717 113 l 473 772 l 449 846 l 427 772 l 187 113 z "},"Ω":{"ha":1113,"x_min":65,"x_max":1030,"o":"m 72 0 l 65 95 l 302 95 q 134 295 189 178 q 79 539 79 412 q 142 787 79 682 q 315 949 206 892 q 562 1006 424 1006 q 808 945 703 1006 q 971 777 913 883 q 1028 536 1028 671 q 965 288 1028 401 q 802 95 902 174 l 1030 95 l 1024 0 l 659 0 l 659 84 q 841 278 776 163 q 905 524 905 394 q 864 722 905 635 q 745 859 822 809 q 558 909 667 909 q 366 858 446 909 q 245 719 287 806 q 203 527 203 633 q 246 319 203 408 q 347 167 288 230 q 446 84 394 118 l 446 0 l 72 0 z "},"μ":{"ha":845,"x_min":109,"x_max":730,"o":"m 109 -140 l 109 713 l 224 713 l 224 277 q 265 128 224 181 q 401 76 307 76 q 528 116 480 76 q 596 215 576 156 q 610 303 610 258 l 610 713 l 724 713 l 724 171 q 725 84 724 124 q 730 0 726 44 l 612 0 l 610 94 q 375 -16 529 -16 q 291 -6 328 -16 q 224 22 253 4 l 224 -140 l 109 -140 z "},"π":{"ha":894,"x_min":12,"x_max":843,"o":"m 737 -6 q 645 19 677 -6 q 602 89 614 44 q 591 194 591 133 l 591 630 l 333 630 q 308 335 322 480 q 260 61 294 190 q 237 0 249 22 l 119 0 q 166 132 151 55 q 192 285 182 208 q 208 455 202 367 q 216 630 213 542 q 109 619 155 628 q 24 588 64 609 l 12 678 q 118 716 53 710 q 256 722 183 722 l 843 722 l 843 630 l 701 630 l 701 200 q 714 130 701 158 q 769 102 726 102 q 825 111 796 102 q 826 52 825 78 q 832 4 827 27 q 785 -3 808 0 q 737 -6 761 -6 z "},"⁄":{"ha":185,"x_min":-234,"x_max":498,"o":"m -234 0 l 394 997 l 498 997 l -129 0 l -234 0 z "},"½":{"ha":1118,"x_min":70,"x_max":1049,"o":"m 91 419 l 91 502 l 176 502 l 176 700 q 175 757 176 731 q 175 811 175 784 l 175 883 q 124 858 152 871 q 70 835 97 845 l 70 926 q 132 951 105 937 q 187 981 160 965 l 260 991 l 260 500 l 344 500 l 344 419 l 91 419 m 180 0 l 808 997 l 912 997 l 285 0 l 180 0 m 669 0 l 669 77 q 778 178 724 128 q 878 279 831 228 q 938 357 915 320 q 959 422 959 392 q 931 480 959 460 q 862 499 903 499 q 782 472 813 499 q 733 408 751 445 l 674 463 q 745 548 697 515 q 866 581 794 581 q 971 556 928 581 q 1035 488 1015 531 q 1049 423 1049 458 q 1026 327 1049 368 q 975 253 1003 287 q 890 165 937 206 q 795 82 843 124 l 1048 82 l 1048 0 l 669 0 z "},"¼":{"ha":1106,"x_min":70,"x_max":1036,"o":"m 91 419 l 91 502 l 176 502 l 176 700 q 175 757 176 731 q 175 811 175 784 l 175 883 q 124 858 152 871 q 70 835 97 845 l 70 926 q 132 951 105 937 q 187 981 160 965 l 260 991 l 260 500 l 344 500 l 344 419 l 91 419 m 180 0 l 808 997 l 912 997 l 285 0 l 180 0 m 869 0 l 869 131 l 606 131 l 606 194 l 860 553 l 953 553 l 953 205 l 1029 205 l 1036 131 l 952 131 l 952 0 l 869 0 m 703 205 l 869 205 l 869 437 l 703 205 z "},"¾":{"ha":1209,"x_min":69,"x_max":1140,"o":"m 240 407 q 142 426 185 407 q 69 474 99 444 l 111 541 q 237 487 169 487 q 322 510 286 487 q 358 581 358 533 q 338 640 358 620 q 283 667 317 660 q 209 674 249 674 q 199 674 206 674 q 188 674 193 674 l 170 674 l 170 756 l 204 756 q 299 772 257 756 q 341 840 341 788 q 313 900 341 883 q 243 918 285 918 q 168 901 201 918 q 110 864 135 885 l 69 931 q 144 980 98 959 q 244 1001 190 1001 q 351 976 306 1001 q 417 910 396 951 q 433 842 433 880 q 413 765 433 796 q 359 717 392 734 q 423 666 398 699 q 448 579 448 633 q 410 474 448 514 q 320 419 372 435 q 240 407 281 407 m 283 0 l 912 997 l 1015 997 l 388 0 l 283 0 m 972 0 l 972 131 l 710 131 l 710 194 l 964 553 l 1057 553 l 1057 205 l 1133 205 l 1140 131 l 1056 131 l 1056 0 l 972 0 m 806 205 l 972 205 l 972 437 l 806 205 z "},"¹":{"ha":413,"x_min":69,"x_max":344,"o":"m 90 419 l 90 502 l 175 502 l 175 700 q 175 757 175 731 q 174 811 174 784 l 174 883 q 124 858 151 871 q 69 835 96 845 l 69 926 q 132 951 104 937 q 186 981 159 965 l 259 991 l 259 500 l 344 500 l 344 419 l 90 419 z "},"²":{"ha":519,"x_min":69,"x_max":449,"o":"m 69 419 l 69 497 q 178 598 125 547 q 278 699 232 648 q 338 776 315 740 q 360 841 360 811 q 332 899 360 880 q 263 919 303 919 q 182 892 213 919 q 134 828 151 865 l 75 882 q 146 967 97 934 q 267 1000 195 1000 q 372 975 328 1000 q 435 908 415 950 q 449 842 449 878 q 427 747 449 788 q 376 672 404 706 q 291 584 338 626 q 196 501 244 543 l 449 501 l 449 419 l 69 419 z "},"³":{"ha":517,"x_min":69,"x_max":448,"o":"m 240 407 q 142 426 185 407 q 69 474 99 444 l 111 541 q 237 487 169 487 q 322 510 286 487 q 358 581 358 533 q 338 640 358 620 q 283 667 317 660 q 209 674 249 674 q 199 674 206 674 q 188 674 193 674 l 170 674 l 170 756 l 204 756 q 299 772 257 756 q 341 840 341 788 q 313 900 341 883 q 243 918 285 918 q 168 901 201 918 q 110 864 135 885 l 69 931 q 144 980 98 959 q 244 1001 190 1001 q 351 976 306 1001 q 417 910 396 951 q 433 842 433 880 q 413 765 433 796 q 359 717 392 734 q 423 666 398 699 q 448 579 448 633 q 410 474 448 514 q 320 419 372 435 q 240 407 281 407 z "},"⁴":{"ha":569,"x_min":69,"x_max":499,"o":"m 332 427 l 332 558 l 69 558 l 69 621 l 324 981 l 417 981 l 417 632 l 492 632 l 499 558 l 415 558 l 415 427 l 332 427 m 166 632 l 332 632 l 332 864 l 166 632 z "}," ":{"ha":369,"x_min":0,"x_max":0,"o":""}," ":{"ha":369,"x_min":0,"x_max":0,"o":""},"\r":{"ha":0,"x_min":0,"x_max":0,"o":""},".":{"ha":375,"x_min":100,"x_max":249,"o":"m 174 0 q 119 22 138 0 q 100 74 100 44 q 124 127 100 108 q 175 147 147 147 q 230 125 211 147 q 249 73 249 103 q 226 19 249 39 q 174 0 203 0 z "},",":{"ha":375,"x_min":54,"x_max":258,"o":"m 54 -178 l 128 144 l 258 144 l 145 -178 l 54 -178 z "},":":{"ha":375,"x_min":110,"x_max":261,"o":"m 110 584 l 110 730 l 261 730 l 261 584 l 110 584 m 110 -8 l 110 138 l 261 138 l 261 -8 l 110 -8 z "},";":{"ha":375,"x_min":69,"x_max":274,"o":"m 110 584 l 143 730 l 261 730 l 261 584 l 110 584 m 69 -178 l 143 144 l 274 144 l 160 -178 l 69 -178 z "},"…":{"ha":1125,"x_min":110,"x_max":1011,"o":"m 860 -8 l 860 138 l 1011 138 l 1011 -8 l 860 -8 m 110 -8 l 110 138 l 261 138 l 261 -8 l 110 -8 m 485 -8 l 485 138 l 636 138 l 636 -8 l 485 -8 z "},"!":{"ha":512,"x_min":166,"x_max":324,"o":"m 212 259 l 176 1011 l 306 1011 l 272 259 l 212 259 m 244 -4 q 186 19 206 -4 q 166 74 166 42 q 191 131 166 110 q 245 151 215 151 q 303 127 283 151 q 324 73 324 104 q 299 16 324 37 q 244 -4 274 -4 z "},"¡":{"ha":512,"x_min":166,"x_max":324,"o":"m 212 748 l 272 748 l 306 -4 l 176 -4 l 212 748 m 244 1011 q 299 991 274 1011 q 324 934 324 971 q 303 880 324 903 q 245 856 283 856 q 191 877 215 856 q 166 933 166 897 q 186 988 166 965 q 244 1011 206 1011 z "},"?":{"ha":717,"x_min":127,"x_max":624,"o":"m 247 256 q 242 311 244 281 q 240 368 240 342 q 267 460 240 421 q 334 534 294 500 q 413 602 374 567 q 480 680 453 638 q 507 781 507 723 q 480 866 507 834 q 410 911 453 897 q 315 924 366 925 q 214 910 264 923 q 127 876 165 898 l 127 981 q 218 1016 169 1001 q 322 1030 267 1030 q 547 962 470 1030 q 624 787 624 894 q 603 682 624 727 q 548 602 582 638 q 477 536 515 567 q 406 473 440 505 q 351 401 372 440 q 330 310 330 362 q 334 256 330 287 l 247 256 m 295 0 q 240 22 259 0 q 221 74 221 44 q 244 127 221 108 q 296 147 268 147 q 351 125 332 147 q 370 73 370 103 q 347 19 370 39 q 295 0 324 0 z "},"¿":{"ha":717,"x_min":127,"x_max":624,"o":"m 504 763 q 509 708 507 738 q 511 651 511 677 q 484 558 511 598 q 417 485 457 519 q 338 416 378 451 q 272 339 299 381 q 244 238 244 296 q 271 153 244 185 q 342 108 298 122 q 436 95 385 94 q 537 108 488 96 q 624 142 587 121 l 624 38 q 534 3 583 17 q 429 -11 485 -11 q 204 57 281 -11 q 127 232 127 125 q 148 337 127 292 q 203 417 169 381 q 274 483 237 452 q 345 546 312 514 q 400 618 379 578 q 422 708 422 657 q 417 763 422 732 l 504 763 m 456 1019 q 511 997 492 1019 q 531 945 531 975 q 507 892 531 911 q 456 872 484 872 q 400 894 419 872 q 381 946 381 916 q 405 1000 381 981 q 456 1019 428 1019 z "},"·":{"ha":308,"x_min":53,"x_max":203,"o":"m 53 356 l 53 502 l 203 502 l 203 356 l 53 356 z "},"•":{"ha":687,"x_min":109,"x_max":578,"o":"m 342 267 q 208 306 263 267 q 127 399 153 344 q 109 482 109 439 q 154 610 109 559 q 256 684 199 661 q 346 701 297 701 q 480 663 425 701 q 560 569 534 624 q 578 487 578 530 q 558 397 578 436 q 508 332 537 358 q 438 286 480 305 q 342 267 395 267 z "},"*":{"ha":740,"x_min":122,"x_max":611,"o":"m 481 512 l 371 697 l 265 517 l 178 569 l 311 735 l 122 789 l 136 883 l 333 797 q 319 902 326 849 q 305 1008 312 956 l 403 1008 l 403 801 l 567 885 l 611 798 l 428 737 l 568 563 l 481 512 z "},"#":{"ha":863,"x_min":29,"x_max":822,"o":"m 146 42 l 204 337 l 29 337 l 37 424 l 221 424 q 238 520 229 474 q 256 615 247 567 l 74 615 l 83 701 l 271 701 l 326 986 l 427 986 l 374 701 l 555 701 l 608 986 l 709 986 l 655 701 l 822 701 l 813 615 l 639 615 l 603 424 l 778 424 l 769 337 l 588 337 l 531 42 l 430 42 l 485 337 l 304 337 l 247 42 l 146 42 m 319 424 l 503 424 l 538 615 l 357 615 l 319 424 z "},"/":{"ha":498,"x_min":-33,"x_max":526,"o":"m -33 -149 l 410 1008 l 526 1008 l 81 -149 l -33 -149 z "},"\\":{"ha":490,"x_min":-33,"x_max":526,"o":"m 526 -149 l 413 -149 l -33 1008 l 83 1008 l 526 -149 z "},"-":{"ha":506,"x_min":55,"x_max":452,"o":"m 55 340 l 55 435 l 452 435 l 452 340 l 55 340 z "},"–":{"ha":753,"x_min":-4,"x_max":753,"o":"m -4 340 l -4 435 l 753 435 l 753 340 l -4 340 z "},"—":{"ha":1508,"x_min":-2,"x_max":1500,"o":"m -2 340 l -2 435 l 1500 435 l 1500 340 l -2 340 z "},"_":{"ha":693,"x_min":-3,"x_max":693,"o":"m -3 -190 l -3 -101 l 693 -101 l 693 -190 l -3 -190 z "},"(":{"ha":435,"x_min":99,"x_max":399,"o":"m 292 -149 q 102 458 104 148 q 297 1077 99 767 l 399 1077 q 261 775 306 932 q 218 458 217 617 q 264 144 219 299 q 396 -149 308 -10 l 292 -149 z "},")":{"ha":435,"x_min":36,"x_max":335,"o":"m 39 -149 q 171 144 126 -10 q 217 458 216 299 q 173 775 218 617 q 36 1077 128 932 l 138 1077 q 333 458 335 767 q 142 -149 331 148 l 39 -149 z "},"{":{"ha":435,"x_min":60,"x_max":393,"o":"m 60 384 l 60 469 l 61 469 q 150 525 131 476 q 169 649 169 573 l 169 846 q 198 953 169 913 q 278 1012 227 994 q 393 1033 328 1031 l 393 946 q 300 907 321 946 q 280 779 280 867 l 280 614 q 274 538 280 569 q 242 480 267 506 q 161 427 217 454 q 242 373 217 399 q 274 316 267 347 q 280 240 280 284 l 280 74 q 300 -53 280 -14 q 393 -92 321 -92 l 393 -180 q 278 -158 328 -177 q 198 -100 227 -140 q 169 8 169 -60 l 169 204 q 150 329 169 281 q 61 385 131 377 l 60 384 z "},"}":{"ha":435,"x_min":60,"x_max":393,"o":"m 393 384 l 392 385 q 303 329 322 377 q 284 204 284 281 l 284 8 q 255 -100 284 -60 q 175 -158 226 -140 q 60 -180 124 -177 l 60 -92 q 152 -53 132 -92 q 173 74 173 -14 l 173 240 q 179 316 173 284 q 210 373 185 347 q 292 427 235 399 q 210 480 235 454 q 179 538 185 506 q 173 614 173 569 l 173 779 q 152 907 173 867 q 60 946 132 946 l 60 1033 q 175 1012 124 1031 q 255 953 226 994 q 284 846 284 913 l 284 649 q 303 525 284 573 q 392 469 322 476 l 393 469 l 393 384 z "},"[":{"ha":436,"x_min":133,"x_max":381,"o":"m 133 -180 l 133 1008 l 380 1008 l 380 923 l 246 923 l 246 -95 l 381 -95 l 381 -180 l 133 -180 z "},"]":{"ha":436,"x_min":54,"x_max":307,"o":"m 60 -180 l 60 -95 l 193 -95 l 193 923 l 61 923 l 54 1008 l 307 1008 l 307 -180 l 60 -180 z "},"‚":{"ha":384,"x_min":87,"x_max":286,"o":"m 87 -165 l 160 140 l 286 140 l 179 -165 l 87 -165 z "},"„":{"ha":711,"x_min":124,"x_max":572,"o":"m 373 -165 l 445 140 l 572 140 l 465 -165 l 373 -165 m 124 -165 l 197 140 l 323 140 l 217 -165 l 124 -165 z "},"“":{"ha":711,"x_min":124,"x_max":566,"o":"m 367 710 l 474 1016 l 566 1016 l 494 710 l 367 710 m 124 710 l 231 1016 l 324 1016 l 251 710 l 124 710 z "},"”":{"ha":711,"x_min":144,"x_max":570,"o":"m 371 710 l 444 1016 l 570 1016 l 463 710 l 371 710 m 144 710 l 217 1016 l 343 1016 l 237 710 l 144 710 z "},"‘":{"ha":384,"x_min":90,"x_max":289,"o":"m 90 710 l 197 1016 l 289 1016 l 217 710 l 90 710 z "},"’":{"ha":384,"x_min":97,"x_max":296,"o":"m 97 710 l 170 1016 l 296 1016 l 189 710 l 97 710 z "},"«":{"ha":803,"x_min":171,"x_max":728,"o":"m 358 119 l 171 376 l 362 635 l 473 635 l 289 376 l 467 119 l 358 119 m 615 119 l 428 376 l 618 635 l 728 635 l 546 376 l 724 119 l 615 119 z "},"»":{"ha":803,"x_min":115,"x_max":692,"o":"m 115 119 l 299 376 l 119 635 l 229 635 l 417 376 l 226 119 l 115 119 m 391 119 l 572 376 l 396 635 l 504 635 l 692 376 l 500 119 l 391 119 z "},"‹":{"ha":446,"x_min":73,"x_max":374,"o":"m 260 119 l 73 376 l 263 635 l 374 635 l 191 376 l 368 119 l 260 119 z "},"›":{"ha":446,"x_min":72,"x_max":373,"o":"m 72 119 l 253 376 l 77 635 l 185 635 l 373 376 l 181 119 l 72 119 z "},"\"":{"ha":500,"x_min":79,"x_max":395,"o":"m 104 687 l 79 1008 l 195 1008 l 195 687 l 104 687 m 305 687 l 280 1008 l 395 1008 l 395 687 l 305 687 z "},"'":{"ha":385,"x_min":122,"x_max":238,"o":"m 147 687 l 122 1008 l 238 1008 l 238 687 l 147 687 z "},"ƒ":{"ha":826,"x_min":51,"x_max":700,"o":"m 123 -231 q 51 -219 89 -231 l 59 -124 q 113 -135 86 -135 q 175 -113 152 -135 q 211 -59 199 -91 q 232 5 224 -26 q 288 278 265 137 q 338 558 312 419 l 231 558 l 238 655 l 355 655 l 371 760 q 405 881 380 827 q 476 966 429 935 q 601 997 524 997 q 652 993 627 997 q 700 984 677 990 l 694 883 q 658 894 677 890 q 619 899 640 899 q 534 870 559 899 q 499 791 508 842 l 474 655 l 613 655 l 606 558 l 458 558 l 369 83 q 342 -32 358 24 q 300 -133 326 -88 q 229 -205 274 -178 q 123 -231 188 -231 z "},"@":{"ha":1316,"x_min":90,"x_max":1222,"o":"m 672 -76 q 432 -31 538 -76 q 254 81 326 13 q 138 245 185 147 q 90 472 90 343 q 140 702 90 605 q 260 865 190 799 q 435 979 332 933 q 674 1025 538 1025 q 897 988 801 1025 q 1063 891 994 950 q 1176 751 1129 835 q 1222 549 1222 667 q 1192 391 1222 461 q 1119 271 1163 320 q 1024 192 1082 228 q 894 156 967 156 q 744 267 763 156 q 670 204 714 230 q 565 178 626 178 q 438 219 488 178 q 365 317 388 260 q 346 424 346 363 q 377 568 346 503 q 449 678 408 633 q 546 756 488 721 q 679 790 605 790 q 776 768 735 790 q 838 710 818 746 l 851 769 l 952 769 l 913 595 q 888 489 899 536 q 868 406 876 441 q 851 303 851 335 q 865 258 851 274 q 909 243 878 243 q 995 273 959 243 q 1053 338 1031 303 q 1098 433 1080 377 q 1116 553 1116 489 q 1080 717 1116 647 q 992 833 1044 787 q 855 913 936 883 q 671 942 773 942 q 474 902 560 942 q 331 804 388 863 q 234 663 274 747 q 195 470 195 578 q 233 280 195 363 q 327 140 270 197 q 474 45 387 82 q 675 8 561 8 q 878 43 789 8 q 1032 133 967 78 l 1088 85 q 915 -32 1021 13 q 672 -76 808 -76 m 577 267 q 669 297 631 267 q 731 363 707 327 q 775 455 757 401 q 792 570 792 508 q 767 665 792 630 q 681 699 741 699 q 584 668 624 699 q 518 601 543 638 q 474 513 492 565 q 455 404 455 462 q 486 305 455 343 q 577 267 517 267 z "},"&":{"ha":1144,"x_min":80,"x_max":1124,"o":"m 459 -19 q 243 26 334 -19 q 108 153 151 71 q 80 279 80 207 q 104 388 80 342 q 162 467 128 433 q 247 535 199 504 q 343 592 294 566 q 272 666 307 628 q 219 754 238 703 q 208 821 208 783 q 242 935 208 890 q 333 1001 276 979 q 459 1023 390 1023 q 603 994 542 1023 q 697 913 665 965 q 719 825 719 876 q 699 741 719 777 q 654 678 679 706 q 586 620 624 647 q 506 571 547 593 l 794 276 q 855 390 829 326 q 892 525 881 453 q 900 614 900 573 l 1016 599 q 972 374 1011 476 q 875 197 933 272 q 952 128 914 158 q 1047 79 990 98 q 1083 69 1063 74 q 1124 60 1102 65 l 1032 -8 q 906 44 955 3 q 810 129 857 85 q 664 25 748 69 q 459 -19 581 -19 m 434 638 q 520 691 478 661 q 586 763 563 721 q 601 818 601 790 q 561 903 601 875 q 465 931 521 931 q 368 903 408 931 q 328 818 328 876 q 348 738 328 771 q 391 680 367 706 q 411 659 401 669 q 434 638 422 649 m 457 81 q 620 117 556 81 q 735 202 684 153 q 718 216 733 202 q 645 288 683 249 q 572 363 608 327 l 413 521 q 303 456 356 492 q 222 363 251 420 q 205 282 205 328 q 251 161 205 206 q 356 96 297 116 q 457 81 401 81 z "},"¶":{"ha":843,"x_min":74,"x_max":701,"o":"m 307 -103 l 307 546 q 172 588 226 547 q 93 688 118 628 q 74 785 74 731 q 104 897 74 853 q 185 965 134 941 q 300 998 235 989 q 433 1008 364 1008 l 701 1008 l 701 922 l 640 922 l 640 -103 l 551 -103 l 551 922 l 406 922 l 406 -103 l 307 -103 z "},"§":{"ha":762,"x_min":128,"x_max":633,"o":"m 335 -33 q 234 -23 282 -33 q 147 3 187 -13 l 147 106 q 234 74 190 87 q 331 62 277 62 q 448 89 399 62 q 497 169 497 117 q 470 230 497 210 q 413 263 443 249 q 370 282 387 275 q 336 297 353 290 q 292 315 319 304 q 173 394 217 348 q 128 506 128 440 q 149 584 128 551 q 199 639 169 617 q 260 677 229 662 q 184 742 215 704 q 153 845 153 779 q 191 957 153 915 q 289 1018 228 999 q 419 1037 349 1037 q 503 1028 467 1037 q 578 1008 539 1020 l 578 906 q 506 931 547 920 q 422 942 466 942 q 350 934 385 942 q 294 906 316 926 q 273 848 273 885 q 297 783 273 806 q 351 744 322 761 q 448 697 399 719 q 538 652 497 676 q 606 594 579 628 q 633 512 633 559 q 613 433 633 467 q 563 375 592 399 q 503 333 533 351 q 582 276 548 311 q 617 175 617 241 q 575 59 617 106 q 469 -10 534 13 q 335 -33 405 -33 m 410 380 q 478 433 447 403 q 509 502 509 463 q 491 555 509 534 q 447 588 474 575 q 393 612 421 601 q 344 633 365 622 q 282 589 313 617 q 251 515 251 562 q 282 446 251 469 q 346 408 313 423 q 377 394 360 401 q 410 380 393 388 z "},"©":{"ha":1270,"x_min":72,"x_max":1192,"o":"m 635 -22 q 405 23 503 -22 q 236 133 306 68 q 150 237 188 179 q 92 365 113 295 q 72 504 72 433 q 121 721 72 630 q 237 875 170 812 q 403 985 306 940 q 631 1030 501 1030 q 860 984 762 1030 q 1028 874 958 939 q 1114 770 1076 828 q 1172 642 1151 712 q 1192 503 1192 574 q 1143 288 1192 378 q 1028 133 1094 197 q 862 23 959 68 q 635 -22 765 -22 m 634 59 q 826 96 742 59 q 969 188 911 133 q 1065 320 1025 241 q 1104 503 1104 399 q 1065 686 1104 607 q 968 819 1025 766 q 825 911 910 874 q 631 949 739 949 q 439 912 524 949 q 296 821 353 875 q 199 688 239 768 q 160 505 160 608 q 199 321 160 401 q 296 188 239 241 q 440 96 354 133 q 634 59 526 59 m 653 173 q 457 232 535 173 q 344 376 379 291 q 319 506 319 437 q 377 703 319 626 q 521 814 434 780 q 660 839 583 839 q 865 767 781 839 l 843 684 q 656 750 767 750 q 518 708 572 750 q 442 603 465 666 q 426 509 426 558 q 465 366 426 422 q 567 283 503 310 q 675 264 615 264 q 768 279 728 264 q 840 319 809 294 l 867 235 q 653 173 778 173 z "},"®":{"ha":1270,"x_min":72,"x_max":1192,"o":"m 635 -22 q 405 23 503 -22 q 236 133 306 68 q 150 237 188 179 q 92 365 113 295 q 72 504 72 433 q 121 721 72 630 q 237 875 170 812 q 403 985 306 940 q 631 1030 501 1030 q 860 984 762 1030 q 1028 874 958 939 q 1114 770 1076 828 q 1172 642 1151 712 q 1192 503 1192 574 q 1143 288 1192 378 q 1028 133 1094 197 q 862 23 959 68 q 635 -22 765 -22 m 634 59 q 828 96 745 59 q 969 188 911 133 q 1065 318 1026 241 q 1104 503 1104 396 q 1065 686 1104 607 q 968 819 1025 766 q 825 911 910 874 q 631 949 739 949 q 439 912 524 949 q 296 821 353 876 q 199 688 239 767 q 160 505 160 608 q 199 321 160 401 q 296 188 239 241 q 440 96 354 133 q 634 59 526 59 m 415 190 l 415 828 l 604 828 q 830 782 756 828 q 903 649 903 736 q 850 524 903 566 q 719 473 796 483 q 791 388 760 435 q 855 290 823 341 q 884 243 869 268 q 917 190 899 218 l 800 190 l 715 337 q 669 408 693 374 q 613 461 644 441 l 517 461 l 517 190 l 415 190 m 516 544 l 603 544 q 695 548 651 544 q 768 572 740 552 q 796 639 796 592 q 769 714 796 692 q 699 740 743 735 q 601 744 655 744 l 516 744 l 516 544 z "},"™":{"ha":1298,"x_min":49,"x_max":1163,"o":"m 569 476 l 569 1008 l 701 1008 l 865 625 l 1038 1008 l 1163 1008 l 1163 476 l 1078 476 l 1078 890 l 888 476 l 833 476 l 653 889 l 653 476 l 569 476 m 224 476 l 224 938 l 49 938 l 49 1008 l 491 1008 l 491 938 l 310 938 l 310 476 l 224 476 z "},"°":{"ha":586,"x_min":66,"x_max":509,"o":"m 288 594 q 160 631 213 594 q 83 719 108 668 q 66 799 66 756 q 108 918 66 871 q 202 987 149 965 q 288 1003 244 1003 q 415 966 363 1003 q 492 878 467 929 q 509 799 509 841 q 467 678 509 726 q 372 610 426 631 q 288 594 333 594 m 288 674 q 365 696 333 674 q 412 750 397 718 q 422 799 422 773 q 397 872 422 844 q 339 913 372 900 q 288 922 313 922 q 211 901 242 922 q 164 849 179 880 q 153 799 153 824 q 177 726 153 754 q 235 684 202 697 q 288 674 260 674 z "},"|":{"ha":347,"x_min":117,"x_max":226,"o":"m 117 -341 l 117 1073 l 226 1073 l 226 -341 l 117 -341 z "},"¦":{"ha":347,"x_min":117,"x_max":226,"o":"m 117 470 l 117 1073 l 226 1073 l 226 470 l 117 470 m 117 -341 l 117 273 l 226 273 l 226 -341 l 117 -341 z "},"†":{"ha":710,"x_min":74,"x_max":638,"o":"m 301 78 l 301 649 l 74 649 l 74 740 l 301 740 l 301 1008 l 399 1008 l 399 740 l 638 740 l 638 649 l 390 649 l 390 78 l 301 78 z "},"‡":{"ha":710,"x_min":68,"x_max":636,"o":"m 292 78 l 307 302 l 68 302 l 68 390 l 307 390 l 307 683 l 72 683 l 72 774 l 311 774 l 293 1008 l 412 1008 l 397 774 l 636 774 l 636 683 l 392 683 l 392 390 l 631 390 l 631 302 l 392 302 l 410 78 l 292 78 z "},"¢":{"ha":826,"x_min":65,"x_max":678,"o":"m 384 -163 l 384 -14 q 220 43 292 -6 q 107 170 148 91 q 65 349 65 249 q 103 536 65 454 q 213 669 142 619 q 384 728 285 719 l 384 890 l 463 890 l 463 728 q 667 633 603 717 l 613 556 q 463 630 561 621 l 463 83 q 555 105 507 88 q 653 156 603 122 l 678 60 q 568 9 622 27 q 463 -14 514 -9 l 463 -163 l 384 -163 m 185 353 q 240 167 185 236 q 384 85 295 99 l 384 628 q 236 536 287 612 q 185 353 185 460 z "},"¤":{"ha":860,"x_min":74,"x_max":716,"o":"m 109 135 l 84 161 l 195 276 q 141 359 161 313 q 122 459 122 406 q 139 551 122 508 q 187 631 156 595 l 74 740 l 101 767 l 213 658 q 299 710 251 691 q 400 728 347 729 q 491 709 448 726 q 568 664 534 692 l 678 778 l 706 751 l 596 637 q 647 552 628 600 q 665 452 666 505 q 646 360 663 403 q 599 283 629 317 l 716 171 l 690 146 l 574 258 q 492 208 538 226 q 393 190 445 190 q 300 207 344 190 q 222 252 256 223 l 109 135 m 392 244 q 497 272 451 244 q 572 347 544 299 q 601 452 599 394 q 575 560 602 511 q 502 639 549 609 q 397 670 456 669 q 290 643 338 672 q 212 565 241 614 q 183 457 183 516 q 210 350 183 399 q 286 273 238 301 q 392 244 333 244 z "},"$":{"ha":826,"x_min":95,"x_max":750,"o":"m 369 -119 l 369 -11 q 242 9 297 -10 q 140 62 187 28 l 174 155 q 264 110 213 129 q 371 88 314 91 l 371 450 q 232 518 294 484 q 132 602 169 553 q 95 727 95 651 q 134 858 95 799 q 235 955 172 917 q 368 998 297 992 l 368 1094 l 454 1094 l 454 999 q 589 977 528 998 q 692 921 651 956 l 658 832 q 457 902 585 898 l 457 535 q 565 489 513 513 q 659 434 617 465 q 725 358 701 402 q 750 251 750 313 q 708 114 750 169 q 598 29 665 59 q 456 -8 531 -1 l 456 -119 l 369 -119 m 371 568 l 371 898 q 267 848 308 890 q 226 735 226 806 q 247 653 226 685 q 301 601 267 621 q 371 568 334 582 m 457 91 q 577 142 528 101 q 626 249 626 183 q 599 332 626 301 q 533 384 572 364 q 457 420 494 404 l 457 91 z "},"€":{"ha":826,"x_min":52,"x_max":768,"o":"m 522 -15 q 324 34 402 -15 q 204 168 247 83 q 148 358 161 252 l 54 358 l 68 454 l 139 454 q 137 499 137 473 q 137 522 137 511 q 138 544 138 533 l 52 544 l 67 640 l 151 640 q 234 849 174 760 q 395 978 294 938 q 544 1006 461 1006 q 674 984 619 1006 q 768 924 728 963 l 743 792 q 661 872 711 840 q 539 905 611 905 q 404 867 458 905 q 320 768 351 828 q 274 640 289 708 l 685 640 l 672 544 l 262 544 q 260 501 259 523 q 263 454 260 479 l 662 454 l 649 358 l 272 358 q 311 221 283 283 q 393 123 340 159 q 533 87 447 87 q 654 113 602 87 q 753 176 706 140 l 753 52 q 650 3 706 20 q 522 -15 594 -15 z "},"£":{"ha":826,"x_min":79,"x_max":751,"o":"m 79 0 l 79 96 q 170 173 133 128 q 206 306 206 218 l 206 479 l 79 479 l 79 578 l 206 578 q 205 588 205 583 q 204 598 204 593 q 229 811 204 719 q 320 954 254 903 q 509 1006 387 1006 q 738 942 658 1006 l 701 859 q 617 894 665 881 q 511 908 569 908 q 398 875 439 908 q 340 787 357 843 q 324 658 324 731 l 324 578 l 554 578 l 554 479 l 325 479 l 325 445 q 319 276 325 359 q 285 135 314 192 q 257 98 275 113 l 751 98 l 751 0 l 79 0 z "},"¥":{"ha":879,"x_min":3,"x_max":869,"o":"m 102 197 l 102 294 l 373 294 l 373 399 l 98 399 l 98 497 l 316 497 l 3 1011 l 135 1011 l 435 505 l 737 1011 l 869 1011 l 549 497 l 763 497 l 763 399 l 492 399 l 492 294 l 765 294 l 765 197 l 492 197 l 492 0 l 373 0 l 373 197 l 102 197 z "},"+":{"ha":1013,"x_min":142,"x_max":870,"o":"m 453 43 l 453 337 l 142 337 l 142 433 l 456 433 l 456 727 l 558 727 l 558 433 l 870 433 l 870 337 l 557 337 l 557 43 l 453 43 z "},"−":{"ha":1013,"x_min":142,"x_max":871,"o":"m 142 344 l 142 440 l 871 440 l 871 344 l 142 344 z "},"×":{"ha":1013,"x_min":228,"x_max":784,"o":"m 300 107 l 228 178 l 434 385 l 228 591 l 300 663 l 506 456 l 712 663 l 784 590 l 578 385 l 784 179 l 712 107 l 506 313 l 300 107 z "},"÷":{"ha":1013,"x_min":142,"x_max":870,"o":"m 435 606 l 435 752 l 585 752 l 585 606 l 435 606 m 142 337 l 142 433 l 870 433 l 870 337 l 142 337 m 435 15 l 435 160 l 585 160 l 585 15 l 435 15 z "},"=":{"ha":1013,"x_min":142,"x_max":871,"o":"m 142 478 l 142 574 l 870 574 l 870 478 l 142 478 m 142 197 l 142 292 l 871 292 l 871 197 l 142 197 z "},"≠":{"ha":1013,"x_min":151,"x_max":861,"o":"m 358 32 l 273 44 l 362 226 l 158 226 l 152 309 l 404 309 l 506 506 l 158 506 l 151 590 l 546 590 l 640 780 l 727 767 l 639 590 l 854 590 l 861 506 l 599 506 l 496 309 l 855 309 l 861 226 l 455 226 l 358 32 z "},">":{"ha":1013,"x_min":156,"x_max":857,"o":"m 156 40 l 156 147 l 703 385 l 159 643 l 159 749 l 857 413 l 857 351 l 156 40 z "},"<":{"ha":1013,"x_min":156,"x_max":856,"o":"m 853 33 l 156 353 l 156 413 l 856 741 l 856 635 l 308 383 l 853 139 l 853 33 z "},"≥":{"ha":1013,"x_min":156,"x_max":857,"o":"m 177 151 l 177 249 l 720 491 l 180 751 l 180 848 l 844 519 l 844 464 l 177 151 m 156 6 l 156 91 l 857 91 l 857 6 l 156 6 z "},"≤":{"ha":1013,"x_min":154,"x_max":858,"o":"m 838 150 l 179 463 l 179 519 l 838 847 l 838 749 l 301 493 l 838 248 l 838 150 m 154 6 l 154 91 l 858 91 l 858 6 l 154 6 z "},"±":{"ha":1013,"x_min":138,"x_max":875,"o":"m 457 155 l 457 413 l 147 413 l 138 509 l 456 509 l 456 769 l 559 769 l 559 509 l 872 509 l 872 413 l 562 413 l 562 155 l 457 155 m 147 0 l 147 96 l 875 96 l 875 0 l 147 0 z "},"≈":{"ha":1013,"x_min":147,"x_max":866,"o":"m 227 440 l 147 459 q 215 586 165 535 q 354 637 265 637 q 449 618 406 637 q 531 575 492 599 q 607 536 569 551 q 668 522 641 522 q 747 558 721 522 q 788 638 773 593 l 865 618 q 802 491 849 542 q 664 440 754 440 q 591 452 622 440 q 531 478 560 463 q 471 511 504 492 q 411 542 438 530 q 351 555 382 555 q 269 520 297 555 q 227 440 241 485 m 228 181 l 149 201 q 217 327 167 276 q 356 379 267 379 q 451 360 407 379 q 529 322 494 341 q 604 282 569 300 q 669 264 640 264 q 748 300 722 264 q 790 379 774 336 l 866 360 q 802 234 849 285 q 665 182 756 182 q 593 194 624 182 q 533 220 561 206 q 474 253 507 234 q 414 283 441 272 q 353 296 383 296 q 270 261 298 296 q 228 181 242 227 z "},"~":{"ha":1013,"x_min":136,"x_max":877,"o":"m 216 267 l 136 306 q 182 409 149 365 q 267 474 216 453 q 346 490 301 490 q 407 480 378 490 q 462 461 436 471 q 546 424 504 444 q 630 387 588 403 q 669 378 653 378 q 729 398 704 378 q 769 445 753 417 q 790 502 784 474 l 877 475 q 830 367 863 414 q 744 299 798 321 q 669 285 712 285 q 616 294 642 285 q 567 314 590 304 q 484 353 526 332 q 397 388 442 374 q 348 397 369 397 q 259 356 291 397 q 216 267 227 315 z "},"¬":{"ha":1013,"x_min":142,"x_max":870,"o":"m 766 165 l 766 458 l 142 458 l 142 554 l 870 554 l 870 165 l 766 165 z "},"^":{"ha":1012,"x_min":128,"x_max":872,"o":"m 128 382 l 462 994 l 532 994 l 872 382 l 764 382 l 496 875 l 236 382 l 128 382 z "},"∞":{"ha":1197,"x_min":67,"x_max":1126,"o":"m 319 164 q 170 211 228 164 q 85 324 111 258 q 67 425 67 369 q 89 520 67 478 q 142 588 112 561 q 217 636 172 616 q 316 656 261 656 q 444 624 392 656 q 536 553 497 593 q 599 481 567 522 q 683 576 638 531 q 794 643 729 622 q 876 656 832 656 q 1024 615 966 656 q 1108 510 1083 575 q 1126 413 1126 467 q 1081 266 1126 325 q 971 182 1035 208 q 875 164 924 164 q 732 208 798 164 q 597 339 665 252 q 511 243 558 288 q 399 176 463 199 q 319 164 361 164 m 322 247 q 391 261 360 247 q 444 294 421 276 q 500 348 474 317 q 549 409 526 378 q 478 499 517 456 q 383 563 439 541 q 315 576 349 576 q 220 547 256 576 q 168 474 184 517 q 157 411 157 442 q 186 317 157 356 q 254 260 215 278 q 322 247 285 247 m 877 247 q 992 298 956 247 q 1029 429 1029 350 q 1001 515 1029 481 q 936 564 974 549 q 874 576 906 576 q 802 560 834 576 q 747 525 771 544 q 692 472 717 502 q 645 411 667 442 q 700 344 673 375 q 760 288 727 313 q 812 258 785 270 q 877 247 839 247 z "},"∫":{"ha":488,"x_min":86,"x_max":575,"o":"m 181 -277 q 131 -273 150 -277 q 86 -262 111 -269 l 86 -173 q 121 -181 100 -178 q 161 -183 142 -183 q 252 -143 232 -183 q 273 -33 273 -103 l 273 872 q 293 1008 273 949 q 358 1100 313 1067 q 481 1133 403 1133 q 531 1128 509 1133 q 575 1118 552 1124 l 575 1028 q 541 1036 562 1034 q 500 1039 519 1039 q 408 999 429 1039 q 387 888 387 959 l 387 -16 q 367 -152 387 -93 q 303 -244 348 -210 q 181 -277 258 -277 z "},"∏":{"ha":1089,"x_min":76,"x_max":1011,"o":"m 174 -228 l 174 888 l 88 888 l 76 988 l 1011 988 l 1000 888 l 922 888 l 922 -228 l 798 -228 l 798 888 l 296 888 l 296 -228 l 174 -228 z "},"∑":{"ha":878,"x_min":40,"x_max":847,"o":"m 40 -228 l 40 -166 l 484 383 l 55 922 l 55 988 l 816 988 l 816 890 l 226 890 l 624 390 l 204 -126 l 847 -126 l 847 -228 l 40 -228 z "},"√":{"ha":913,"x_min":60,"x_max":842,"o":"m 424 -106 l 194 479 l 74 460 l 60 538 l 265 573 l 424 149 l 465 28 l 492 151 l 751 1108 l 842 1108 l 518 -106 l 424 -106 z "},"∂":{"ha":810,"x_min":58,"x_max":746,"o":"m 342 -17 q 168 36 233 -17 q 76 170 102 88 q 58 292 58 228 q 118 524 58 428 q 271 665 178 619 q 407 696 335 696 q 538 662 485 696 q 626 581 590 628 q 627 606 626 591 q 627 633 627 622 q 594 827 627 743 q 490 949 561 910 q 392 972 447 972 q 286 951 333 972 q 202 906 239 930 l 194 1001 q 289 1046 233 1028 q 408 1065 345 1065 q 563 1031 501 1065 q 664 938 626 997 q 722 803 703 878 q 746 592 746 715 q 719 361 746 466 q 647 175 693 256 q 570 77 615 120 q 467 8 526 33 q 342 -17 410 -17 m 344 77 q 452 111 408 77 q 524 188 496 146 q 615 455 597 295 q 566 538 598 501 q 490 592 535 574 q 423 603 461 603 q 319 575 363 603 q 247 510 275 547 q 195 414 216 470 q 175 290 175 358 q 200 167 175 218 q 274 92 226 116 q 344 77 304 77 z "},"%":{"ha":1378,"x_min":117,"x_max":1254,"o":"m 361 476 q 213 522 269 476 q 133 635 157 567 q 117 739 117 683 q 157 893 117 831 q 262 985 197 956 q 365 1005 306 1005 q 546 932 483 1005 q 609 742 609 860 q 568 588 609 650 q 464 497 528 526 q 361 476 418 476 m 306 -3 l 933 997 l 1041 997 l 413 -3 l 306 -3 m 364 555 q 475 611 440 555 q 510 742 510 667 q 490 847 510 803 q 429 913 469 891 q 365 927 402 927 q 252 872 288 927 q 217 740 217 816 q 252 609 217 663 q 364 555 287 555 m 1006 -19 q 859 26 915 -19 q 778 140 803 72 q 762 244 762 188 q 802 398 762 336 q 907 490 842 460 q 1010 510 953 510 q 1191 438 1128 510 q 1254 247 1254 365 q 1214 93 1254 156 q 1109 2 1173 31 q 1006 -19 1063 -19 m 1008 60 q 1119 116 1085 60 q 1154 248 1154 172 q 1120 378 1154 324 q 1010 432 1086 432 q 897 376 933 432 q 862 243 862 319 q 943 74 862 117 q 1008 60 970 60 z "},"‰":{"ha":1657,"x_min":51,"x_max":1597,"o":"m 285 514 q 111 581 172 514 q 51 760 51 647 q 88 903 51 847 q 186 986 125 960 q 286 1005 230 1005 q 460 939 401 1005 q 520 758 520 873 q 483 615 520 673 q 384 532 445 558 q 285 514 342 514 m 170 -15 l 822 997 l 925 997 l 276 -15 l 170 -15 m 288 592 q 388 642 356 592 q 419 759 419 692 q 388 878 419 829 q 285 927 356 927 q 185 878 217 927 q 152 761 152 829 q 184 641 152 690 q 288 592 217 592 m 814 -19 q 640 48 701 -19 q 580 228 580 115 q 617 372 580 315 q 715 454 653 428 q 817 473 759 473 q 990 406 931 473 q 1049 226 1049 340 q 1013 83 1049 140 q 914 0 976 26 q 814 -19 870 -19 m 1360 -19 q 1187 48 1247 -19 q 1127 228 1127 115 q 1164 372 1127 315 q 1263 454 1201 428 q 1364 473 1306 473 q 1538 407 1478 473 q 1597 226 1597 340 q 1559 83 1597 140 q 1460 0 1522 26 q 1360 -19 1417 -19 m 816 60 q 917 109 884 60 q 949 227 949 159 q 917 346 949 298 q 815 394 885 394 q 713 345 746 394 q 681 228 681 297 q 713 108 681 157 q 816 60 746 60 m 1363 60 q 1465 109 1432 60 q 1497 227 1497 158 q 1465 345 1497 297 q 1363 394 1433 394 q 1260 345 1293 394 q 1228 228 1228 297 q 1260 108 1228 157 q 1363 60 1293 60 z "},"◊":{"ha":867,"x_min":78,"x_max":785,"o":"m 390 -31 l 78 494 l 396 1021 l 470 1021 l 785 494 l 464 -31 l 390 -31 m 427 68 q 552 282 488 177 q 680 494 617 387 q 556 706 619 601 q 434 919 494 811 q 309 706 374 810 q 181 495 244 601 q 305 282 243 388 q 427 68 367 176 z "},"̈":{"ha":0,"x_min":73,"x_max":440,"o":"m 318 839 l 318 959 l 440 959 l 440 839 l 318 839 m 73 839 l 73 959 l 194 959 l 194 839 l 73 839 z "},"̇":{"ha":0,"x_min":122,"x_max":244,"o":"m 122 860 l 122 984 l 244 984 l 244 860 l 122 860 z "},"̀":{"ha":0,"x_min":1,"x_max":321,"o":"m 231 818 l 1 1040 l 149 1040 l 321 818 l 231 818 z "},"́":{"ha":0,"x_min":122,"x_max":426,"o":"m 122 814 l 278 1036 l 426 1036 l 212 814 l 122 814 z "},"̋":{"ha":0,"x_min":113,"x_max":573,"o":"m 298 815 l 451 1033 l 573 1033 l 381 815 l 298 815 m 113 815 l 263 1033 l 385 1033 l 194 815 l 113 815 z "},"̂":{"ha":0,"x_min":24,"x_max":451,"o":"m 24 813 l 183 1035 l 292 1035 l 451 813 l 359 813 l 235 960 l 112 813 l 24 813 z "},"̌":{"ha":0,"x_min":20,"x_max":460,"o":"m 186 813 l 20 1037 l 122 1037 l 236 888 l 353 1037 l 460 1037 l 294 813 l 186 813 z "},"̆":{"ha":0,"x_min":22,"x_max":414,"o":"m 219 831 q 80 876 131 831 q 22 1033 29 922 l 101 1033 q 135 941 109 969 q 215 913 162 913 q 297 941 268 913 q 335 1033 325 969 l 414 1033 q 357 878 407 924 q 219 831 306 831 z "},"̊":{"ha":0,"x_min":63,"x_max":354,"o":"m 209 798 q 106 835 149 798 q 63 930 63 872 q 108 1027 63 992 q 208 1063 153 1063 q 313 1024 272 1063 q 354 931 354 985 q 333 860 354 890 q 278 814 312 831 q 209 798 245 798 m 208 864 q 257 883 236 864 q 278 931 278 902 q 258 979 278 960 q 208 997 238 997 q 159 978 179 997 q 138 931 138 959 q 158 882 138 901 q 208 864 177 864 z "},"̃":{"ha":0,"x_min":10,"x_max":457,"o":"m 10 835 q 49 939 15 896 q 148 981 83 981 q 216 967 188 981 q 274 942 244 953 q 315 934 295 934 q 357 952 342 934 q 375 997 372 970 l 457 997 q 418 892 450 938 q 322 847 386 847 q 263 859 288 847 q 211 883 237 871 q 153 894 186 894 q 90 835 97 894 l 10 835 z "},"̄":{"ha":0,"x_min":55,"x_max":452,"o":"m 55 842 l 55 935 l 452 935 l 452 842 l 55 842 z "},"̏":{"ha":0,"x_min":113,"x_max":573,"o":"m 297 818 l 113 1040 l 235 1040 l 388 818 l 297 818 m 483 818 l 300 1040 l 422 1040 l 573 818 l 483 818 z "},"̑":{"ha":0,"x_min":22,"x_max":414,"o":"m 22 831 q 80 988 29 943 q 219 1033 131 1033 q 357 986 306 1033 q 414 831 407 940 l 335 831 q 297 923 325 895 q 215 951 268 951 q 135 923 162 951 q 101 831 109 895 l 22 831 z "},"̒":{"ha":0,"x_min":76,"x_max":281,"o":"m 281 1153 l 206 831 l 76 831 l 190 1153 l 281 1153 z "},"̦":{"ha":0,"x_min":54,"x_max":258,"o":"m 54 -434 l 128 -112 l 258 -112 l 145 -434 l 54 -434 z "},"̧":{"ha":0,"x_min":36,"x_max":325,"o":"m 158 -275 q 95 -270 126 -275 q 36 -260 65 -265 l 42 -201 q 93 -212 68 -207 q 147 -217 119 -217 q 203 -207 181 -217 q 226 -167 226 -197 q 203 -127 226 -137 q 150 -117 181 -117 q 125 -118 137 -117 q 102 -120 113 -119 l 125 12 l 192 12 l 180 -62 l 186 -62 q 283 -87 240 -65 q 325 -166 325 -110 q 301 -231 325 -208 q 238 -265 276 -255 q 158 -275 200 -275 z "},"̨":{"ha":0,"x_min":33,"x_max":308,"o":"m 185 -271 q 100 -254 136 -271 q 45 -206 63 -237 q 33 -156 33 -184 q 48 -102 33 -126 q 80 -62 63 -79 q 128 -23 101 -41 q 183 8 155 -5 l 272 0 q 200 -46 236 -22 q 142 -105 164 -71 q 131 -138 131 -122 q 153 -180 131 -165 q 201 -195 174 -195 q 259 -189 234 -195 q 308 -174 284 -183 l 308 -251 q 251 -266 284 -260 q 185 -271 218 -271 z "},"¨":{"ha":516,"x_min":73,"x_max":440,"o":"m 318 839 l 318 959 l 440 959 l 440 839 l 318 839 m 73 839 l 73 959 l 194 959 l 194 839 l 73 839 z "},"˙":{"ha":364,"x_min":122,"x_max":244,"o":"m 122 860 l 122 984 l 244 984 l 244 860 l 122 860 z "},"`":{"ha":412,"x_min":1,"x_max":321,"o":"m 231 818 l 1 1040 l 149 1040 l 321 818 l 231 818 z "},"´":{"ha":422,"x_min":122,"x_max":426,"o":"m 122 814 l 278 1036 l 426 1036 l 212 814 l 122 814 z "},"˝":{"ha":673,"x_min":113,"x_max":573,"o":"m 298 815 l 451 1033 l 573 1033 l 381 815 l 298 815 m 113 815 l 263 1033 l 385 1033 l 194 815 l 113 815 z "},"ˆ":{"ha":485,"x_min":24,"x_max":451,"o":"m 24 813 l 183 1035 l 292 1035 l 451 813 l 359 813 l 235 960 l 112 813 l 24 813 z "},"ˇ":{"ha":485,"x_min":20,"x_max":460,"o":"m 186 813 l 20 1037 l 122 1037 l 236 888 l 353 1037 l 460 1037 l 294 813 l 186 813 z "},"˘":{"ha":437,"x_min":22,"x_max":414,"o":"m 219 831 q 80 876 131 831 q 22 1033 29 922 l 101 1033 q 135 941 109 969 q 215 913 162 913 q 297 941 268 913 q 335 1033 325 969 l 414 1033 q 357 878 407 924 q 219 831 306 831 z "},"˚":{"ha":420,"x_min":63,"x_max":354,"o":"m 209 798 q 106 835 149 798 q 63 930 63 872 q 108 1027 63 992 q 208 1063 153 1063 q 313 1024 272 1063 q 354 931 354 985 q 333 860 354 890 q 278 814 312 831 q 209 798 245 798 m 208 864 q 257 883 236 864 q 278 931 278 902 q 258 979 278 960 q 208 997 238 997 q 159 978 179 997 q 138 931 138 959 q 158 882 138 901 q 208 864 177 864 z "},"˜":{"ha":460,"x_min":10,"x_max":457,"o":"m 10 835 q 49 939 15 896 q 148 981 83 981 q 216 967 188 981 q 274 942 244 953 q 315 934 295 934 q 357 952 342 934 q 375 997 372 970 l 457 997 q 418 892 450 938 q 322 847 386 847 q 263 859 288 847 q 211 883 237 871 q 153 894 186 894 q 90 835 97 894 l 10 835 z "},"¯":{"ha":506,"x_min":55,"x_max":452,"o":"m 55 842 l 55 935 l 452 935 l 452 842 l 55 842 z "},"¸":{"ha":367,"x_min":36,"x_max":325,"o":"m 158 -275 q 95 -270 126 -275 q 36 -260 65 -265 l 42 -201 q 93 -212 68 -207 q 147 -217 119 -217 q 203 -207 181 -217 q 226 -167 226 -197 q 203 -127 226 -137 q 150 -117 181 -117 q 125 -118 137 -117 q 102 -120 113 -119 l 125 12 l 192 12 l 180 -62 l 186 -62 q 283 -87 240 -65 q 325 -166 325 -110 q 301 -231 325 -208 q 238 -265 276 -255 q 158 -275 200 -275 z "},"˛":{"ha":353,"x_min":33,"x_max":308,"o":"m 185 -271 q 100 -254 136 -271 q 45 -206 63 -237 q 33 -156 33 -184 q 48 -102 33 -126 q 80 -62 63 -79 q 128 -23 101 -41 q 183 8 155 -5 l 272 0 q 200 -46 236 -22 q 142 -105 164 -71 q 131 -138 131 -122 q 153 -180 131 -165 q 201 -195 174 -195 q 259 -189 234 -195 q 308 -174 284 -183 l 308 -251 q 251 -266 284 -260 q 185 -271 218 -271 z "}}}
